<?xml version="1.0"?>
<svg xmlns="http://www.w3.org/2000/svg" viewBox="0 -79 512.00016 512" width="512px" height="512px" class=""><g><path d="m275.066406 207.902344c14.8125.683594 21.378906 4.65625 78.019532 29.519531 46.640624-15.070313 71.324218-71.550781 44.71875-118l-61.414063-107.226563c-3.585937-6.261718-12.53125-6.261718-16.121094 0l-61.414062 107.226563c-17.089844 29.835937-13.011719 63.808594 4.449219 88.289063zm0 0" fill="#b3dbf4" data-original="#B3DBF4" class="" style="fill:#3DD0F2" data-old_color="#3dd0f2"/><path d="m284.265625 209.019531c-18.257813-24.570312-22.792969-59.226562-5.398437-89.597656l59.46875-103.828125-1.949219-3.398438c-3.585938-6.261718-12.527344-6.261718-16.117188 0l-61.414062 107.226563c-17.089844 29.835937-13.011719 63.808594 4.449219 88.289063l11.761718.191406c3.257813.152344 6.121094.460937 9.199219 1.117187zm0 0" fill="#6fbdd8" data-original="#6FBDD8" class="active-path" style="fill:#3DD0F2" data-old_color="#3dd0f2"/><path d="m203.4375 318.558594c25.898438-.257813 58.285156 1.746094 107.152344 22.933594 8.285156 3.132812 27.390625 8.191406 47.648437-1.453126 0 0 127.234375-55.625 127.242188-55.628906 4.113281-1.957031 24.828125-13.578125 16.316406-34.582031-9.925781-22.390625-34.566406-12.664063-36.632813-11.960937l-95.972656 27.925781s7.683594-20.570313-13.484375-29.75c-59.066406-25.609375-65.605469-29.648438-80.640625-30.332031l-71.628906-1.128907zm0 0" fill="#ffb398" data-original="#FFB398" class="" style="fill:#3DD0F2" data-old_color="#3dd0f2"/><path d="m501.480469 249.171875c-4.34375 8.730469-13.425781 13.742187-16 14.96875-.007813.003906-127.242188 55.625-127.242188 55.625-20.257812 9.648437-39.363281 4.589844-47.648437 1.457031-48.867188-21.1875-81.253906-23.191406-107.152344-22.933594v20.269532c25.898438-.257813 58.285156 1.746094 107.152344 22.933594 8.285156 3.132812 27.390625 8.191406 47.648437-1.457032 0 0 127.234375-55.621094 127.242188-55.628906 4.113281-1.957031 24.828125-13.574219 16.316406-34.582031-.101563-.226563-.214844-.429688-.316406-.652344zm0 0" fill="#f4a58c" data-original="#F4A58C" class="" style="fill:#3DD0F2" data-old_color="#3dd0f2"/><path d="m21.820312 180.824219c-8.398437 0-15.203124 6.808593-15.203124 15.203125v130.328125c0 8.394531 6.804687 15.203125 15.203124 15.203125h147.53125v-160.734375zm0 0" fill="#2f6780" data-original="#2F6780" class="" style="fill:#3DD0F2" data-old_color="#3dd0f2"/><path d="m6.617188 306.347656v20.007813c0 8.394531 6.804687 15.203125 15.203124 15.203125h147.53125v-20.011719h-147.53125c-8.398437 0-15.203124-6.804687-15.203124-15.199219zm0 0" fill="#1c5868" data-original="#1C5868" class=""/><path d="m193.09375 180.824219h-25.746094v160.734375h25.746094c6.816406 0 12.347656-5.53125 12.347656-12.351563v-136.035156c0-6.816406-5.53125-12.347656-12.347656-12.347656zm0 0" fill="#ededed" data-original="#EDEDED" class="" style="fill:#3DD0F2" data-old_color="#3dd0f2"/><path d="m193.09375 321.546875h-25.742188v20.011719h25.742188c6.816406 0 12.347656-5.53125 12.347656-12.351563v-20.007812c0 6.820312-5.53125 12.347656-12.347656 12.347656zm0 0" fill="#e0e0de" data-original="#E0E0DE" class="" style="fill:#3DD0F2" data-old_color="#3dd0f2"/><path d="m463.824219 230.703125-84.863281 24.699219c-.367188-6.417969-2.667969-13.480469-8.671876-19.273438 21.921876-11.65625 38.386719-32.578125 44.378907-57.359375.976562-4.027343-1.5-8.082031-5.527344-9.054687-4.03125-.980469-8.082031 1.5-9.058594 5.527344-5.769531 23.863281-23.1875 43.410156-45.785156 51.632812-35.558594-15.460938-50.882813-22.546875-61.820313-25.886719-9.480468-2.898437-14.964843-2.746093-24.289062-2.898437-15.082031-23.1875-15.90625-52.023438-1.953125-76.121094l61.414063-106.054688c.703124-1.210937 2.429687-1.214843 3.132812 0l61.417969 106.054688c3.949219 6.820312 6.761719 14.082031 8.359375 21.582031.863281 4.054688 4.847656 6.640625 8.902344 5.777344 4.050781-.859375 6.636718-4.847656 5.773437-8.898437-1.925781-9.050782-5.308594-17.792969-10.050781-25.984376l-61.414063-106.050781c-6.480469-11.1875-22.625-11.195312-29.105469 0l-61.417968 106.050781c-15.175782 26.210938-15.851563 57.058594-2.511719 83.363282l-36.90625-.601563v-4.023437c0-10.945313-8.90625-19.851563-19.851563-19.851563-6.824218 0-161.976562 0-171.273437 0-12.515625 0-22.703125 10.183594-22.703125 22.707031v130.328126c0 12.519531 10.1875 22.703124 22.703125 22.703124h47.65625c4.144531 0 7.503906-3.359374 7.503906-7.503906 0-4.140625-3.359375-7.503906-7.503906-7.503906h-47.65625c-4.242187 0-7.695313-3.449219-7.695313-7.695312v-130.328126c0-4.246093 3.453126-7.699218 7.695313-7.699218h138.027344v145.722656h-55.351563c-4.148437 0-7.503906 3.363281-7.503906 7.503906 0 4.144532 3.355469 7.503906 7.503906 7.503906h88.597656c10.945313 0 19.851563-8.902343 19.851563-19.851562v-3.144531c22.679687.261719 51.011719 3.386719 94.660156 22.3125.109375.046875.222657.09375.332031.136719 16.742188 6.328124 36.308594 6.457031 53.414063-1.648438.144531-.0625 127.21875-55.613281 127.359375-55.679688 41.703125-19.867187 20.621094-77.050781-25.769531-60.492187zm-265.003907 98.515625c0 2.671875-2.171874 4.84375-4.84375 4.84375h-18.238281v-145.722656h18.238281c2.671876 0 4.84375 2.171875 4.84375 4.84375zm284.390626-51.609375c-1.949219.851563-16.398438 7.167969-127.09375 55.5625-.074219.03125-.144532.066406-.21875.101563-17.816407 8.484374-34.917969 3.773437-41.609376 1.269531-46.191406-20.003907-76.304687-23.230469-100.460937-23.480469v-98.84375c66.621094 1.082031 62.394531.929688 65.621094 1.296875 11.402343 1.296875 21.921875 6.773437 74.160156 29.421875 13.160156 5.707031 10.488281 17.023438 9.542969 19.925781-1.171875 2.203125-6.910156 11.714844-17.511719 9.105469-17.449219-4.285156-54.6875-14.46875-55.0625-14.570312-3.996094-1.097657-8.125 1.257812-9.21875 5.257812-1.09375 3.996094 1.261719 8.121094 5.257813 9.214844.375.105468 37.804687 10.339844 55.441406 14.671875 13.839844 3.402343 26.007812-3.335938 33.042968-14.390625 97.679688-28.417969 92.949219-27.023438 93.765626-27.3125 9.1875-3.277344 21.296874-4.554688 26.90625 7.929687 5.976562 14.96875-9.238282 23.246094-12.5625 24.839844zm0 0" data-original="#000000" class="" style="fill:#000000"/></g> </svg>
