<?xml version="1.0"?>
<svg xmlns="http://www.w3.org/2000/svg" xmlns:xlink="http://www.w3.org/1999/xlink" version="1.1" id="Capa_1" x="0px" y="0px" viewBox="0 0 512.001 512.001" style="enable-background:new 0 0 512.001 512.001;" xml:space="preserve" width="512px" height="512px" class=""><g><g>
	<path style="fill:#3DD0F2" d="M400.276,320.123c22.123,0,40.076,17.955,40.076,40.076c0,22.122-17.955,40.076-40.076,40.076   c-22.123,0-40.076-17.955-40.076-40.076C360.199,338.078,378.153,320.123,400.276,320.123z" data-original="#768BA0" class="" data-old_color="#3dd0f2"/>
	<path style="fill:#3DD0F2" d="M111.724,320.123c22.123,0,40.076,17.955,40.076,40.076c0,22.122-17.955,40.076-40.076,40.076   c-22.123,0-40.076-17.955-40.076-40.076C71.648,338.078,89.602,320.123,111.724,320.123z" data-original="#768BA0" class="" data-old_color="#3dd0f2"/>
</g><g>
	<polygon style="fill:#69F0F7;" points="504.475,135.771 504.475,272.031 376.23,272.031 360.199,256.001 360.199,135.771  " data-original="#69F0F7" class=""/>
	<polygon style="fill:#69F0F7;" points="360.199,135.771 360.199,256.001 272.03,256.001 272.03,135.771 336.153,135.771  " data-original="#69F0F7" class=""/>
	<rect x="183.861" y="135.772" style="fill:#69F0F7;" width="88.163" height="120.23" data-original="#69F0F7" class=""/>
	<polygon style="fill:#69F0F7;" points="183.862,135.771 183.862,256.001 95.694,256.001 95.694,135.771 143.786,135.771  " data-original="#69F0F7" class=""/>
	<path style="fill:#69F0F7;" d="M95.694,135.771v120.23H7.525V151.802c0-8.817,7.214-16.03,16.03-16.03H95.694z" data-original="#69F0F7" class=""/>
</g><g>
	<polygon style="fill:#3DD0F2" points="328.138,111.725 336.153,135.771 272.03,135.771 183.862,135.771 143.786,135.771    151.801,111.725  " data-original="#FFE451" class="" data-old_color="#3dd0f2"/>
	<path style="fill:#3DD0F2" d="M504.475,272.031v72.138c0,8.816-7.214,16.03-16.03,16.03h-48.092   c0-22.123-17.955-40.076-40.076-40.076c-22.123,0-40.076,17.955-40.076,40.076h-208.4c0-22.123-17.955-40.076-40.076-40.076   c-22.123,0-40.076,17.955-40.076,40.076H23.556c-8.817,0-16.03-7.214-16.03-16.03v-88.168h88.168h88.168h88.168h88.168l16.03,16.03   H504.475z" data-original="#FFE451" class="" data-old_color="#3dd0f2"/>
</g><polygon style="fill:#3DD0F2" points="151.801,111.725 143.786,135.771 183.862,135.771 207.908,135.771 215.924,111.725 " data-original="#FFCC51" class="" data-old_color="#3dd0f2"/><g>
	<rect x="95.698" y="135.772" style="fill:#3DD0F2" width="40.076" height="120.23" data-original="#69DCF7" class="active-path" data-old_color="#3dd0f2"/>
	<rect x="183.861" y="135.772" style="fill:#3DD0F2" width="40.076" height="120.23" data-original="#69DCF7" class="active-path" data-old_color="#3dd0f2"/>
	<rect x="272.034" y="135.772" style="fill:#3DD0F2" width="40.076" height="120.23" data-original="#69DCF7" class="active-path" data-old_color="#3dd0f2"/>
	<polygon style="fill:#3DD0F2" points="408.291,135.771 360.199,135.771 360.199,256.001 376.23,272.031 424.322,272.031    408.291,256.001  " data-original="#69DCF7" class="active-path" data-old_color="#3dd0f2"/>
	<path style="fill:#3DD0F2" d="M55.617,135.771H23.556c-8.816,0-16.03,7.213-16.03,16.03v104.199h32.062V151.802   C39.587,142.984,46.801,135.771,55.617,135.771z" data-original="#69DCF7" class="active-path" data-old_color="#3dd0f2"/>
</g><path style="fill:#3DD0F2" d="M47.602,344.169v-88.168H7.525v88.168c0,8.816,7.214,16.03,16.03,16.03h40.076  C54.816,360.2,47.602,352.986,47.602,344.169z" data-original="#FFCC51" class="" data-old_color="#3dd0f2"/><g>
	<path style="fill:#020202" d="M341.577,128.246l-8.017-24.046h-85.576v15.05h74.729l2.998,8.996H154.227l2.998-8.996h66.714V104.2   h-77.561l-8.017,24.046H23.556C10.567,128.246,0,138.813,0,151.802v32.061h15.05v-32.061c0-4.691,3.816-8.506,8.506-8.506h152.781   v105.18h-73.118v-88.659h-15.05v88.659H15.05v-40.567H0v136.26c0,12.988,10.567,23.556,23.556,23.556h41.168   c3.618,22.683,23.313,40.076,47,40.076c23.688,0,43.383-17.393,47.002-40.076h57.198v-15.05h-57.198   c-3.619-22.683-23.314-40.076-47.002-40.076c-23.687,0-43.381,17.393-47,40.076H23.556c-4.691,0-8.506-3.816-8.506-8.506v-80.643   h342.033l16.031,16.031h123.837v64.612c0,4.691-3.816,8.506-8.506,8.506h-41.167c-3.619-22.683-23.315-40.076-47.001-40.076   s-43.382,17.393-47.001,40.076H239.97v15.05h113.306c3.619,22.683,23.315,40.076,47.001,40.076s43.382-17.393,47.001-40.076h41.167   c12.988,0,23.556-10.567,23.556-23.556V128.246H341.577z M111.724,327.648c17.95,0,32.552,14.603,32.552,32.551   c0,17.949-14.604,32.551-32.552,32.551s-32.55-14.603-32.55-32.551C79.174,342.251,93.776,327.648,111.724,327.648z    M400.276,392.752c-17.95,0-32.551-14.603-32.551-32.551c0-17.949,14.603-32.551,32.551-32.551s32.551,14.603,32.551,32.551   C432.827,378.149,418.225,392.752,400.276,392.752z M191.387,143.296h73.118v88.659h15.05v-88.659h73.119v105.18H191.387V143.296z    M379.347,264.506l-11.623-11.623V143.296H496.95v121.211H379.347V264.506z" data-original="#231F20" class="" data-old_color="#030303"/>
	<rect x="103.705" y="352.673" style="fill:#020202" width="16.031" height="15.05" data-original="#231F20" class="" data-old_color="#030303"/>
	<rect x="392.264" y="352.673" style="fill:#020202" width="16.031" height="15.05" data-original="#231F20" class="" data-old_color="#030303"/>
</g><polygon style="fill:#FFFFFF" points="440.353,160.308 440.353,175.358 464.888,175.358 464.888,199.894 479.938,199.894   479.938,160.308 " data-original="#FFFFFF" class=""/><g>
	<rect x="464.885" y="215.929" style="fill:#020202" width="15.05" height="16.031" data-original="#231F20" class="" data-old_color="#030303"/>
	<rect x="143.788" y="160.304" style="fill:#020202" width="16.031" height="15.05" data-original="#231F20" class="" data-old_color="#030303"/>
</g><rect x="143.788" y="192.37" style="fill:#FFFFFF" width="16.031" height="15.05" data-original="#FFFFFF" class=""/><rect x="207.911" y="216.41" style="fill:#020202" width="16.031" height="15.05" data-original="#231F20" class="" data-old_color="#030303"/><rect x="207.911" y="184.354" style="fill:#FFFFFF" width="16.031" height="15.05" data-original="#FFFFFF" class=""/><rect x="320.124" y="160.304" style="fill:#020202" width="16.031" height="15.05" data-original="#231F20" class="" data-old_color="#030303"/><rect x="320.124" y="192.37" style="fill:#FFFFFF" width="16.031" height="15.05" data-original="#FFFFFF" class=""/><rect x="55.615" y="216.41" style="fill:#020202" width="16.031" height="15.05" data-original="#231F20" class="" data-old_color="#030303"/><g>
	<rect x="55.615" y="184.354" style="fill:#FFFFFF" width="16.031" height="15.05" data-original="#FFFFFF" class=""/>
	<rect x="39.587" y="280.534" style="fill:#FFFFFF" width="240.459" height="15.05" data-original="#FFFFFF" class=""/>
</g><rect x="296.074" y="280.534" style="fill:#020202" width="56.107" height="15.05" data-original="#231F20" class="" data-old_color="#030303"/><rect x="464.394" y="304.584" style="fill:#FFFFFF" width="16.031" height="15.05" data-original="#FFFFFF" class=""/></g> </svg>
