<?xml version="1.0"?>
<svg xmlns="http://www.w3.org/2000/svg" xmlns:xlink="http://www.w3.org/1999/xlink" version="1.1" id="Capa_1" x="0px" y="0px" viewBox="0 0 512 512" style="enable-background:new 0 0 512 512;" xml:space="preserve" width="512px" height="512px" class=""><g><rect x="139.95" y="279" style="fill:#3DD0F2" width="232.09" height="27.793" data-original="#FFA733" class="" data-old_color="#3dd0f2"/><rect x="139.95" y="279" style="fill:#3DD0F2" width="57.05" height="27.793" data-original="#FF6243" class="" data-old_color="#3dd0f2"/><rect x="240.04" y="306.79" style="fill:#3DD0F2" width="31.913" height="197.71" data-original="#ACABB1" class="" data-old_color="#3dd0f2"/><rect x="240.04" y="306.79" style="fill:#3DD0F2" width="15.956" height="197.71" data-original="#787680" class="active-path" data-old_color="#3dd0f2"/><polygon style="fill:#3DD0F2" points="112.487,334.151 112.487,236.592 60.109,236.592 43.694,253.008 43.475,379.946   126.274,379.946 126.274,445.703 167.089,445.703 167.089,334.151 " data-original="#FFA733" class="" data-old_color="#3dd0f2"/><g>
	<polygon style="fill:#3DD0F2" points="81.101,236.592 60.109,236.592 43.694,253.008 43.475,379.946 64.468,379.946    64.686,253.008  " data-original="#FF6243" class="" data-old_color="#3dd0f2"/>
	<rect x="126.27" y="379.95" style="fill:#3DD0F2" width="20.992" height="65.757" data-original="#FF6243" class="" data-old_color="#3dd0f2"/>
</g><g>
	<rect x="105.28" y="415.92" style="fill:#3DD0F2" width="20.992" height="88.58" data-original="#ACABB1" class="" data-old_color="#3dd0f2"/>
	<rect x="293.46" y="449.08" style="fill:#3DD0F2" width="21.522" height="55.42" data-original="#ACABB1" class="" data-old_color="#3dd0f2"/>
	<rect x="197" y="449.08" style="fill:#3DD0F2" width="21.522" height="55.42" data-original="#ACABB1" class="" data-old_color="#3dd0f2"/>
	<rect x="7.5" y="415.92" style="fill:#3DD0F2" width="20.992" height="88.58" data-original="#ACABB1" class="" data-old_color="#3dd0f2"/>
	<rect x="385.73" y="415.92" style="fill:#3DD0F2" width="20.992" height="88.58" data-original="#ACABB1" class="" data-old_color="#3dd0f2"/>
</g><polygon style="fill:#3DD0F2" points="399.513,334.151 399.513,236.592 451.891,236.592 468.306,253.008 468.525,379.946   385.726,379.946 385.726,445.703 344.911,445.703 344.911,334.151 " data-original="#FF6243" class="" data-old_color="#3dd0f2"/><g>
	<rect x="399.51" y="236.59" style="fill:#3DD0F2" width="23.657" height="97.56" data-original="#C70024" class="" data-old_color="#3dd0f2"/>
	<rect x="344.91" y="334.15" style="fill:#3DD0F2" width="23.657" height="111.55" data-original="#C70024" class="" data-old_color="#3dd0f2"/>
</g><path style="fill:#3DD0F2" d="M127.096,194.782c0,23.091-18.719,41.81-41.81,41.81s-41.81-18.719-41.81-41.81  s18.719-41.81,41.81-41.81S127.096,171.691,127.096,194.782z M384.904,194.782c0,23.091,18.719,41.81,41.81,41.81  s41.81-18.719,41.81-41.81s-18.719-41.81-41.81-41.81S384.904,171.691,384.904,194.782z M255.997,152.971  c-22.886,0-41.439,18.553-41.439,41.439s18.553,41.439,41.439,41.439s41.439-18.553,41.439-41.439S278.883,152.971,255.997,152.971z  " data-original="#FFC477" class="" data-old_color="#3dd0f2"/><g>
	<path style="fill:#3DD0F2" d="M74.122,194.782c0-17.68,10.979-32.786,26.487-38.9c-4.746-1.871-9.912-2.911-15.323-2.911   c-23.091,0-41.81,18.719-41.81,41.81s18.719,41.81,41.81,41.81c5.411,0,10.577-1.039,15.323-2.911   C85.101,227.567,74.122,212.462,74.122,194.782z" data-original="#FFA733" class="" data-old_color="#3dd0f2"/>
	<path style="fill:#3DD0F2" d="M245.204,194.41c0-17.471,10.818-32.406,26.116-38.501c-4.741-1.889-9.908-2.938-15.323-2.938   c-22.886,0-41.439,18.553-41.439,41.439s18.553,41.439,41.439,41.439c5.415,0,10.582-1.049,15.323-2.938   C256.022,226.817,245.204,211.882,245.204,194.41z" data-original="#FFA733" class="" data-old_color="#3dd0f2"/>
	<path style="fill:#3DD0F2" d="M415.55,194.782c0-17.68,10.979-32.786,26.487-38.9c-4.746-1.871-9.912-2.911-15.323-2.911   c-23.091,0-41.81,18.719-41.81,41.81s18.719,41.81,41.81,41.81c5.411,0,10.577-1.039,15.323-2.911   C426.53,227.567,415.55,212.462,415.55,194.782z" data-original="#FFA733" class="" data-old_color="#3dd0f2"/>
</g><g>
	<polygon style="fill:#3DD0F2" points="308.132,235.849 203.862,235.849 190.744,248.967 190.744,279 321.25,279 321.25,248.967     " data-original="#2488FF" class="" data-old_color="#3dd0f2"/>
	<rect x="190.74" y="306.79" style="fill:#3DD0F2" width="49.3" height="29.707" data-original="#2488FF" class="" data-old_color="#3dd0f2"/>
	<rect x="271.94" y="306.79" style="fill:#3DD0F2" width="49.3" height="29.707" data-original="#2488FF" class="" data-old_color="#3dd0f2"/>
</g><g>
	<polygon style="fill:#3DD0F2" points="209.41,248.967 222.528,235.849 203.862,235.849 190.744,248.967 190.744,279 209.41,279     " data-original="#005ECE" class="" data-old_color="#3dd0f2"/>
	<rect x="190.74" y="306.79" style="fill:#3DD0F2" width="18.667" height="29.707" data-original="#005ECE" class="" data-old_color="#3dd0f2"/>
	<rect x="271.94" y="306.79" style="fill:#3DD0F2" width="18.667" height="29.707" data-original="#005ECE" class="" data-old_color="#3dd0f2"/>
	<rect x="197" y="336.5" style="fill:#3DD0F2" width="43.04" height="112.58" data-original="#005ECE" class="" data-old_color="#3dd0f2"/>
	<rect x="271.94" y="336.5" style="fill:#3DD0F2" width="43.04" height="112.58" data-original="#005ECE" class="" data-old_color="#3dd0f2"/>
</g><polygon style="fill:#FFFFFF;" points="183.053,7.5 183.053,104.108 235.108,104.108 256,125 276.892,104.108 328.947,104.108   328.947,7.5 " data-original="#FFFFFF"/><g>
	<path style="fill:#3DD0F2" d="M240.25,75c0-18.64,15.11-33.75,33.75-33.75S307.75,56.36,307.75,75H240.25z" data-original="#ACABB1" class="" data-old_color="#3dd0f2"/>
	<polygon style="fill:#3DD0F2" points="256.304,104.108 235.108,104.108 256,125 266.598,114.402  " data-original="#ACABB1" class="" data-old_color="#3dd0f2"/>
	<rect x="183.05" y="7.5" style="fill:#3DD0F2" width="21.2" height="96.61" data-original="#ACABB1" class="" data-old_color="#3dd0f2"/>
	<path style="fill:#3DD0F2" d="M222.25,75c0-18.64,15.11-33.75,33.75-33.75S289.75,56.36,289.75,75H222.25z" data-original="#ACABB1" class="" data-old_color="#3dd0f2"/>
</g><path style="fill:#3DD0F2" d="M265,42.473c-2.866-0.791-5.882-1.223-9-1.223c-18.64,0-33.75,15.11-33.75,33.75h18  C240.25,59.478,250.731,46.413,265,42.473z" data-original="#787680" class="active-path" data-old_color="#3dd0f2"/><rect x="483.51" y="415.92" style="fill:#3DD0F2" width="20.992" height="88.58" data-original="#ACABB1" class="" data-old_color="#3dd0f2"/><polygon style="fill:#3DD0F2" points="43.475,379.946 43.475,303.842 22.842,283.208 7.5,283.208 7.5,415.922 126.274,415.922   126.274,379.946 " data-original="#2488FF" class="" data-old_color="#3dd0f2"/><polygon style="fill:#3DD0F2" points="22.842,283.208 7.5,283.208 7.5,415.922 25.985,415.922 25.985,286.351 " data-original="#005ECE" class="" data-old_color="#3dd0f2"/><polygon style="fill:#3DD0F2" points="468.525,379.946 468.525,303.842 489.158,283.208 504.5,283.208 504.5,415.922   385.726,415.922 385.726,379.946 " data-original="#2488FF" class="" data-old_color="#3dd0f2"/><g>
	<polygon style="fill:#3DD0F2" points="489.668,303.842 504.5,289.01 504.5,283.208 489.158,283.208 468.525,303.842    468.525,379.946 489.668,379.946  " data-original="#005ECE" class="" data-old_color="#3dd0f2"/>
	<rect x="385.73" y="379.95" style="fill:#3DD0F2" width="21.14" height="35.975" data-original="#005ECE" class="" data-old_color="#3dd0f2"/>
</g><g>
	<path style="fill:#1D1D1F" d="M119.986,229.777c9.016-8.94,14.61-21.326,14.61-34.996c0-27.19-22.121-49.311-49.311-49.311   s-49.311,22.121-49.311,49.311c0,15.126,6.852,28.677,17.608,37.729l-17.386,17.385l-0.062,36.001l-10.188-10.188H0V512h35.992   v-88.578h61.79V512h35.992v-58.797h40.814V326.651h-54.603L119.986,229.777L119.986,229.777z M85.286,160.471   c18.919,0,34.311,15.392,34.311,34.311s-15.392,34.311-34.311,34.311s-34.311-15.392-34.311-34.311S66.367,160.471,85.286,160.471z    M20.992,497H15v-73.578h5.992V497z M15,408.422V290.708h4.735l16.24,16.24v73.078l-0.013,7.42h82.812v20.976L15,408.422   L15,408.422z M118.774,497h-5.992v-73.578h5.992V497z M159.589,341.651v96.552h-25.814v-65.757H50.988l0.2-116.327l12.027-12.027   h41.771v97.559L159.589,341.651L159.589,341.651z" data-original="#1D1D1F" class=""/>
	<path style="fill:#1D1D1F" d="M307.481,497h-6.522v-27.917h-15V497h-6.503V314.293h100.091V271.5h-82.304v-14.075h-15V271.5   H229.75v-14.075h-15V271.5h-82.297v42.793h100.091V497h-6.522v-27.917h-15V497H204.5v-27.917h-15V512h132.981v-42.917h-15   L307.481,497L307.481,497z M147.453,299.293V286.5h217.094v12.793H147.453z M264.456,497h-16.912V314.293h16.912V497z" data-original="#1D1D1F" class=""/>
	<path style="fill:#1D1D1F" d="M486.052,275.708l-10.188,10.188l-0.062-36.001l-17.386-17.385   c10.756-9.053,17.608-22.603,17.608-37.729c0-27.19-22.121-49.311-49.311-49.311s-49.311,22.121-49.311,49.311   c0,13.67,5.595,26.055,14.61,34.996v96.874h-54.603v126.552h40.814V512h35.992v-88.578h61.79V512H512V275.708H486.052z    M426.714,160.471c18.919,0,34.311,15.392,34.311,34.311s-15.392,34.311-34.311,34.311s-34.311-15.392-34.311-34.311   S407.795,160.471,426.714,160.471z M352.411,438.203v-96.552h54.603v-97.559h41.771l12.027,12.027l0.2,116.327h-82.786v65.757   H352.411z M399.218,497h-5.992v-73.578h5.992V497z M497,497h-5.992v-73.578H497V497z M393.226,408.422v-20.976h82.812l-0.013-7.42   v-73.078l16.24-16.24H497v117.713H393.226V408.422z" data-original="#1D1D1F" class=""/>
	<path style="fill:#1D1D1F" d="M328.75,259v-13.14l-17.512-17.511h-20.033c8.491-8.806,13.73-20.769,13.73-33.939   c0-26.985-21.954-48.939-48.938-48.939c-26.985,0-48.939,21.954-48.939,48.939c0,13.17,5.239,25.133,13.731,33.939h-20.033   l-17.511,17.511V259h15v-6.926l8.724-8.724h98.058l8.725,8.725V259H328.75z M222.058,194.411c0-18.714,15.226-33.939,33.939-33.939   s33.938,15.225,33.938,33.939s-15.225,33.939-33.938,33.939S222.058,213.125,222.058,194.411z" data-original="#1D1D1F" class=""/>
</g><g>
	<rect x="74.12" y="278.25" style="fill:#FFFFFF;" width="15" height="15" data-original="#FFFFFF"/>
	<rect x="74.12" y="303.25" style="fill:#FFFFFF;" width="15" height="42.25" data-original="#FFFFFF"/>
	<rect x="74.12" y="253.25" style="fill:#FFFFFF;" width="15" height="15" data-original="#FFFFFF"/>
	<rect x="428.23" y="253.25" style="fill:#FFFFFF;" width="15" height="15" data-original="#FFFFFF"/>
	<rect x="428.23" y="303.25" style="fill:#FFFFFF;" width="15" height="42.25" data-original="#FFFFFF"/>
	<rect x="428.23" y="278.25" style="fill:#FFFFFF;" width="15" height="15" data-original="#FFFFFF"/>
</g><g>
	<polygon style="fill:#1D1D1F" points="183.244,326.793 183.244,344 189.5,344 189.5,456.583 220.044,456.583 220.044,441.583    204.5,441.583 204.5,344 220.044,344 220.044,329 198.244,329 198.244,326.793  " data-original="#1D1D1F" class=""/>
	<polygon style="fill:#1D1D1F" points="313.737,329 291.938,329 291.938,344 307.481,344 307.481,441.583 291.938,441.583    291.938,456.583 322.481,456.583 322.481,344 328.737,344 328.737,326.793 313.737,326.793  " data-original="#1D1D1F" class=""/>
</g><g>
	<rect x="285.96" y="352.46" style="fill:#FFFFFF;" width="15" height="15" data-original="#FFFFFF"/>
	<rect x="285.96" y="402.46" style="fill:#FFFFFF;" width="15" height="30" data-original="#FFFFFF"/>
	<rect x="285.96" y="377.46" style="fill:#FFFFFF;" width="15" height="15" data-original="#FFFFFF"/>
</g><g>
	<path style="fill:#1D1D1F" d="M256,135.606l23.999-23.999h56.447V0H175.554v111.608h56.447L256,135.606z M190.554,15h130.893   v81.608h-47.66L256,114.394l-17.786-17.786h-47.66V15z" data-original="#1D1D1F" class=""/>
	<path style="fill:#1D1D1F" d="M307.75,82.5v-15h-11.196c-3.089-16.741-16.313-29.965-33.054-33.054V28h-15v6.446   c-16.741,3.089-29.965,16.313-33.054,33.054H204.25v15H307.75z M230.842,67.5c3.234-10.831,13.289-18.75,25.158-18.75   c11.869,0,21.924,7.919,25.158,18.75H230.842z" data-original="#1D1D1F" class=""/>
</g></g> </svg>
