<?xml version="1.0"?>
<svg xmlns="http://www.w3.org/2000/svg" xmlns:xlink="http://www.w3.org/1999/xlink" version="1.1" id="Capa_1" x="0px" y="0px" viewBox="0 0 512 512" style="enable-background:new 0 0 512 512;" xml:space="preserve" width="512px" height="512px" class=""><g><path style="fill:#F7F2F2" d="M285.105,366.292v-36.193c0-3.38,2.74-6.121,6.12-6.121h18.048c26.381,0,50.613,14.546,63.017,37.829  l12.322,23.129L285.105,366.292z" data-original="#FF7B05" class="active-path" data-old_color="#030303"/><path style="fill:#3DD0F2" d="M372.291,361.808c-9.984-18.74-27.631-31.812-47.892-36.203c3.967,4.347,7.436,9.216,10.278,14.55  l0,0c4.966,9.321-3.055,20.248-13.436,18.303l-36.134-6.77v14.605l99.508,18.645L372.291,361.808z" data-original="#FF6500" class="" data-old_color="#3dd0f2"/><path style="fill:#F7F2F2" d="M96.724,474.103H30.416c-12.625,0-22.859-10.234-22.859-22.859v-3.65  c0-4.665,3.782-8.446,8.446-8.446h80.721V474.103z" data-original="#FF7B05" class="active-path" data-old_color="#030303"/><path style="fill:#3DD0F2" d="M26.868,439.147l-4.19-9.116c-3.009-6.546-0.846-14.308,5.114-18.356l43.803-29.746  c12.829-8.712,28.216-12.855,43.685-11.761l127.849,9.04c6.056,0.428,11.89-2.361,15.36-7.343l0,0  c4.556-6.542,12.559-9.758,20.375-8.186l117.348,23.592v86.834H174.053L80.775,439.15H26.868V439.147z" data-original="#2B96F5" class="" data-old_color="#3dd0f2"/><path style="fill:#F7F2F2" d="M434.444,421.766l-29.3-40.956c-8.154-11.398-12.538-25.061-12.538-39.075v-4.686  c0-4.715,3.822-8.537,8.537-8.537h96.026c4.018,0,7.275,3.257,7.275,7.275v71.116c0,10.125-8.208,18.333-18.333,18.333h-47.799  L434.444,421.766z" data-original="#FF7B05" class="active-path" data-old_color="#030303"/><path style="fill:#3DD0F2" d="M497.168,328.513h-17.602v53.514c0,10.125-8.208,18.333-18.333,18.333H419.13l15.314,21.406  l3.868,3.471h47.799c10.125,0,18.333-8.208,18.333-18.333v-71.116C504.444,331.77,501.186,328.513,497.168,328.513z" data-original="#FF6500" class="" data-old_color="#3dd0f2"/><circle style="fill:#3DD0F2" cx="261.68" cy="425.239" r="31.07" data-original="#FFE92F" class="" data-old_color="#3dd0f2"/><circle style="fill:#3DD0F2" cx="137.87" cy="436.989" r="57.09" data-original="#3E454C" class="" data-old_color="#3dd0f2"/><circle style="fill:#040405" cx="137.87" cy="436.989" r="18.302" data-original="#E4E9F4" class="" data-old_color="#E4E9F4"/><path style="fill:#3DD0F2" d="M348.424,436.99c0,13.485,3.534,26.139,9.704,37.113h38.084v-86.834l-24.513-4.928  C357.36,396.142,348.424,415.517,348.424,436.99z" data-original="#2676C6" class="" data-old_color="#3dd0f2"/><circle style="fill:#3DD0F2" cx="424.29" cy="436.989" r="57.09" data-original="#3E454C" class="" data-old_color="#3dd0f2"/><circle style="fill:#040405" cx="424.29" cy="436.989" r="18.302" data-original="#E4E9F4" class="" data-old_color="#E4E9F4"/><circle style="fill:#3DD0F2" cx="462.61" cy="122.879" r="15.281" data-original="#2B96F5" class="" data-old_color="#3dd0f2"/><path d="M497.168,320.956h-27.001V144.425c8.889-3.127,15.281-11.602,15.281-21.546c0-12.594-10.245-22.838-22.838-22.838  s-22.837,10.245-22.837,22.838c0,9.944,6.392,18.42,15.281,21.546v176.531h-53.911c-8.874,0-16.093,7.219-16.093,16.093v4.685  c0,6.195,0.773,12.381,2.297,18.386c1.028,4.045,5.138,6.491,9.184,5.465c4.045-1.027,6.492-5.139,5.465-9.184  c-1.216-4.79-1.833-9.725-1.833-14.667v-4.685c0-0.54,0.44-0.98,0.98-0.98h95.744v70.835c0,5.942-4.834,10.776-10.776,10.776  c-0.041,0-0.08,0.005-0.121,0.006c-8.229-26.248-32.777-45.346-61.704-45.346c-10.502,0-20.418,2.533-29.194,6.996l-5.489-1.103  l-10.644-19.978c-13.747-25.803-40.449-41.833-69.686-41.833h-18.048c-7.542,0-13.677,6.136-13.677,13.677v25.772  c-9.84-0.948-19.528,3.441-25.261,11.675c-1.938,2.781-5.244,4.363-8.626,4.123l-25.024-1.769v-9.145  c0-4.174-3.383-7.557-7.557-7.557s-7.557,3.383-7.557,7.557v8.077l-87.711-6.201c-17.091-1.21-34.296,3.425-48.464,13.048  c-3.452,2.345-4.35,7.044-2.006,10.497c2.345,3.454,7.044,4.352,10.497,2.005c10.719-7.279,23.612-10.999,36.537-10.591  c-21.433,9.233-36.898,29.735-38.916,54.002H31.71l-2.168-4.715c-1.472-3.205-0.424-6.968,2.493-8.95l12.409-8.928  c3.453-2.345,4.351-7.044,2.006-10.497c-2.345-3.452-7.044-4.352-10.497-2.005l-12.407,8.926  c-8.584,5.829-11.94,16.629-8.367,26.208C6.739,432.064,0,439.047,0,447.594v3.649c0,16.772,13.645,30.416,30.416,30.416H91.2  c11.776,12.298,28.337,19.98,46.668,19.98c35.648,0,64.649-29.001,64.649-64.649c0-23.398-12.495-43.933-31.162-55.282l32.169,2.275  v14.051c0,4.174,3.383,7.557,7.557,7.557s7.557-3.383,7.557-7.557v-12.982l23.958,1.694c8.66,0.607,17.132-3.435,22.094-10.563  c2.838-4.074,7.816-6.073,12.685-5.097l6.227,1.252c0.005,0.001,0.01,0.003,0.015,0.004l82.624,16.61l12.245,2.462  c-11.64,11.698-18.847,27.811-18.847,45.578c0,10.646,2.603,20.691,7.181,29.556H218.637c-4.173,0-7.557,3.383-7.557,7.557  s3.383,7.556,7.557,7.556h158.981c11.776,12.298,28.337,19.98,46.668,19.98c35.648,0,64.649-29.001,64.649-64.649  c0-1.458-0.066-2.899-0.161-4.333C501.803,431.32,512,420.28,512,406.904v-71.116C512,327.609,505.347,320.956,497.168,320.956z   M462.61,130.602c-4.259,0-7.724-3.465-7.724-7.724c0-4.26,3.465-7.725,7.724-7.725s7.724,3.466,7.724,7.725  C470.335,127.137,466.87,130.602,462.61,130.602z M30.416,466.546c-8.438,0-15.303-6.865-15.303-15.303v-3.649  c0-0.491,0.399-0.891,0.89-0.891h10.865H73.95c1.067,7.053,3.291,13.727,6.45,19.843H30.416z M187.403,436.99  c0,27.314-22.222,49.536-49.536,49.536s-49.536-22.222-49.536-49.536s22.222-49.536,49.536-49.536  C165.182,387.454,187.403,409.676,187.403,436.99z M292.661,358.744v-27.209h16.612c23.641,0,45.232,12.961,56.348,33.826  l4.804,9.016L292.661,358.744z M424.286,486.526c-27.314,0-49.536-22.222-49.536-49.536s22.222-49.536,49.536-49.536  s49.536,22.222,49.536,49.536C473.822,464.304,451.601,486.526,424.286,486.526z" data-original="#000000" class="" style="fill:#030303" data-old_color="#FDFDFD"/><path d="M300.304,425.237c0-21.296-17.326-38.622-38.623-38.622c-21.297,0-38.623,17.326-38.623,38.622s17.326,38.622,38.623,38.622  C282.978,463.859,300.304,446.533,300.304,425.237z M238.172,425.237c0-12.963,10.546-23.509,23.51-23.509  c12.964,0,23.51,10.546,23.51,23.509s-10.546,23.509-23.51,23.509S238.172,438.2,238.172,425.237z" data-original="#000000" class="" style="fill:#030303" data-old_color="#FDFDFD"/><path d="M319.055,408.277h21.83c4.173,0,7.557-3.383,7.557-7.557s-3.383-7.557-7.557-7.557h-21.83c-4.173,0-7.557,3.383-7.557,7.557  S314.882,408.277,319.055,408.277z" data-original="#000000" class="" style="fill:#030303" data-old_color="#FDFDFD"/><path d="M319.055,432.793h13.602c4.173,0,7.557-3.383,7.557-7.557s-3.383-7.557-7.557-7.557h-13.602  c-4.173,0-7.557,3.383-7.557,7.557S314.882,432.793,319.055,432.793z" data-original="#000000" class="" style="fill:#030303" data-old_color="#FDFDFD"/><path d="M319.055,457.31h4.198c4.173,0,7.557-3.383,7.557-7.557s-3.383-7.557-7.557-7.557h-4.198c-4.173,0-7.557,3.383-7.557,7.557  S314.882,457.31,319.055,457.31z" data-original="#000000" class="" style="fill:#030303" data-old_color="#FDFDFD"/><path d="M459.151,46.72c-0.245-4.167-3.81-7.334-7.987-7.1c-34.744,2.045-63.06,28.599-67.33,63.14  c-0.512,4.142,2.43,7.915,6.572,8.427c0.315,0.039,0.627,0.058,0.937,0.058c3.76,0,7.017-2.803,7.49-6.631  c3.375-27.301,25.757-48.29,53.218-49.906C456.218,54.463,459.397,50.886,459.151,46.72z" data-original="#000000" class="" style="fill:#030303" data-old_color="#FDFDFD"/><path d="M361.041,110.383c0.243,0.024,0.485,0.035,0.725,0.035c3.85,0,7.141-2.93,7.514-6.841  c4.114-43.195,39.922-76.774,83.292-78.108c4.171-0.128,7.449-3.614,7.321-7.785s-3.622-7.471-7.785-7.321  c-50.962,1.567-93.038,41.025-97.872,91.781C353.839,106.299,356.886,109.988,361.041,110.383z" data-original="#000000" class="" style="fill:#030303" data-old_color="#FDFDFD"/><path d="M449.467,69.367c-18.007,2.457-32.529,16.076-36.137,33.889c-0.828,4.09,1.816,8.077,5.906,8.906  c0.506,0.102,1.01,0.152,1.508,0.152c3.521,0,6.673-2.474,7.398-6.057c2.333-11.519,11.724-20.325,23.367-21.913  c4.135-0.565,7.03-4.375,6.466-8.509C457.411,71.698,453.603,68.805,449.467,69.367z" data-original="#000000" class="" style="fill:#030303" data-old_color="#FDFDFD"/></g> </svg>
