<?xml version="1.0"?>
<svg xmlns="http://www.w3.org/2000/svg" xmlns:xlink="http://www.w3.org/1999/xlink" version="1.1" id="Capa_1" x="0px" y="0px" viewBox="0 0 480 480" style="enable-background:new 0 0 480 480;" xml:space="preserve" width="512px" height="512px" class=""><g><path style="fill:#3DD0F2" d="M104,8C86.327,8,72,22.327,72,40v432h304c17.673,0,32-14.327,32-32V40c0-17.673,14.327-32,32-32H104z  " data-original="#87CED9" class="" data-old_color="#3dd0f2"/><path style="fill:#3DD0F2" d="M72,397.016V424h272v16c0,17.673,14.327,32,32,32s32-14.327,32-32V40  c0.054-1.225,0.177-2.445,0.368-3.656C354.139,199.827,231.309,331.532,72,397.016z" data-original="#71C4D1" class="" data-old_color="#3dd0f2"/><g>
	<path style="fill:#3DD0F2" d="M344,440v-16H8v16c0,17.673,14.327,32,32,32h336C358.327,472,344,457.673,344,440z" data-original="#4398D1" class="" data-old_color="#3dd0f2"/>
	<path style="fill:#3DD0F2" d="M472,56h-64l0,0V40c0-17.673,14.327-32,32-32s32,14.327,32,32V56L472,56z" data-original="#4398D1" class="" data-old_color="#3dd0f2"/>
</g><g>
	<g>
		<path id="SVGCleanerId_0" style="fill:#59B3C2;" d="M152,48h176v16H152V48z" data-original="#59B3C2"/>
	</g>
	<path style="fill:#59B3C2;" d="M160,152h-40c-4.418,0-8-3.582-8-8v-40c0-4.418,3.582-8,8-8h40c4.418,0,8,3.582,8,8v40   C168,148.418,164.418,152,160,152z M128,136h24v-24h-24V136z" data-original="#59B3C2"/>
	<g>
		<path id="SVGCleanerId_1" style="fill:#59B3C2;" d="M200,96h168v16H200V96z" data-original="#59B3C2"/>
	</g>
	<g>
		<path id="SVGCleanerId_2" style="fill:#59B3C2;" d="M200,128h136v16H200V128z" data-original="#59B3C2"/>
	</g>
	<path style="fill:#59B3C2;" d="M160,232h-40c-4.418,0-8-3.582-8-8v-40c0-4.418,3.582-8,8-8h40c4.418,0,8,3.582,8,8v40   C168,228.418,164.418,232,160,232z M128,216h24v-24h-24V216z" data-original="#59B3C2"/>
	<g>
		<path id="SVGCleanerId_3" style="fill:#59B3C2;" d="M200,176h168v16H200V176z" data-original="#59B3C2"/>
	</g>
	<g>
		<path id="SVGCleanerId_4" style="fill:#59B3C2;" d="M200,208h136v16H200V208z" data-original="#59B3C2"/>
	</g>
	<path style="fill:#59B3C2;" d="M160,312h-40c-4.418,0-8-3.582-8-8v-40c0-4.418,3.582-8,8-8h40c4.418,0,8,3.582,8,8v40   C168,308.418,164.418,312,160,312z M128,296h24v-24h-24V296z" data-original="#59B3C2"/>
	<g>
		<path id="SVGCleanerId_5" style="fill:#59B3C2;" d="M200,256h104v16H200V256z" data-original="#59B3C2"/>
	</g>
	<g>
		<path id="SVGCleanerId_6" style="fill:#59B3C2;" d="M200,288h72v16h-72V288z" data-original="#59B3C2"/>
	</g>
	<path style="fill:#59B3C2;" d="M160,392h-40c-4.418,0-8-3.582-8-8v-40c0-4.418,3.582-8,8-8h40c4.418,0,8,3.582,8,8v40   C168,388.418,164.418,392,160,392z M128,376h24v-24h-24V376z" data-original="#59B3C2"/>
</g><g>
	<path style="fill:#2A7DB8;" d="M138.342,122.348l40-40l11.314,11.314l-40,40L138.342,122.348z" data-original="#2A7DB8"/>
	<path style="fill:#2A7DB8;" d="M138.343,202.348l40-40l11.314,11.314l-40,40L138.343,202.348z" data-original="#2A7DB8"/>
	<path style="fill:#2A7DB8;" d="M138.343,282.349l40-40l11.314,11.314l-40,40L138.343,282.349z" data-original="#2A7DB8"/>
	<path style="fill:#2A7DB8;" d="M138.344,362.374l40-40l11.314,11.314l-40,40L138.344,362.374z" data-original="#2A7DB8"/>
</g><g>
	<path style="fill:#59B3C2;" d="M200,336h72v16h-72V336z" data-original="#59B3C2"/>
	<path style="fill:#59B3C2;" d="M200,368h136v16H200V368z" data-original="#59B3C2"/>
</g><path style="fill:#3DD0F2" d="M460,172c-6.629-6.624-17.371-6.624-24,0l-28,28L304,304l-8,32l32-8l80-80l52-52  C466.624,189.371,466.624,178.629,460,172z" data-original="#4398D1" class="" data-old_color="#3dd0f2"/><path style="fill:#2A7DB8;" d="M418.346,189.656l11.314-11.314l24.002,24.002l-11.314,11.314L418.346,189.656z" data-original="#2A7DB8"/><path d="M440,0H104C81.92,0.026,64.026,17.92,64,40v376H8c-4.418,0-8,3.582-8,8v16c0.026,22.08,17.92,39.974,40,40h336  c22.08-0.026,39.974-17.92,40-40V251.312l49.656-49.656c9.751-9.751,9.751-25.561,0-35.312c-9.751-9.751-25.561-9.751-35.312,0  L416,180.688V64h56c4.418,0,8-3.582,8-8V40C479.974,17.92,462.08,0.026,440,0z M40,464c-13.255,0-24-10.745-24-24v-8h320v8  c0.018,2.493,0.27,4.978,0.752,7.424c0.144,0.8,0.376,1.48,0.56,2.224c0.397,1.629,0.894,3.232,1.488,4.8  c0.312,0.8,0.648,1.552,1.008,2.32c0.682,1.458,1.452,2.874,2.304,4.24c0.416,0.672,0.8,1.352,1.272,1.992  c0.224,0.328,0.392,0.688,0.632,1H40z M400,440c0,13.255-10.745,24-24,24s-24-10.745-24-24v-16c0-4.418-3.582-8-8-8H80V40  c0-13.255,10.745-24,24-24h304c-0.24,0.312-0.408,0.672-0.632,1c-0.456,0.64-0.856,1.32-1.272,1.992  c-0.852,1.366-1.622,2.782-2.304,4.24c-0.36,0.8-0.696,1.536-1.008,2.32c-0.594,1.568-1.091,3.171-1.488,4.8  c-0.184,0.744-0.416,1.464-0.56,2.224c-0.477,2.446-0.723,4.932-0.736,7.424v156.688L298.344,298.344  c-1.026,1.026-1.753,2.312-2.104,3.72l-8,32c-0.68,2.725,0.119,5.606,2.104,7.592c0.675,0.649,1.461,1.172,2.32,1.544  c0.208,0.096,0.4,0.184,0.616,0.264c0.854,0.326,1.758,0.505,2.672,0.528H296c0.653-0.001,1.303-0.081,1.936-0.24l32-8  c1.408-0.351,2.694-1.078,3.72-2.104L400,267.312L400,440z M441.656,177.656c3.55-3.391,9.138-3.391,12.688,0  c3.497,3.506,3.497,9.182,0,12.688L448,196.688L435.312,184L441.656,177.656z M424,195.312L436.688,208l-112.8,112.8l-16.912,4.232  l4.232-16.912L424,195.312z M464,48h-48v-8c0-13.255,10.745-24,24-24s24,10.745,24,24V48z" data-original="#000000" class="active-path" style="fill:#F7F5F5" data-old_color="#EFEBEB"/><path id="SVGCleanerId_0_1_" d="M152,48h176v16H152V48z" data-original="#000000" class="active-path" style="fill:#F7F5F5" data-old_color="#EFEBEB"/><path d="M163.68,97.008c-1.124-0.637-2.389-0.983-3.68-1.008h-40c-4.418,0-8,3.582-8,8v40c0,4.418,3.582,8,8,8h40  c4.418,0,8-3.582,8-8v-28.688l21.656-21.656l-11.312-11.312L163.68,97.008z M152,136h-24v-24h20.688l-10.344,10.344l11.312,11.312  l2.344-2.344V136z" data-original="#000000" class="active-path" style="fill:#F7F5F5" data-old_color="#EFEBEB"/><path id="SVGCleanerId_1_1_" d="M200,96h168v16H200V96z" data-original="#000000" class="active-path" style="fill:#F7F5F5" data-old_color="#EFEBEB"/><path id="SVGCleanerId_2_1_" d="M200,128h136v16H200V128z" data-original="#000000" class="active-path" style="fill:#F7F5F5" data-old_color="#EFEBEB"/><path d="M163.68,177.008c-1.124-0.637-2.389-0.983-3.68-1.008h-40c-4.418,0-8,3.582-8,8v40c0,4.418,3.582,8,8,8h40  c4.418,0,8-3.582,8-8v-28.688l21.656-21.656l-11.312-11.312L163.68,177.008z M152,216h-24v-24h20.688l-10.344,10.344l11.312,11.312  l2.344-2.344V216z" data-original="#000000" class="active-path" style="fill:#F7F5F5" data-old_color="#EFEBEB"/><path id="SVGCleanerId_3_1_" d="M200,176h168v16H200V176z" data-original="#000000" class="active-path" style="fill:#F7F5F5" data-old_color="#EFEBEB"/><path id="SVGCleanerId_4_1_" d="M200,208h136v16H200V208z" data-original="#000000" class="active-path" style="fill:#F7F5F5" data-old_color="#EFEBEB"/><path d="M163.68,257.008c-1.124-0.637-2.389-0.983-3.68-1.008h-40c-4.418,0-8,3.582-8,8v40c0,4.418,3.582,8,8,8h40  c4.418,0,8-3.582,8-8v-28.688l21.656-21.656l-11.312-11.312L163.68,257.008z M152,296h-24v-24h20.688l-10.344,10.344l11.312,11.312  l2.344-2.344V296z" data-original="#000000" class="active-path" style="fill:#F7F5F5" data-old_color="#EFEBEB"/><path id="SVGCleanerId_5_1_" d="M200,256h104v16H200V256z" data-original="#000000" class="active-path" style="fill:#F7F5F5" data-old_color="#EFEBEB"/><path id="SVGCleanerId_6_1_" d="M200,288h72v16h-72V288z" data-original="#000000" class="active-path" style="fill:#F7F5F5" data-old_color="#EFEBEB"/><path d="M163.68,337.008c-1.124-0.637-2.389-0.983-3.68-1.008h-40c-4.418,0-8,3.582-8,8v40c0,4.418,3.582,8,8,8h40  c4.418,0,8-3.582,8-8v-28.688l21.656-21.656l-11.312-11.312L163.68,337.008z M152,376h-24v-24h20.688l-10.344,10.344l11.312,11.312  l2.344-2.344V376z" data-original="#000000" class="active-path" style="fill:#F7F5F5" data-old_color="#EFEBEB"/><path d="M200,336h72v16h-72V336z" data-original="#000000" class="active-path" style="fill:#F7F5F5" data-old_color="#EFEBEB"/><path d="M200,368h136v16H200V368z" data-original="#000000" class="active-path" style="fill:#F7F5F5" data-old_color="#EFEBEB"/></g> </svg>
