<?xml version="1.0"?>
<svg xmlns="http://www.w3.org/2000/svg" height="512px" viewBox="-67 0 512 512.00104" width="512px" class=""><g><path d="m338.824219 0h-299.933594c-21.480469 0-38.890625 17.410156-38.890625 38.890625v434.222656c0 21.476563 17.410156 38.886719 38.890625 38.886719h299.933594c21.476562 0 38.890625-17.410156 38.890625-38.886719v-434.222656c-.003906-21.480469-17.414063-38.890625-38.890625-38.890625zm0 0" fill="#4c5275" data-original="#4C5275" class="" style="fill:#FCFCFF" data-old_color="#4C5275"/><g fill="#e6e6e6"><path d="m41.800781 41.792969h294.117188v391.566406h-294.117188zm0 0" data-original="#000000" class="active-path" style="fill:#000001" data-old_color="#FBF5F5"/><path d="m131.652344 482.242188h-40.75c-4.328125 0-7.835938-3.507813-7.835938-7.835938s3.507813-7.835938 7.835938-7.835938h40.75c4.328125 0 7.835937 3.507813 7.835937 7.835938s-3.507812 7.835938-7.835937 7.835938zm0 0" data-original="#000000" class="active-path" style="fill:#000001" data-old_color="#FBF5F5"/><path d="m286.808594 482.242188h-40.746094c-4.328125 0-7.835938-3.507813-7.835938-7.835938s3.507813-7.835938 7.835938-7.835938h40.746094c4.332031 0 7.839844 3.507813 7.839844 7.835938s-3.507813 7.835938-7.839844 7.835938zm0 0" data-original="#000000" class="active-path" style="fill:#000001" data-old_color="#FBF5F5"/><path d="m209.230469 482.242188h-40.75c-4.328125 0-7.835938-3.507813-7.835938-7.835938s3.507813-7.835938 7.835938-7.835938h40.75c4.328125 0 7.835937 3.507813 7.835937 7.835938s-3.507812 7.835938-7.835937 7.835938zm0 0" data-original="#000000" class="active-path" style="fill:#000001" data-old_color="#FBF5F5"/></g><path d="m243.496094 115.417969v108.148437h-108.136719v-108.148437l54.074219-45.453125zm0 0" fill="#45c1ed" data-original="#45C1ED" class="" style="fill:#3DD0F2" data-old_color="#3dd0f2"/><path d="m189.433594 69.964844-54.074219 45.453125v25.078125l54.074219-45.453125 54.0625 45.453125v-25.078125zm0 0" fill="#23a2c4" data-original="#23A2C4"/><path d="m269.605469 145.195312c-1.78125 0-3.570313-.601562-5.039063-1.835937l-75.132812-63.152344-75.128906 63.152344c-3.3125 2.785156-8.257813 2.359375-11.042969-.957031-2.785157-3.3125-2.355469-8.253906.957031-11.039063l80.171875-67.394531c2.914063-2.449219 7.171875-2.449219 10.085937 0l80.175782 67.394531c3.3125 2.785157 3.742187 7.726563.957031 11.039063-1.550781 1.84375-3.769531 2.792968-6.003906 2.792968zm0 0" fill="#4c5275" data-original="#4C5275" class="" style="fill:#FCFCFF" data-old_color="#4C5275"/><path d="m169.058594 142.0625h40.75v50.152344h-40.75zm0 0" fill="#c5f3ff" data-original="#C5F3FF" class=""/><path d="m114.414062 287.820312h-21.941406c-4.328125 0-7.835937-3.511718-7.835937-7.835937 0-4.328125 3.507812-7.839844 7.835937-7.839844h21.941406c4.328126 0 7.835938 3.511719 7.835938 7.839844 0 4.324219-3.507812 7.835937-7.835938 7.835937zm0 0" fill="#45c1ed" data-original="#45C1ED" class="" style="fill:#3DD0F2" data-old_color="#3dd0f2"/><path d="m259.179688 287.820312h-114.472657c-4.328125 0-7.835937-3.511718-7.835937-7.835937 0-4.328125 3.507812-7.839844 7.835937-7.839844h114.472657c4.328124 0 7.835937 3.511719 7.835937 7.839844 0 4.324219-3.507813 7.835937-7.835937 7.835937zm0 0" fill="#4c5275" data-original="#4C5275" class="" style="fill:#FCFCFF" data-old_color="#4C5275"/><path d="m114.414062 322.253906h-21.941406c-4.328125 0-7.835937-3.507812-7.835937-7.835937s3.507812-7.835938 7.835937-7.835938h21.941406c4.328126 0 7.835938 3.507813 7.835938 7.835938s-3.507812 7.835937-7.835938 7.835937zm0 0" fill="#ff5543" data-original="#FF5543" class="" style="fill:#3DD0F2" data-old_color="#3dd0f2"/><path d="m285.246094 322.253906h-140.539063c-4.328125 0-7.835937-3.507812-7.835937-7.835937s3.507812-7.835938 7.835937-7.835938h140.539063c4.328125 0 7.835937 3.507813 7.835937 7.835938s-3.507812 7.835937-7.835937 7.835937zm0 0" fill="#4c5275" data-original="#4C5275" class="" style="fill:#FCFCFF" data-old_color="#4C5275"/><path d="m114.414062 356.824219h-21.941406c-4.328125 0-7.835937-3.507813-7.835937-7.835938s3.507812-7.839843 7.835937-7.839843h21.941406c4.328126 0 7.835938 3.511718 7.835938 7.839843s-3.507812 7.835938-7.835938 7.835938zm0 0" fill="#ffdb45" data-original="#FFDB45" class="" style="fill:#3DD0F2" data-old_color="#3dd0f2"/><path d="m230.96875 356.824219h-86.261719c-4.328125 0-7.835937-3.507813-7.835937-7.835938s3.507812-7.839843 7.835937-7.839843h86.261719c4.328125 0 7.835938 3.511718 7.835938 7.839843s-3.507813 7.835938-7.835938 7.835938zm0 0" fill="#4c5275" data-original="#4C5275" class="" style="fill:#FCFCFF" data-old_color="#4C5275"/><path d="m114.414062 391.390625h-21.941406c-4.328125 0-7.835937-3.507813-7.835937-7.835937 0-4.328126 3.507812-7.835938 7.835937-7.835938h21.941406c4.328126 0 7.835938 3.507812 7.835938 7.835938 0 4.328124-3.507812 7.835937-7.835938 7.835937zm0 0" fill="#5bce5b" data-original="#5BCE5B" class="" style="fill:#3DD0F2" data-old_color="#3dd0f2"/><path d="m285.246094 391.390625h-140.539063c-4.328125 0-7.835937-3.507813-7.835937-7.835937 0-4.328126 3.507812-7.835938 7.835937-7.835938h140.539063c4.328125 0 7.835937 3.507812 7.835937 7.835938 0 4.328124-3.507812 7.835937-7.835937 7.835937zm0 0" fill="#4c5275" data-original="#4C5275" class="" style="fill:#FCFCFF" data-old_color="#4C5275"/></g> </svg>
