<?xml version="1.0"?>
<svg xmlns="http://www.w3.org/2000/svg" height="512px" viewBox="-128 0 511 512" width="512px" class=""><g><path d="m248.191406 306.929688c0 66.921874-54.738281 121.058593-121.890625 120.082031-64.824219-.949219-117.601562-53.949219-118.292969-118.773438-.292968-27.75 8.816407-53.351562 24.351563-73.820312 21.910156-28.890625 35.40625-63.15625 38.1875-99.070313.363281-4.585937.539063-9.207031.539063-13.84375v-28.40625h114.027343v26.738282c0 5.183593.203125 10.359374.625 15.511718 2.859375 35.582032 15.5625 69.875 37.476563 98.261719 15.660156 20.277344 24.976562 45.714844 24.976562 73.320313zm0 0" fill="#ffc843" data-original="#FFC843" class="" style="fill:#3DD0F2" data-old_color="#3dd0f2"/><path d="m185.738281 135.347656h-115.191406c.363281-4.585937.539063-9.207031.539063-13.84375v-28.40625h114.027343v26.738282c0 5.183593.203125 10.359374.625 15.511718zm0 0" fill="#ffb400" data-original="#FFB400" class="" style="fill:#3DD0F2" data-old_color="#3dd0f2"/><path d="m248.191406 306.929688c0 51.066406-31.871094 94.683593-76.816406 112.054687 37.066406-20.4375 62.167969-59.894531 62.167969-105.222656 0-27.601563-9.3125-53.039063-24.976563-73.320313-25.082031-32.496094-38.101562-72.714844-38.101562-113.773437v-33.570313h14.648437v26.734375c0 41.058594 13.015625 81.28125 38.101563 113.773438 15.660156 20.28125 24.976562 45.71875 24.976562 73.324219zm0 0" fill="#ffb400" data-original="#FFB400" class="" style="fill:#3DD0F2" data-old_color="#3dd0f2"/><path d="m187.875 120.703125h-119.925781c-5.730469 0-9.917969-5.410156-8.484375-10.957031l2.976562-11.5 17.675782-68.292969 4.109374-15.886719c.996094-3.867187 4.484376-6.570312 8.476563-6.570312h70.410156c3.992188 0 7.480469 2.703125 8.484375 6.570312l4.113282 15.886719 17.660156 68.292969 2.980468 11.5c1.433594 5.546875-2.753906 10.957031-8.476562 10.957031zm0 0" fill="#76ffd9" data-original="#76FFD9" class="" style="fill:#3DD0F2" data-old_color="#3dd0f2"/><path d="m193.375 98.246094h-130.933594l17.675782-68.292969h95.59375zm0 0" fill="#5de0bf" data-original="#5DE0BF" class="" style="fill:#3DD0F2" data-old_color="#3dd0f2"/><path d="m194.445312 83.597656h-133.070312c-5.269531 0-9.542969-4.273437-9.542969-9.542968v-19.910157c0-5.273437 4.273438-9.546875 9.542969-9.546875h133.066406c5.273438 0 9.546875 4.273438 9.546875 9.546875v19.910157c0 5.269531-4.273437 9.542968-9.542969 9.542968zm0 0" fill="#fff" data-original="#FFF" class="active-path" style="fill:#EDF1F2" data-old_color="#3DD0F2"/><path d="m11.960938 275.34375c.800781.269531 1.613281.402344 2.414062.402344 3.125 0 6.039062-1.96875 7.101562-5.089844 3.878907-11.414062 9.550782-22.082031 16.851563-31.710938 24.941406-32.867187 38.738281-71.023437 40.132813-110.746093h14.121093v106.75c0 4.140625 3.359375 7.5 7.5 7.5 4.144531 0 7.5-3.359375 7.5-7.5v-23.480469c3.988281-1.796875 10.667969-3.699219 15.210938.847656 2.648437 2.648438 6.882812 2.90625 9.867187.648438.964844-.730469 8.851563-6.394532 15.578125-2.371094v24.351562c0 4.144532 3.355469 7.5 7.5 7.5 4.140625 0 7.5-3.355468 7.5-7.5v-27.929687s0-.003906 0-.007813v-78.808593h14.554688c1.6875 40.203125 15.566406 79.007812 39.488281 109.996093 15.3125 19.832032 23.40625 43.597657 23.40625 68.726563 0 10.800781-1.527344 21.476563-4.535156 31.738281-1.167969 3.976563 1.109375 8.144532 5.082031 9.3125.707031.203125 1.417969.304688 2.117187.304688 3.242188 0 6.234376-2.121094 7.191407-5.390625 3.414062-11.636719 5.144531-23.734375 5.144531-35.964844 0-28.476563-9.175781-55.414063-26.535156-77.894531-22.058594-28.578125-34.851563-64.425782-36.378906-101.597656 3.113281-.976563 5.886718-2.863282 7.953124-5.527344 3.101563-4.007813 4.160157-9.121094 2.890626-14.039063l-4.507813-17.429687c7.132813-2.035156 12.378906-8.601563 12.378906-16.382813v-19.910156c0-9.394531-7.644531-17.039063-17.042969-17.039063h-9.140624l-6.445313-24.921874c-1.859375-7.171876-8.332031-12.179688-15.742187-12.179688h-70.410157c-7.410156 0-13.886719 5.007812-15.742187 12.183594l-6.445313 24.917968h-9.144531c-9.394531 0-17.039062 7.644532-17.039062 17.039063v19.910156c0 7.78125 5.242187 14.347657 12.375 16.382813l-4.507813 17.4375c-1.265625 4.910156-.210937 10.023437 2.894531 14.03125 2.160156 2.785156 5.089844 4.71875 8.375 5.652344-1.265625 36.65625-14.019531 71.914062-37.09375 102.324218-8.277344 10.914063-14.703125 23.011719-19.105468 35.949219-1.332032 3.921875.765624 8.179687 4.6875 9.515625zm55.984374-162.144531c-.40625 0-.742187-.160157-.992187-.484375-.175781-.226563-.355469-.601563-.226563-1.097656l5.304688-20.515626h20.828125c-.175781.636719-.277344 1.304688-.277344 1.996094v20.101563zm80.289063 0h-40.652344v-20.101563c0-.691406-.101562-1.359375-.277343-1.996094h41.210937c-.175781.636719-.277344 1.304688-.277344 1.996094v20.101563zm0 81.433593c-7.246094-1.46875-14.402344.566407-19.6875 3.277344-6.796875-4.042968-14.445313-3.929687-20.964844-2.257812v-67.453125h40.652344zm14.726563-103.53125h20.828124l5.304688 20.511719c.128906.503907-.050781.878907-.226562 1.101563-.25.324218-.582032.488281-.992188.488281h-2.757812c-.011719 0-.023438 0-.03125 0h-21.847657v-20.105469c0-.691406-.101562-1.359375-.277343-1.996094zm-103.625-36.960937c0-1.125.914062-2.039063 2.039062-2.039063h14.925781.03125.019531 54.242188c4.144531 0 7.5-3.359374 7.5-7.5 0-4.144531-3.355469-7.5-7.5-7.5h-44.582031l5.472656-21.160156c.144531-.554687.644531-.941406 1.222656-.941406h70.410157c.574218 0 1.074218.386719 1.21875.9375l5.472656 21.164062h-10.214844c-4.140625 0-7.5 3.355469-7.5 7.5 0 4.144532 3.359375 7.5 7.5 7.5h34.851562c1.125 0 2.039063.914063 2.039063 2.039063v19.910156c0 1.132813-.914063 2.050781-2.039063 2.050781h-133.070312c-1.125 0-2.039062-.917968-2.039062-2.050781zm0 0" fill="#434c54" data-original="#434C54" class="" style="fill:#030303" data-old_color="#434C54"/><path d="m126.195312 434.511719c.621094.007812 1.230469.011719 1.851563.011719 45.105469-.003907 87.160156-24.007813 110.089844-62.980469 2.101562-3.570313.910156-8.167969-2.660157-10.269531-3.570312-2.101563-8.167968-.910157-10.265624 2.660156-20.242188 34.402344-57.355469 55.589844-97.160157 55.589844-.546875 0-1.09375-.003907-1.636719-.011719-60.511718-.882813-110.261718-50.835938-110.90625-111.355469-.039062-3.464844.101563-7.089844.410157-10.773438.347656-4.128906-2.71875-7.753906-6.847657-8.101562-4.105468-.339844-7.753906 2.71875-8.101562 6.847656-.347656 4.152344-.503906 8.25-.460938 12.1875.355469 33.320313 13.59375 64.769532 37.28125 88.554688 23.691407 23.785156 55.085938 37.152344 88.40625 37.640625zm0 0" fill="#434c54" data-original="#434C54" class="" style="fill:#030303" data-old_color="#434C54"/><path d="m102.148438 375.234375c-39.097657-11.191406-46.691407-50.9375-47.003907-52.675781-.71875-4.074219-4.597656-6.804688-8.671875-6.085938-4.082031.707032-6.8125 4.589844-6.105468 8.671875.359374 2.0625 9.347656 50.683594 57.648437 64.511719.691406.199219 1.386719.292969 2.070313.292969 3.261718 0 6.265624-2.148438 7.207031-5.441407 1.140625-3.980468-1.164063-8.132812-5.144531-9.273437zm0 0" fill="#fff" data-original="#FFF" class="active-path" style="fill:#EDF1F2" data-old_color="#3DD0F2"/><g fill="#ffc843"><path d="m128.097656 454.039062c-4.144531 0-7.5 3.355469-7.5 7.5v42.960938c0 4.144531 3.355469 7.5 7.5 7.5 4.140625 0 7.5-3.355469 7.5-7.5v-42.960938c0-4.144531-3.359375-7.5-7.5-7.5zm0 0" data-original="#000000" class="" style="fill:#000000"/><path d="m35.457031 436.164062-30.378906 30.378907c-2.929687 2.929687-2.929687 7.675781 0 10.605469 1.464844 1.464843 3.382813 2.195312 5.300781 2.195312 1.921875 0 3.839844-.730469 5.304688-2.195312l30.378906-30.378907c2.929688-2.929687 2.929688-7.679687 0-10.609375-2.925781-2.925781-7.675781-2.925781-10.605469.003906zm0 0" data-original="#000000" class="" style="fill:#000000"/><path d="m220.734375 436.164062c-2.929687-2.929687-7.679687-2.933593-10.605469-.003906-2.929687 2.929688-2.929687 7.679688 0 10.609375l30.378906 30.378907c1.464844 1.464843 3.382813 2.195312 5.304688 2.195312 1.917969 0 3.835938-.730469 5.300781-2.195312 2.929688-2.929688 2.929688-7.679688.003907-10.605469zm0 0" data-original="#000000" class="" style="fill:#000000"/></g></g> </svg>
