<?xml version="1.0"?>
<svg xmlns="http://www.w3.org/2000/svg" xmlns:xlink="http://www.w3.org/1999/xlink" version="1.1" id="Capa_1" x="0px" y="0px" viewBox="0 0 512 512" style="enable-background:new 0 0 512 512;" xml:space="preserve" width="512px" height="512px" class=""><g><path style="fill:#3DD0F2" d="M368,504.5H144c-16.569,0-30-13.431-30-30v-437c0-16.569,13.431-30,30-30h224  c16.569,0,30,13.431,30,30v437C398,491.069,384.569,504.5,368,504.5z" data-original="#D8F4FF" class="active-path" data-old_color="#3dd0f2"/><path style="fill:#3DD0F2" d="M368,7.5h-30c16.569,0,30,13.431,30,30v437c0,16.569-13.431,30-30,30h30c16.569,0,30-13.431,30-30  v-437C398,20.931,384.569,7.5,368,7.5z" data-original="#A9DFF5" class="" data-old_color="#3dd0f2"/><path style="fill:#3DD0F2" d="M314,45.5H198c-7.732,0-14-6.268-14-14v-24h144v24C328,39.232,321.732,45.5,314,45.5z" data-original="#3F405C" class="" data-old_color="#3dd0f2"/><path style="fill:#3DD0F2" d="M298,7.5v24c0,7.732-6.268,14-14,14h30c7.732,0,14-6.268,14-14v-24H298z" data-original="#36374F" class="" data-old_color="#3dd0f2"/><rect x="114" y="428.5" style="fill:#3DD0F2" width="284" height="30" data-original="#71C8EB" class="" data-old_color="#3dd0f2"/><rect x="368" y="428.5" style="fill:#3DD0F2" width="30" height="30" data-original="#6DAEE3" class="" data-old_color="#3dd0f2"/><path style="fill:#3DD0F2" d="M368,504.5H144c-16.569,0-30-13.431-30-30v-16h284v16C398,491.069,384.569,504.5,368,504.5z" data-original="#3F405C" class="" data-old_color="#3dd0f2"/><path style="fill:#3DD0F2" d="M368,458.5v16c0,16.569-13.431,30-30,30h30c16.569,0,30-13.431,30-30v-16H368z" data-original="#36374F" class="" data-old_color="#3dd0f2"/><path style="fill:#3DD0F2" d="M175.48,285.411v-60.627c0-42.525,34.473-76.998,76.998-76.998h9.182  c42.525,0,76.998,34.473,76.998,76.998v60.627c0,45.06-36.529,81.589-81.589,81.589l0,0C212.009,367,175.48,330.471,175.48,285.411z  " data-original="#FCC19C" class="" data-old_color="#3dd0f2"/><path style="fill:#3DD0F2" d="M261.66,147.786h-9.182c-3.555,0-7.047,0.262-10.474,0.728c37.567,5.113,66.524,37.3,66.524,76.27  v60.627c0,39.911-28.664,73.106-66.524,80.177c4.885,0.913,9.916,1.412,15.065,1.412l0,0c45.06,0,81.589-36.529,81.589-81.589  v-60.627C338.658,182.259,304.185,147.786,261.66,147.786z" data-original="#DB9783" class="" data-old_color="#3dd0f2"/><path style="fill:#3DD0F2" d="M352.435,215.85c-1.041-0.665-1.26-2.064-0.455-3c4.271-4.963,6.856-11.417,6.856-18.479  c0-8.097-3.398-15.398-8.841-20.564c-0.685-0.65-0.8-1.698-0.281-2.487c5.092-7.743,5.644-18.736-2.202-29.216  c-0.122-0.163-0.272-0.313-0.435-0.435c-9.999-7.479-20.463-7.319-28.124-2.865c-1.357,0.789-3.013-0.306-2.93-1.874  c0.298-5.656-1.452-11.857-6.036-17.895c-0.122-0.16-0.27-0.308-0.432-0.428c-9.634-7.167-19.669-7.246-27.223-3.253  c-0.981,0.518-2.178,0.159-2.698-0.82c-4.384-8.251-13.063-13.872-23.059-13.872c-10.177,0-18.988,5.828-23.291,14.326  c-0.525,1.037-1.792,1.403-2.796,0.819c-7.637-4.442-18.055-4.625-28.034,2.794c-0.162,0.12-0.311,0.268-0.433,0.429  c-4.586,6.039-6.338,12.242-6.039,17.9c0.083,1.567-1.574,2.662-2.93,1.874c-7.662-4.454-18.125-4.614-28.124,2.865  c-0.163,0.122-0.313,0.272-0.435,0.435c-7.846,10.48-7.294,21.472-2.202,29.216c0.519,0.789,0.404,1.837-0.281,2.487  c-5.444,5.166-8.841,12.467-8.841,20.564c0,7.061,2.584,13.516,6.855,18.479c0.806,0.936,0.586,2.335-0.455,3.001  c-10.552,6.743-15.24,21.853-4.672,35.988c0.122,0.164,0.273,0.314,0.436,0.436c18.906,14.152,39.606,0.976,39.606-17.034  c0-4.352-1.21-8.42-3.311-11.889c-0.633-1.045-0.211-2.38,0.914-2.855c6.745-2.848,12.157-8.23,15.043-14.956  c0.311-0.726,1.049-1.171,1.839-1.155c0.15,0.003,0.301,0.005,0.451,0.005c6.791,0,13.022-2.39,17.903-6.372  c0.761-0.621,1.867-0.59,2.58,0.087c6.83,6.485,16.057,10.47,26.219,10.47c9.918,0,18.951-3.789,25.73-10  c0.7-0.641,1.762-0.674,2.513-0.094c4.789,3.702,10.792,5.909,17.314,5.909c0.151,0,0.301-0.002,0.451-0.005  c0.79-0.015,1.527,0.429,1.839,1.155c2.881,6.713,8.279,12.088,15.007,14.94c1.143,0.485,1.572,1.84,0.931,2.903  c-4.642,7.696-4.909,18.327,2.685,28.467c0.123,0.164,0.274,0.315,0.438,0.437c18.902,14.13,39.589,0.957,39.589-17.047  C363.068,227.091,358.828,219.935,352.435,215.85z" data-original="#AC695D" class="" data-old_color="#3dd0f2"/><path style="fill:#3DD0F2" d="M352.435,215.85c-1.041-0.665-1.26-2.064-0.455-3c4.271-4.963,6.856-11.417,6.856-18.479  c0-8.097-3.398-15.398-8.841-20.564c-0.685-0.65-0.8-1.698-0.281-2.487c5.092-7.743,5.644-18.736-2.202-29.216  c-0.122-0.163-0.272-0.313-0.435-0.435c-9.999-7.479-20.463-7.319-28.124-2.865c-1.357,0.789-3.013-0.306-2.931-1.874  c0.298-5.656-1.452-11.857-6.036-17.895c-0.122-0.16-0.27-0.307-0.432-0.427c-9.634-7.167-19.669-7.246-27.224-3.253  c-0.981,0.518-2.178,0.159-2.698-0.82c-4.384-8.251-13.063-13.872-23.059-13.872c-10.177,0-18.988,5.828-23.291,14.326  c-0.525,1.037-1.792,1.403-2.796,0.819c-7.637-4.442-18.055-4.625-28.034,2.794c-0.162,0.12-0.311,0.268-0.433,0.429  c-3.022,3.98-4.807,8.03-5.592,11.949c11.323-13.23,27.219-12.042,37.396-12.042c9.995,0,18.675,5.621,23.059,13.872  c0.521,0.979,1.718,1.339,2.698,0.82c7.554-3.993,17.59-3.914,27.224,3.253c0.161,0.12,0.31,0.267,0.432,0.427  c4.583,6.038,6.334,12.239,6.036,17.895c-0.083,1.567,1.574,2.663,2.931,1.874c7.662-4.454,18.125-4.614,28.124,2.865  c0.163,0.122,0.313,0.272,0.435,0.435c7.846,10.48,7.294,21.472,2.202,29.216c-0.519,0.789-0.404,1.837,0.281,2.487  c5.444,5.166,8.841,12.467,8.841,20.564c0,7.061-2.584,13.516-6.856,18.479c-0.806,0.936-0.586,2.335,0.455,3  c6.393,4.085,10.634,11.241,10.634,19.391c0,1.616-0.173,3.191-0.49,4.713c12.812,0.128,23.24-10.206,23.24-22.988  C363.068,227.091,358.828,219.935,352.435,215.85z" data-original="#945B44" class="" data-old_color="#3dd0f2"/><path d="M398,409c-4.143,0-7.5,3.357-7.5,7.5V451H192c-4.143,0-7.5,3.357-7.5,7.5s3.357,7.5,7.5,7.5h198.5v8.5  c0,12.406-10.094,22.5-22.5,22.5H144c-12.406,0-22.5-10.094-22.5-22.5V466h38.75c4.143,0,7.5-3.357,7.5-7.5s-3.357-7.5-7.5-7.5  H121.5V95.75c0-4.143-3.357-7.5-7.5-7.5s-7.5,3.357-7.5,7.5V474.5l0,0c0,20.678,16.822,37.5,37.5,37.5h224  c20.678,0,37.5-16.822,37.5-37.5l0,0v-58C405.5,412.357,402.143,409,398,409z" data-original="#000000" class="" style="fill:#000000"/><path d="M368,0L368,0H144l0,0c-20.678,0-37.5,16.822-37.5,37.5v26c0,4.143,3.357,7.5,7.5,7.5s7.5-3.357,7.5-7.5v-26  c0-12.406,10.094-22.5,22.5-22.5h32.5v16.5c0,11.855,9.645,21.5,21.5,21.5h116c11.855,0,21.5-9.645,21.5-21.5V15H368  c12.406,0,22.5,10.094,22.5,22.5v346.25c0,4.143,3.357,7.5,7.5,7.5s7.5-3.357,7.5-7.5V37.5C405.5,16.822,388.678,0,368,0z   M320.5,31.5c0,3.584-2.916,6.5-6.5,6.5H198c-3.584,0-6.5-2.916-6.5-6.5V15h129V31.5z" data-original="#000000" class="" style="fill:#000000"/><path d="M276,489c4.143,0,7.5-3.357,7.5-7.5s-3.357-7.5-7.5-7.5h-40c-4.143,0-7.5,3.357-7.5,7.5s3.357,7.5,7.5,7.5H276z" data-original="#000000" class="" style="fill:#000000"/><path d="M317.548,283.095c-3.509-2.193-8.139-1.128-10.335,2.386c-0.103,0.164-11.359,16.475-49.377,16.475  c-38.176,0-51.646-16.23-52.314-17.068c-2.5-3.257-7.163-3.901-10.453-1.428c-3.312,2.488-3.979,7.189-1.491,10.501  c0.484,0.645,5.03,6.462,15.32,12.078c13.272,7.244,29.738,10.917,48.938,10.917c46.855,0,61.497-22.564,62.098-23.525  C322.129,289.918,321.061,285.29,317.548,283.095z" data-original="#000000" class="" style="fill:#000000"/><path d="M275.88,257.598c0.983,0,1.983-0.194,2.943-0.603c0.074-0.031,7.526-3.143,17.009-2.205  c4.128,0.416,7.796-2.601,8.204-6.722c0.409-4.122-2.6-7.795-6.722-8.204c-13.553-1.349-24.05,3.189-24.49,3.383  c-3.775,1.66-5.48,6.049-3.843,9.834C270.205,255.909,272.975,257.598,275.88,257.598z" data-original="#000000" class="" style="fill:#000000"/><path d="M217.314,254.79c9.387-0.927,16.782,2.109,17.005,2.203c0.972,0.422,1.983,0.621,2.979,0.621  c2.884,0,5.634-1.674,6.869-4.482c1.668-3.792-0.055-8.218-3.846-9.885c-0.44-0.194-10.932-4.732-24.49-3.383  c-4.122,0.409-7.131,4.082-6.722,8.204S213.199,255.208,217.314,254.79z" data-original="#000000" class="" style="fill:#000000"/><path d="M184.033,58.5h-40c-4.143,0-7.5,3.357-7.5,7.5v40c0,4.143,3.357,7.5,7.5,7.5s7.5-3.357,7.5-7.5V73.5h32.5  c4.143,0,7.5-3.357,7.5-7.5S188.176,58.5,184.033,58.5z" data-original="#000000" class="" style="fill:#000000"/><path d="M375.5,66c0-4.143-3.357-7.5-7.5-7.5h-40c-4.143,0-7.5,3.357-7.5,7.5s3.357,7.5,7.5,7.5h32.5V106c0,4.143,3.357,7.5,7.5,7.5  s7.5-3.357,7.5-7.5V66z" data-original="#000000" class="" style="fill:#000000"/><path d="M368,358.5c-4.143,0-7.5,3.357-7.5,7.5v32.5H328c-4.143,0-7.5,3.357-7.5,7.5s3.357,7.5,7.5,7.5h40  c4.143,0,7.5-3.357,7.5-7.5v-40C375.5,361.857,372.143,358.5,368,358.5z" data-original="#000000" class="" style="fill:#000000"/><path d="M136.5,406c0,4.143,3.357,7.5,7.5,7.5h40c4.143,0,7.5-3.357,7.5-7.5s-3.357-7.5-7.5-7.5h-32.5V366  c0-4.143-3.357-7.5-7.5-7.5s-7.5,3.357-7.5,7.5V406z" data-original="#000000" class="" style="fill:#000000"/><path d="M314.03,112.591c-9.517-7.079-20.59-9.136-30.491-5.874c-6.283-8.464-16.222-13.553-26.966-13.553  c-10.927,0-20.937,5.202-27.195,13.861c-10.116-3.727-21.52-1.788-31.433,5.581c-0.715,0.538-1.352,1.17-1.9,1.89  c-3.496,4.604-5.823,9.565-6.903,14.646c-9.426-2.458-19.698-0.221-28.712,6.523c-0.738,0.552-1.393,1.206-1.944,1.944  c-7.986,10.668-9.616,23.315-4.63,33.965c-5.247,6.382-8.191,14.478-8.191,22.796c0,6.648,1.852,13.132,5.291,18.738  c-4.665,4.428-7.867,10.263-9.029,16.644c-1.63,8.953,0.841,18.392,6.979,26.604c0.557,0.736,1.211,1.388,1.93,1.922  c5.362,4.014,11.247,6.425,17.146,7.185v19.947c0,23.805,9.269,46.176,26.094,62.991c16.818,16.83,39.19,26.099,62.996,26.099  c49.124,0,89.09-39.966,89.09-89.09v-20.291c2.59-0.523,5.125-1.378,7.555-2.595c10.396-5.208,16.854-15.662,16.854-27.283  c0-8.499-3.479-16.438-9.518-22.141c3.436-5.604,5.285-12.084,5.285-18.729c0-8.317-2.944-16.414-8.191-22.796  c4.986-10.646,3.357-23.296-4.63-33.965c-0.552-0.738-1.206-1.393-1.946-1.946c-9.013-6.742-19.284-8.979-28.71-6.521  c-1.08-5.08-3.408-10.043-6.908-14.654C315.402,113.771,314.759,113.134,314.03,112.591z M257.07,359.5  c-19.797,0-38.4-7.707-52.389-21.705c-13.994-13.985-21.701-32.589-21.701-52.385v-21.748c0.874-0.34,1.741-0.708,2.592-1.134  c10.401-5.206,16.862-15.662,16.862-27.287c0-3.599-0.635-7.149-1.86-10.494c5.133-3.211,9.353-7.657,12.301-12.984  c5.605-0.475,11.038-2.27,15.815-5.213c7.961,6.171,17.703,9.525,27.883,9.525c9.945,0,19.513-3.216,27.379-9.131  c4.634,2.742,9.78,4.38,15.175,4.823c2.943,5.315,7.155,9.757,12.278,12.967c-3.794,10.18-1.838,21.637,5.637,31.616  c0.551,0.734,1.203,1.387,1.947,1.944c3.85,2.879,7.971,4.928,12.171,6.138v20.977C331.16,326.264,297.924,359.5,257.07,359.5z   M322.721,145.289c5.778-3.36,12.753-2.645,19.238,1.933c4.75,6.734,5.317,14.154,1.491,19.975  c-2.522,3.83-1.941,8.898,1.382,12.051c4.194,3.98,6.504,9.352,6.504,15.124c0,4.985-1.79,9.81-5.042,13.587  c-1.799,2.092-2.602,4.852-2.201,7.572c0.4,2.729,1.97,5.149,4.304,6.641c4.491,2.87,7.172,7.756,7.172,13.07  c0,5.907-3.284,11.223-8.572,13.872c-5.609,2.809-12.284,1.936-18.403-2.38c-4.659-6.587-5.328-13.649-1.814-19.476  c1.432-2.373,1.765-5.24,0.914-7.865c-0.85-2.619-2.797-4.739-5.339-5.816c-4.913-2.083-8.938-6.09-11.041-10.99  c-1.518-3.538-4.984-5.779-8.878-5.699l-0.306,0.003c-4.651,0-9.052-1.501-12.729-4.344c-3.653-2.821-8.77-2.611-12.164,0.5  c-5.651,5.178-12.989,8.029-20.663,8.029c-7.866,0-15.344-2.986-21.057-8.41c-3.436-3.264-8.803-3.459-12.483-0.459  c-3.756,3.064-8.308,4.684-13.162,4.684l-0.304-0.003c-3.849-0.075-7.362,2.16-8.878,5.695c-2.109,4.915-6.144,8.926-11.069,11.005  c-2.541,1.073-4.483,3.188-5.331,5.803c-0.849,2.62-0.514,5.48,0.918,7.845c1.457,2.408,2.228,5.177,2.228,8.007  c0,5.909-3.286,11.226-8.576,13.874c-5.606,2.808-12.276,1.934-18.415-2.395c-3.311-4.691-4.61-9.613-3.76-14.281  c0.766-4.205,3.288-7.948,6.92-10.269c2.335-1.492,3.904-3.913,4.305-6.643c0.398-2.723-0.405-5.482-2.204-7.571  c-3.25-3.776-5.04-8.602-5.04-13.586c0-5.772,2.31-11.144,6.504-15.123c3.323-3.153,3.904-8.222,1.385-12.049  c-3.829-5.822-3.261-13.243,1.488-19.978c6.486-4.578,13.463-5.291,19.236-1.934c2.991,1.74,6.687,1.698,9.642-0.108  c2.991-1.827,4.734-5.14,4.549-8.643c-0.215-4.086,1.194-8.349,4.073-12.36c6.468-4.539,13.419-5.231,19.176-1.884  c2.259,1.313,4.985,1.644,7.483,0.903c2.491-0.737,4.595-2.493,5.773-4.818c3.189-6.3,9.55-10.214,16.6-10.214  c6.896,0,13.194,3.79,16.436,9.892c2.449,4.607,8.2,6.371,12.826,3.932c5.647-2.986,12.402-2.177,18.627,2.193  c2.88,4.017,4.285,8.274,4.07,12.354c-0.186,3.505,1.558,6.817,4.549,8.646C316.038,146.985,319.731,147.027,322.721,145.289z" data-original="#000000" class="" style="fill:#000000"/><path d="M211,34c4.142,0,7.5-3.358,7.5-7.5l0,0c0-4.142-3.358-7.5-7.5-7.5s-7.5,3.358-7.5,7.5l0,0C203.5,30.642,206.858,34,211,34z" data-original="#000000" class="" style="fill:#000000"/><path d="M229,34c4.142,0,7.5-3.358,7.5-7.5l0,0c0-4.142-3.358-7.5-7.5-7.5s-7.5,3.358-7.5,7.5l0,0C221.5,30.642,224.858,34,229,34z" data-original="#000000" class="" style="fill:#000000"/></g> </svg>
