<?xml version="1.0"?>
<svg xmlns="http://www.w3.org/2000/svg" height="512px" viewBox="0 0 511.99388 511" width="512px" class=""><g><path d="m153.59375 205.050781c25.238281-11.972656 38.808594-39.835937 32.675781-67.089843-6.136719-27.253907-30.339843-46.613282-58.277343-46.613282-27.933594 0-52.136719 19.359375-58.273438 46.613282-6.136719 27.253906 7.4375 55.117187 32.675781 67.089843zm0 0" fill="#e91e63" data-original="#E91E63" class="" style="fill:#F9FBFC" data-old_color="#3DD0F2"/><path d="m307.195312 375.71875v-59.734375c0-14.140625-11.464843-25.601563-25.601562-25.601563s-25.601562 11.460938-25.601562 25.601563v-17.066406c.019531-2.886719-.5-5.753907-1.535157-8.449219-1.210937-3.636719-3.253906-6.9375-5.972656-9.640625-4.792969-4.808594-11.300781-7.511719-18.089844-7.511719-14.140625 0-25.601562 11.460938-25.601562 25.601563v-17.066407c.019531-2.886718-.5-5.753906-1.535157-8.449218-1.210937-3.636719-3.257812-6.9375-5.972656-9.640625-4.792968-4.808594-11.300781-7.511719-18.089844-7.511719-14.140624 0-25.601562 11.460938-25.601562 25.601562v-119.46875c0-14.136718-11.460938-25.597656-25.601562-25.597656-14.136719 0-25.597657 11.460938-25.597657 25.597656v221.613282l-25.601562-19.796875-22.613281-17.410157c-8.648438-6.6875-20.382813-7.78125-30.121094-2.816406-2.691406 1.320313-5.140625 3.082032-7.253906 5.207032-10.453126 10.515624-11.082032 27.296874-1.449219 38.570312l70.3125 81.835938c10.414062 20.949218 31.8125 34.179687 55.210937 34.132812h81.324219c47.128906 0 85.332031-38.207031 85.332031-85.335938v-42.664062zm0 0" fill="#ffe0b2" data-original="#FFE0B2" class="" style="fill:#3DD0F2" data-old_color="#3dd0f2"/><path d="m307.535156 375.71875v42.664062c0 47.128907-38.203125 85.335938-85.332031 85.335938h-25.601563c22.632813 0 44.335938-8.992188 60.339844-24.996094 16.003906-16 24.992188-37.707031 24.992188-60.339844v-42.664062h-.339844v-59.734375c0-6.789063-2.703125-13.296875-7.507812-18.089844-1.597657-1.570312-3.371094-2.945312-5.292969-4.097656 3.898437-2.230469 8.308593-3.40625 12.800781-3.414063 14.136719 0 25.601562 11.460938 25.601562 25.601563v59.734375zm0 0" fill="#bfa885" data-original="#BFA885" class="" style="fill:#3DD0F2" data-old_color="#3dd0f2"/><path d="m281.933594 375.71875v42.664062c0 22.632813-8.988282 44.339844-24.992188 60.339844-16.003906 16.003906-37.707031 24.996094-60.339844 24.996094h-55.722656c-23.398437.046875-44.796875-13.183594-55.210937-34.132812l-70.3125-81.835938c-9.632813-11.273438-9.003907-28.054688 1.449219-38.570312 2.113281-2.125 4.5625-3.886719 7.253906-5.207032 9.738281-4.964844 21.472656-3.871094 30.121094 2.816406l22.613281 17.410157 25.601562 19.796875v-221.613282c0-14.136718 11.460938-25.597656 25.597657-25.597656 14.140624 0 25.601562 11.460938 25.601562 25.597656v119.46875c.007812-10.347656 6.246094-19.671874 15.804688-23.628906 9.5625-3.960937 20.566406-1.773437 27.886718 5.539063 2.714844 2.703125 4.761719 6.003906 5.972656 9.640625 1.035157 2.695312 1.554688 5.5625 1.535157 8.449218v17.066407c.011719-10.347657 6.246093-19.671875 15.808593-23.628907 9.558594-3.960937 20.5625-1.773437 27.882813 5.539063 2.71875 2.703125 4.761719 6.003906 5.972656 9.640625 1.035157 2.695312 1.554688 5.5625 1.535157 8.449219v17.066406c-.003907-9.152344 4.875-17.609375 12.800781-22.1875 1.921875 1.152344 3.695312 2.527344 5.292969 4.097656 4.804687 4.792969 7.507812 11.300781 7.507812 18.089844v59.734375zm0 0" fill="#ffe0b2" data-original="#FFE0B2" class="" style="fill:#3DD0F2" data-old_color="#3dd0f2"/><path d="m435.195312 77.050781c0-18.851562-15.285156-34.132812-34.136718-34.132812-18.847656 0-34.132813 15.28125-34.132813 34.132812h-34.132812c0-37.703125 30.566406-68.265625 68.265625-68.265625 37.703125 0 68.269531 30.5625 68.269531 68.265625zm0 0" fill="#607d8b" data-original="#607D8B" class="active-path" style="fill:#3DD0F2" data-old_color="#3dd0f2"/><path d="m315.746094 77.050781h170.664062c9.425782 0 17.066406 7.640625 17.066406 17.066407v119.46875c0 9.425781-7.640624 17.066406-17.066406 17.066406h-170.664062c-9.425782 0-17.070313-7.640625-17.070313-17.066406v-119.46875c0-9.425782 7.644531-17.066407 17.070313-17.066407zm0 0" fill="#ff9801" data-original="#FF9801" class="" style="fill:#3DD0F2" data-old_color="#3dd0f2"/><path d="m315.726562 77.050781h145.066407c9.425781 0 17.066406 7.640625 17.066406 17.066407v119.46875c0 9.425781-7.640625 17.066406-17.066406 17.066406h-145.066407c-9.425781 0-17.066406-7.640625-17.066406-17.066406v-119.46875c0-9.425782 7.640625-17.066407 17.066406-17.066407zm0 0" fill="#fec108" data-original="#FEC108" class="" style="fill:#3DD0F2" data-old_color="#3dd0f2"/><path d="m418.800781 196.515625h-35.5c-2.929687-.226563-5.539062-1.933594-6.921875-4.527344-1.382812-2.589843-1.347656-5.710937.097656-8.269531l9.285157-17.289062c1.933593-3.410157 1.28125-7.699219-1.582031-10.378907-7.976563-6.988281-10.820313-18.175781-7.144532-28.125 3.675782-9.949219 13.109375-16.605469 23.714844-16.726562 10.605469-.125 20.191406 6.304687 24.101562 16.164062 3.90625 9.863281 1.328126 21.113281-6.484374 28.289063-3.078126 2.570312-3.976563 6.921875-2.167969 10.503906l9.386719 17.5625c1.441406 2.550781 1.480468 5.664062.109374 8.253906-1.375 2.589844-3.972656 4.304688-6.894531 4.542969zm0 0" fill="#37474f" data-original="#37474F" class="" style="fill:#F9FDFF" data-old_color="#37474F"/><path d="m486.394531 68.515625h-9.019531c-4.460938-38.761719-37.277344-68.019531-76.296875-68.019531s-71.835937 29.257812-76.296875 68.019531h-9.054688c-14.136718 0-25.597656 11.464844-25.597656 25.601563v51.199218h-94.457031c-4.699219-35.578125-36.140625-61.441406-71.957031-59.195312-35.816406 2.25-63.773438 31.84375-63.988282 67.730468-.089843 24.351563 12.957032 46.859376 34.132813 58.878907v153.898437l-34.464844-26.589844c-14.988281-11.519531-36.261719-9.847656-49.269531 3.871094-13.007812 13.714844-13.546875 35.046875-1.246094 49.402344l69.65625 81.066406c12.050782 23.300782 36.109375 37.914063 62.34375 37.871094h81.324219c51.816406-.058594 93.804687-42.050781 93.867187-93.867188v-42.664062c-.054687-.582031-.167968-1.152344-.34375-1.707031v-58.027344c-.003906-12.617187-6.972656-24.203125-18.117187-30.125s-24.644531-5.210937-35.105469 1.84375c-3.441406-10.003906-11.347656-17.832031-21.382812-21.175781-10.039063-3.347656-21.058594-1.828125-29.816406 4.109375-3.257813-9.644531-10.699219-17.300781-20.25-20.828125-9.546876-3.53125-20.179688-2.554688-28.925782 2.652344v-39.730469c18.53125-10.511719 30.972656-29.195313 33.535156-50.347657h94.464844v51.203126c0 14.136718 11.460938 25.597656 25.597656 25.597656h170.667969c14.136719 0 25.597657-11.460938 25.597657-25.597656v-119.46875c0-14.136719-11.460938-25.601563-25.597657-25.601563zm-85.335937-51.199219c29.667968.035156 54.816406 21.839844 59.050781 51.199219h-17.234375c-4.039062-19.882813-21.523438-34.175781-41.816406-34.175781-20.289063 0-37.773438 14.292968-41.8125 34.175781h-17.21875c4.238281-29.355469 29.371094-51.15625 59.03125-51.199219zm24.03125 51.199219h-48.042969c3.5625-10.222656 13.203125-17.074219 24.03125-17.074219s20.46875 6.851563 24.03125 17.074219zm-245.894532 196.269531c9.425782 0 17.066407 7.640625 17.066407 17.066406v42.664063c0 4.714844 3.820312 8.535156 8.53125 8.535156 4.714843 0 8.535156-3.820312 8.535156-8.535156v-25.597656c0-9.425781 7.640625-17.066407 17.066406-17.066407s17.066407 7.640626 17.066407 17.066407v25.597656c0 4.714844 3.820312 8.535156 8.53125 8.535156 4.714843 0 8.535156-3.820312 8.535156-8.535156v-8.53125c0-9.425781 7.640625-17.066406 17.066406-17.066406s17.066406 7.640625 17.066406 17.066406v93.867187c.050782.578126.167969 1.152344.339844 1.707032v6.824218c-.046875 42.398438-34.402344 76.753907-76.796875 76.800782h-81.324219c-20.164062.046875-38.605468-11.355469-47.574218-29.414063-.320313-.609375-.710938-1.183593-1.160157-1.707031l-70.304687-81.859375c-6.722656-7.882813-6.289063-19.601563.996094-26.964844 7.046874-7.042969 18.222656-7.773437 26.121093-1.707031l44.902344 34.660156v13.125c0 4.714844 3.820313 8.535156 8.535156 8.535156 4.710938 0 8.53125-3.820312 8.53125-8.535156v-238.933594c0-9.425781 7.640625-17.066406 17.066407-17.066406 9.425781 0 17.066406 7.640625 17.066406 17.066406v162.132813c0 4.714844 3.824218 8.535156 8.535156 8.535156 4.714844 0 8.535156-3.820312 8.535156-8.535156v-42.664063c0-9.425781 7.640625-17.066406 17.066406-17.066406zm-17.066406-72.722656v-29.679688c0-18.851562-15.285156-34.132812-34.136718-34.132812-18.851563 0-34.132813 15.28125-34.132813 34.132812v29.679688c-10.925781-9.683594-17.148437-23.609375-17.066406-38.210938 0-28.277343 22.925781-51.199218 51.199219-51.199218 28.277343 0 51.203124 22.921875 51.203124 51.199218.078126 14.601563-6.140624 28.527344-17.066406 38.210938zm332.796875 21.523438c0 4.710937-3.820312 8.53125-8.53125 8.53125h-170.667969c-4.710937 0-8.53125-3.820313-8.53125-8.53125v-119.46875c0-4.710938 3.820313-8.53125 8.53125-8.53125h170.667969c4.710938 0 8.53125 3.820312 8.53125 8.53125zm0 0" data-original="#000000" class="" style="fill:#000000"/><path d="m422.957031 110.59375c-14.347656-11.851562-35.535156-10.070312-47.699219 4.015625-12.160156 14.085937-10.835937 35.3125 2.984376 47.773437l-9.34375 17.382813c-2.832032 5.480469-2.621094 12.039063.5625 17.324219 2.886718 4.910156 8.148437 7.933594 13.839843 7.960937h35.5c5.691407-.027343 10.949219-3.054687 13.832031-7.960937 3.195313-5.316406 3.390626-11.914063.511719-17.410156l-9.042969-17.722657c7.257813-6.648437 11.292969-16.105469 11.070313-25.945312-.222656-9.839844-4.679687-19.105469-12.230469-25.417969zm-14.277343 59.605469 9.199218 17.785156-33.886718-.222656 9.304687-17.304688c3.792969-6.925781 2.339844-15.546875-3.507813-20.847656-4.902343-4.292969-6.933593-11-5.234374-17.289063 1.699218-6.289062 6.832031-11.0625 13.230468-12.304687 1.078125-.199219 2.175782-.296875 3.273438-.296875 4.003906-.019531 7.878906 1.382812 10.941406 3.957031 3.886719 3.246094 6.128906 8.046875 6.128906 13.109375.039063 4.78125-1.960937 9.351563-5.503906 12.558594-5.949219 5.222656-7.574219 13.824219-3.945312 20.855469zm0 0" data-original="#000000" class="" style="fill:#000000"/></g> </svg>
