<?xml version="1.0"?>
<svg xmlns="http://www.w3.org/2000/svg" xmlns:xlink="http://www.w3.org/1999/xlink" version="1.1" id="Capa_1" x="0px" y="0px" viewBox="0 0 512 512" style="enable-background:new 0 0 512 512;" xml:space="preserve" width="512px" height="512px" class=""><g><path style="fill:#40D3F7;" d="M388.23,298.094l77.182-77.182l6.383,38.302l32.487-5.414l-11.645-69.867h-0.002  c-0.13-0.779-0.314-1.553-0.559-2.319c-1.883-5.874-6.89-10.205-12.975-11.218l-69.867-11.645l-5.414,32.487l38.302,6.383  l-77.182,77.182c-45.152-33.85-109.483-30.25-150.546,10.813c-45.018,45.018-45.018,118.005,0,163.023s118.005,45.018,163.023,0  C418.48,407.578,422.079,343.246,388.23,298.094z M237.683,425.352c-32.155-32.155-32.155-84.289,0-116.445s84.289-32.155,116.445,0  s32.155,84.289,0,116.445S269.839,457.508,237.683,425.352z" data-original="#40D3F7" class=""/><path style="fill:#00C4F5;" d="M316.359,446.882c-26.572,6.796-55.86,0.122-77.075-19.999c-8.592,4.002-18.025,6.118-27.785,6.118  c-3.663,0-7.277-0.314-10.821-0.896c3.981,5.823,8.548,11.367,13.718,16.537c17.911,17.911,40.251,28.675,63.494,32.333  c9.652-5.651,18.648-12.57,26.766-20.689C308.912,456.029,312.807,451.545,316.359,446.882z" data-original="#00C4F5" class=""/><path style="fill:#3DD0F2" d="M142.463,274.806l-47.41-47.41l34.933-34.933l-23.289-23.289l-34.933,34.933l-40.756-40.756  L7.719,186.64l40.756,40.756l-34.933,34.933l23.289,23.289l34.933-34.933l47.41,47.41c-33.85,45.152-30.25,109.483,10.813,150.546  c45.018,45.018,118.005,45.018,163.023,0s45.018-118.005,0-163.023C251.946,244.555,187.614,240.956,142.463,274.806z   M269.72,425.352c-32.155,32.155-84.289,32.155-116.445,0s-32.155-84.289,0-116.445s84.289-32.155,116.445,0  S301.876,393.197,269.72,425.352z" data-original="#FF66B2" class="" data-old_color="#3dd0f2"/><path style="fill:#3DD0F2" d="M191.043,287.38c26.573-6.797,55.861-0.126,77.077,19.997c8.592-4.002,18.025-6.118,27.785-6.118  c3.666,0,7.282,0.315,10.83,0.899c-3.982-5.824-8.555-11.367-13.726-16.539c-17.913-17.913-40.256-28.676-63.5-32.328  c-9.65,5.649-18.644,12.568-26.76,20.685C198.491,278.232,194.594,282.715,191.043,287.38z" data-original="#FF3399" class="active-path" data-old_color="#3dd0f2"/><path style="fill:#40D3F7;" d="M316.049,253.653c-35.796-6.325-74,4.31-101.655,31.966c-28.06,28.06-38.626,66.986-31.707,103.233  c10.934-1.437,21.756-3.165,32.316-6.413c-4.864-25.832,2.69-53.542,22.68-73.531c20.808-20.808,49.978-28.131,76.689-22.01  C314.144,275.805,315.861,264.657,316.049,253.653z" data-original="#40D3F7" class=""/><circle style="fill:#3DD0F2" cx="254.736" cy="185.984" r="24.702" data-original="#AAD015" class="" data-old_color="#3dd0f2"/><path d="M511.898,252.531l-11.645-69.868c-1.663-10.105-9.796-18.202-19.882-19.881l-69.867-11.644  c-4.149-0.692-8.193,2.204-8.883,6.346l-5.414,32.486c-0.701,4.205,2.14,8.182,6.345,8.883l23.507,3.919l-61.975,61.974  c-22.429-14.957-49.322-22.147-76.465-20.328c-11.668,0.783-23.065,3.227-33.885,7.176c-37.131-13.548-77.882-8.598-110.417,13.15  l-37.348-37.347l29.475-29.475c2.972-2.973,2.972-7.945,0-10.917l-23.289-23.289c-3.015-3.014-7.902-3.014-10.916,0l-29.475,29.476  l-35.298-35.299c-2.971-2.971-7.945-2.971-10.916,0L2.261,181.183c-3.015,3.015-3.015,7.901,0,10.916l35.298,35.297L8.083,256.871  c-2.972,2.973-2.972,7.945,0,10.917l23.289,23.289c3.015,3.013,7.901,3.015,10.916,0l29.475-29.475l37.35,37.35  c-14.958,22.429-22.149,49.324-20.328,76.466c1.992,29.68,14.685,57.623,35.743,78.682c23.977,23.977,55.474,35.966,86.969,35.966  c14.798,0,29.596-2.647,43.614-7.941c0.887,0.988,2.036,1.766,3.393,2.198c12.37,3.938,25.02,5.855,37.547,5.855  c32.081,0,63.333-12.589,86.824-36.08c10.273-10.273,18.556-22.107,24.618-35.172c1.795-3.868,0.114-8.457-3.753-10.251  c-3.866-1.795-8.456-0.114-10.251,3.753c-5.299,11.418-12.542,21.765-21.531,30.754c-25.721,25.722-62.072,36.483-97.183,29.422  c7.224-4.333,14.094-9.475,20.483-15.422c0.228,0.001,0.457,0.005,0.685,0.005c24.047,0,46.6-9.334,63.641-26.377  c35.113-35.113,35.113-92.248,0-127.362c-17.009-17.009-39.626-26.377-63.681-26.377c-24.055,0-46.671,9.368-63.681,26.377  c-17.009,17.012-26.377,39.628-26.377,63.683s9.368,46.671,26.377,63.681c2.052,2.052,4.205,3.997,6.438,5.839  c-6.52,2.545-13.405,4.169-20.502,4.794c-40.124-41.949-39.427-109.248,1.692-150.366c37.598-37.599,97.982-41.938,140.458-10.096  c3.073,2.302,7.373,1.999,10.089-0.717l77.182-77.181c4.357-4.358,1.88-12.063-4.189-13.072l-30.689-5.116l2.876-17.258  l62.253,10.376c3.84,0.638,6.526,3.653,7.223,7.391l10.343,62.053l-17.259,2.877l-5.114-30.689  c-1.012-6.067-8.712-8.546-13.072-4.189l-77.182,77.182c-2.716,2.717-3.022,7.015-0.718,10.09  c17.031,22.717,24.411,51.947,20.247,80.192c-0.622,4.218,2.294,8.14,6.511,8.763c4.215,0.622,8.141-2.294,8.763-6.511  c4.431-30.059-2.58-61.102-19.288-86.214l61.979-61.979l3.917,23.508c0.692,4.145,4.734,7.034,8.883,6.344l32.487-5.414  C509.695,260.724,512.589,256.68,511.898,252.531z M135.444,443.183c-37.598-37.598-41.938-97.982-10.095-140.458  c2.303-3.073,1.998-7.372-0.718-10.09l-47.409-47.409c-3.014-3.013-7.901-3.015-10.916,0l-29.475,29.475L24.459,262.33  l29.475-29.475c2.972-2.973,2.972-7.945,0-10.917l-35.298-35.297l12.372-12.372l35.298,35.299c2.971,2.971,7.945,2.971,10.916,0  l29.475-29.476l12.372,12.372l-29.475,29.473c-3.015,3.016-3.015,7.902,0,10.917l47.41,47.409c2.716,2.715,7.014,3.02,10.089,0.717  c24.751-18.557,55.763-25.363,85.566-19.34c-7.321,4.391-14.204,9.562-20.529,15.447c-24.305-0.21-47.111,9.158-64.313,26.36  c-17.01,17.009-26.377,39.626-26.377,63.681s9.368,46.671,26.377,63.681c17.557,17.557,40.619,26.335,63.681,26.335  s46.124-8.778,63.681-26.335c35.113-35.115,35.113-92.248,0-127.361c-2.052-2.052-4.205-3.998-6.438-5.839  c6.521-2.546,13.407-4.17,20.505-4.794c40.103,41.924,39.377,109.295-1.695,150.366C245.614,485.118,177.38,485.118,135.444,443.183  z M348.669,419.894c-10.651,10.652-23.911,17.658-38.327,20.463c15.445-20.77,23.913-45.819,24.144-72.144  c0.238-27.071-8.255-52.938-24.153-74.312c14.433,2.812,27.706,9.835,38.336,20.465C377.764,343.461,377.764,390.8,348.669,419.894z   M243.141,419.893c-14.093-14.093-21.856-32.832-21.856-52.763s7.762-38.669,21.856-52.764c3.276-3.277,6.814-6.196,10.549-8.77  c3.763,2.589,7.319,5.516,10.572,8.77c29.094,29.093,29.094,76.433,0,105.527c-3.276,3.277-6.814,6.196-10.549,8.77  C249.952,426.076,246.397,423.148,243.141,419.893z M197.072,440.359c-14.434-2.812-27.707-9.835-38.338-20.465  c-14.093-14.093-21.856-32.832-21.856-52.764c0-19.932,7.763-38.67,21.856-52.764c10.655-10.656,23.9-17.659,38.325-20.463  c-15.482,20.817-23.95,45.929-24.144,72.321C172.717,393.241,181.209,419.036,197.072,440.359z" data-original="#000000" class=""/><path d="M149.572,80.82c28.091-28.091,65.44-43.56,105.164-43.56S331.809,52.729,359.9,80.82c3.14,3.139,8.44,2.927,11.327-0.444  c2.588-3.021,2.4-7.663-0.411-10.474c-31.007-31.007-72.232-48.082-116.08-48.082s-85.074,17.076-116.081,48.082  c-3.015,3.016-3.015,7.902,0,10.916C141.669,83.835,146.557,83.834,149.572,80.82z" data-original="#000000" class=""/><path d="M301.314,147.126c6.751,0,10.213-8.422,5.458-13.178c-13.899-13.899-32.379-21.553-52.036-21.553  s-38.137,7.655-52.036,21.553c-3.015,3.016-3.015,7.902,0,10.917c3.015,3.014,7.902,3.014,10.916,0  c10.983-10.984,25.587-17.033,41.12-17.033s30.136,6.049,41.12,17.033C297.363,146.371,299.339,147.126,301.314,147.126z" data-original="#000000" class=""/><path d="M330.425,118.015c6.751,0,10.213-8.422,5.458-13.178c-21.676-21.676-50.494-33.612-81.147-33.612  s-59.472,11.937-81.147,33.612c-3.015,3.016-3.015,7.902,0,10.917c3.015,3.014,7.902,3.014,10.916,0  c18.76-18.76,43.701-29.091,70.231-29.091s51.471,10.331,70.231,29.091C326.474,117.26,328.45,118.015,330.425,118.015z" data-original="#000000" class=""/><path d="M222.315,185.985c0,17.877,14.544,32.421,32.421,32.421s32.421-14.544,32.421-32.421s-14.544-32.421-32.421-32.421  S222.315,168.107,222.315,185.985z M271.718,185.985c0,9.364-7.618,16.982-16.982,16.982c-9.364,0-16.982-7.618-16.982-16.982  c0-9.364,7.618-16.982,16.982-16.982C264.1,169.002,271.718,176.621,271.718,185.985z" data-original="#000000" class=""/></g> </svg>
