<?xml version="1.0"?>
<svg xmlns="http://www.w3.org/2000/svg" height="512px" viewBox="0 0 512.00103 512" width="512px" class=""><g><path d="m225.871094 444.5h60v60h-60zm0 0" fill="#d18169" data-original="#D18169" class="" style="fill:#3DD0F2" data-old_color="#3dd0f2"/><path d="m255.871094 444.5h30v60h-30zm0 0" fill="#9d614f" data-original="#9D614F" class="active-path" style="fill:#3DD0F2" data-old_color="#3dd0f2"/><path d="m32.835938 178.480469s159.171874 15.882812 185.941406 71.367187c26.773437 55.484375-36.359375 181.265625 29.101562 193.902344 43.523438 8.402344 158.65625-47.449219 188.683594-66.082031 30.328125-46.558594 67.9375-103.320313 67.9375-192.066407 0-134.3125-138.21875-178.101562-205.683594-178.101562-67.460937 0-245.824218 1.742188-271.21875 150.539062-2.503906 14.667969-5.144531 20.441407 5.238282 20.441407zm0 0" fill="#ba68c8" data-original="#BA68C8" class="" style="fill:#3DD0F2" data-old_color="#3dd0f2"/><path d="m504.5 185.601562c0 88.75-37.609375 145.507813-67.941406 192.070313-30.019532 18.628906-145.160156 74.480469-188.679688 66.078125-44.847656-8.660156-29.339844-70.417969-23.730468-126.300781 2.582031-25.6875 3.0625-50.128907-5.367188-67.597657-7.0625-14.632812-23.320312-26.511718-43.441406-36.0625-56.199219-26.699218-142.5-35.308593-142.5-35.308593-10.390625 0-7.738282-5.769531-5.238282-20.441407 25.386719-148.796874 203.75-150.539062 271.21875-150.539062 43.417969 0 116.140626 18.140625 162.460938 66.871094 15.148438 15.917968 27.46875 35.121094 35.019531 58.007812 5.25 15.902344 8.199219 33.601563 8.199219 53.222656zm0 0" fill="#ba68c8" data-original="#BA68C8" class="" style="fill:#3DD0F2" data-old_color="#3dd0f2"/><path d="m224.148438 317.449219c2.582031-25.6875 3.0625-50.128907-5.367188-67.597657-7.0625-14.632812-23.320312-26.511718-43.441406-36.0625 77.730468-37.6875 209.5-101.679687 285.941406-139.417968 15.148438 15.917968 27.46875 35.121094 35.019531 58.007812zm0 0" fill="#fdd835" data-original="#FDD835" class="" style="fill:#3DD0F2" data-old_color="#3dd0f2"/><path d="m298.816406 7.5c-6.511718 0-14.0625.019531-22.40625.179688 69.695313 3.113281 198.089844 48.460937 198.089844 177.921874 0 88.742188-37.609375 145.503907-67.9375 192.0625-25.027344 15.53125-109.167969 56.910157-161.699219 65.398438.976563.257812 1.980469.488281 3.019531.6875 43.519532 8.402344 158.652344-47.449219 188.679688-66.085938 30.332031-46.558593 67.9375-103.320312 67.9375-192.0625 0-134.3125-138.21875-178.101562-205.683594-178.101562zm0 0" fill="#ab47bc" data-original="#AB47BC" class="" style="fill:#3DD0F2" data-old_color="#3dd0f2"/><path d="m440.308594 84.703125c14.367187 17.894531 25.273437 39.386719 30.59375 64.949219l25.398437-17.273438c-7.550781-22.886718-19.871093-42.089844-35.019531-58.007812-6.601562 3.257812-13.621094 6.714844-20.972656 10.332031zm0 0" fill="#fbc02d" data-original="#FBC02D" class="" style="fill:#3DD0F2" data-old_color="#3dd0f2"/><path d="m301.371094 48.433594c-112.605469-11.332032-188.542969 33.847656-188.542969 33.847656l106.859375 3.054688c24.738281.707031 48.828125-7.992188 67.40625-24.339844zm0 0" fill="#607d8b" data-original="#607D8B" class="" style="fill:#F2F3F3" data-old_color="#607D8B"/><path d="m271.851562 46.679688-14.757812 14.316406c-15.355469 13.511718-34.472656 21.777344-54.609375 23.847656l17.203125.488281c24.742188.707031 48.828125-7.988281 67.40625-24.335937l14.28125-12.5625c-10.152344-1.019532-20-1.578125-29.523438-1.753906zm0 0" fill="#455a64" data-original="#455A64" class="" style="fill:#F3F6F7" data-old_color="#3DD0F2"/><path d="m241.421875 112.101562c-62.570313-5.523437-134.15625-3.371093-134.15625-3.371093l54.96875 32.042969c14.652344 8.542968 33.035156 7.308593 46.410156-3.121094zm0 0" fill="#607d8b" data-original="#607D8B" class="" style="fill:#F2F3F3" data-old_color="#607D8B"/><path d="m210.898438 109.992188-32.253907 27.660156c-3.25 2.53125-6.796875 4.519531-10.511719 5.960937 13.460938 5.222657 28.878907 3.109375 40.511719-5.960937l32.777344-25.550782c-10.054687-.886718-20.339844-1.578124-30.523437-2.109374zm0 0" fill="#455a64" data-original="#455A64" class="" style="fill:#F3F6F7" data-old_color="#3DD0F2"/><path d="m329.871094 352.300781c0 16.566407-13.433594 30-30 30-16.570313 0-30-13.433593-30-30 0-16.570312 13.429687-30 30-30 16.566406 0 30 13.429688 30 30zm0 0" fill="#fdd835" data-original="#FDD835" class="" style="fill:#3DD0F2" data-old_color="#3dd0f2"/><path d="m469.203125 360.738281c-3.929687-7.292969-13.042969-10.023437-20.351563-6.101562-95.203124 51.097656-171.121093 79.609375-198.117187 74.390625-9.039063-1.742188-15.539063-6.3125-17.882813-22.929688-6.023437-42.691406 21.058594-118.007812-.535156-162.757812-13.121094-27.195313-51.09375-48.902344-112.859375-64.519532-32.214843-8.144531-62.761719-12.980468-95.433593-16.289062-8.277344-.828125-15.621094 5.1875-16.445313 13.429688-.828125 8.238281 5.195313 15.585937 13.453125 16.410156 30.941406 3.144531 60.742188 7.835937 91.371094 15.601562 68.898437 17.46875 87.738281 37.808594 92.839844 48.378906 16.179687 33.527344-8.683594 107.59375-2.148438 153.929688 4.808594 34.066406 25.457031 45.007812 41.933594 48.191406 50.75 9.800782 172.519531-52.980468 218.0625-77.425781 7.304687-3.921875 10.042968-13.015625 6.113281-20.308594zm0 0" fill="#e1f5fe" data-original="#E1F5FE" class="" style="fill:#3DD0F2" data-old_color="#3dd0f2"/><path d="m469.203125 360.738281c-3.929687-7.292969-13.042969-10.023437-20.351563-6.101562-3.390624 1.820312-6.753906 3.605469-10.09375 5.367187.148438.246094.308594.480469.445313.734375 3.929687 7.292969 1.191406 16.382813-6.117187 20.308594-38.410157 20.617187-131.042969 68.503906-189.558594 77.113281.503906.109375 1.003906.214844 1.5.308594 50.75 9.800781 172.515625-52.976562 218.058594-77.421875 7.308593-3.921875 10.046874-13.015625 6.117187-20.308594zm0 0" fill="#b3e5fc" data-original="#B3E5FC" class="" style="fill:#3DD0F2" data-old_color="#3dd0f2"/><path d="m306.328125 54.066406c4.90625-4.316406 2.304687-12.441406-4.203125-13.09375-59.394531-5.984375-108.589844 3.742188-139.398438 12.949219-33.566406 10.03125-52.925781 21.433594-53.734374 21.914063-2.867188 1.707031-4.261719 5.105468-3.421876 8.332031.835938 3.230469 3.707032 5.515625 7.042969 5.613281l106.859375 3.050781c52.328125 1.503907 79.171875-33.71875 86.855469-38.765625zm-86.425781 23.769532-74.710938-2.132813c6.476563-2.476563 13.960938-5.074219 22.355469-7.566406 26.3125-7.8125 66.671875-16.007813 115.496094-13.5625-.5.296875-24.875 24.367187-63.140625 23.261719zm0 0" data-original="#000000" class="" style="fill:#010101" data-old_color="#3DD0F2"/><path d="m242.078125 104.628906c-62.285156-5.5-134.320313-3.417968-135.039063-3.394531-3.347656.101563-6.21875 2.402344-7.042968 5.648437-.824219 3.242188.601562 6.640626 3.492187 8.324219l54.96875 32.046875c7.710938 4.496094 16.226563 6.714844 24.707031 6.714844 10.652344 0 21.246094-3.507812 30.09375-10.402344l32.773438-25.550781c5.355469-4.171875 2.824219-12.789063-3.953125-13.386719zm-38.042969 27.105469c-11.023437 8.59375-25.949218 9.597656-38.023437 2.558594l-31.652344-18.449219c22.046875-.105469 54.792969.21875 87.144531 2.277344zm0 0" data-original="#000000" class="" style="fill:#010101" data-old_color="#3DD0F2"/><path d="m299.871094 314.800781c-20.679688 0-37.5 16.820313-37.5 37.5 0 20.675781 16.820312 37.5 37.5 37.5 20.675781 0 37.5-16.824219 37.5-37.5 0-20.679687-16.824219-37.5-37.5-37.5zm0 60c-12.40625 0-22.5-10.09375-22.5-22.5s10.09375-22.5 22.5-22.5 22.5 10.09375 22.5 22.5-10.09375 22.5-22.5 22.5zm0 0" data-original="#000000" class="" style="fill:#010101" data-old_color="#3DD0F2"/><path d="m464.753906 347.136719c24.289063-40.773438 47.246094-91.753907 47.246094-161.535157 0-140.234374-143.625-185.601562-213.179688-185.601562-35.425781 0-109.140624 0-172.402343 26.953125-3.8125 1.621094-5.585938 6.027344-3.960938 9.839844 1.621094 3.808593 6.027344 5.582031 9.839844 3.960937 60.445313-25.753906 132.09375-25.753906 166.523437-25.753906 39.578126 0 104.949219 15.621094 149.710938 57.296875-4.410156 2.171875-8.972656 4.417969-13.671875 6.726563-3.714844 1.828124-5.25 6.320312-3.421875 10.039062 1.816406 3.699219 6.304688 5.261719 10.039062 3.421875 6.28125-3.085937 12.320313-6.058594 18.078126-8.898437 11.550781 13.058593 21.144531 28.265624 27.726562 45.859374l-239.015625 162.539063c.222656-18.839844-1.941406-36.871094-9.195313-51.902344-5.953124-12.339843-16.433593-23.578125-31.359374-33.65625 59.800781-29.011719 140.03125-68.003906 205.027343-99.839843 3.71875-1.824219 5.257813-6.3125 3.433594-10.035157-1.820313-3.71875-6.3125-5.257812-10.03125-3.4375-68.253906 33.429688-153.320313 74.761719-213.863281 104.125-18.75-9.890625-42.441406-18.472656-70.980469-25.6875-27.105469-6.851562-54.597656-11.773437-85.75-15.324219 8.257813-43.839843 31.566406-77.921874 69.320313-101.339843 3.523437-2.183594 4.605468-6.804688 2.421874-10.324219-2.183593-3.519531-6.804687-4.605469-10.328124-2.421875-41.945313 26.015625-67.660157 63.996094-76.449219 112.90625-10.546875.941406-19.304688 9.261719-20.398438 20.164063-1.242187 12.390624 7.804688 23.386718 20.160157 24.621093 33.589843 3.414063 62.28125 8.3125 90.285156 15.414063 68.40625 17.34375 84.28125 36.804687 87.929687 44.367187 8.148438 16.886719 4.277344 48.367188.535157 78.808594-3.121094 25.40625-6.351563 51.675781-3.355469 72.90625 3.097656 21.945313 12.382812 35.238281 22.703125 43.289063v49.882812c0 4.144531 3.355468 7.5 7.5 7.5h60c4.140625 0 7.5-3.355469 7.5-7.5v-42.683594c24.285156-5.890625 54.261718-16.820312 89.722656-32.730468 3.777344-1.695313 5.464844-6.132813 3.769531-9.910157-1.695312-3.78125-6.132812-5.46875-9.914062-3.773437-30.5 13.6875-97.773438 42.03125-130.5 35.707031-21.949219-4.238281-32.816407-19.832031-35.929688-41.875-2.71875-19.273437.386719-44.542969 3.390625-68.980469 4.195313-34.09375 8.152344-66.300781-1.914062-87.160156-6.921875-14.347656-29.503906-35.085938-97.75-52.386719-28.734375-7.289062-58.113282-12.308593-92.46875-15.796875-4.140625-.414062-7.152344-4.085937-6.738282-8.203125.414063-4.113281 4.109376-7.121093 8.226563-6.714843 34.914063 3.539062 64.894531 8.652343 94.351563 16.101562 36.085937 9.125 91.851562 27.152344 107.945312 60.507812 12.613281 26.140626 7.007812 66.046876 3.117188 96.980469-2.964844 23.554688-5.761719 45.804688-3.253907 63.5625 2.46875 17.519531 9.835938 26.539063 23.882813 29.246094 29.050781 5.617187 104.964844-22.476563 203.089844-75.144531 3.679687-1.972656 8.246093-.578125 10.199218 3.050781 1.960938 3.640625.605469 8.175781-3.058594 10.144531-18.585937 9.972656-36.683593 19.230469-53.789062 27.511719-3.726562 1.804687-5.285156 6.292969-3.480469 10.019531 1.804688 3.730469 6.289063 5.289063 10.015625 3.484375 17.296875-8.375 35.582032-17.726562 54.347656-27.800781 10.953126-5.878906 15.082032-19.503906 9.171876-30.472656-2.523438-4.6875-6.488282-8.117188-11.050782-10.046875zm-208.019531 119.839843c6.4375 0 13.652344-.679687 21.636719-2.035156v32.058594h-45v-34.042969c7.828125 2.9375 15.1875 4.019531 23.363281 4.019531zm-4.578125-45.3125c-4.816406-.929687-9.800781-1.890624-11.878906-16.613281-2.226563-15.777343.453125-37.0625 3.285156-59.597656 1.417969-11.269531 2.894531-23.011719 3.808594-34.722656l244.609375-166.339844c3.242187 12.621094 5.023437 26.335937 5.023437 41.210937 0 70.46875-23.742187 119.359376-49.78125 161.511719-.648437.269531-1.285156.578125-1.917968.914063-112.195313 60.222656-174.171876 77.296875-193.148438 73.636718zm0 0" data-original="#000000" class="" style="fill:#010101" data-old_color="#3DD0F2"/></g> </svg>
