<svg id="svg" version="1.1" width="400" height="385.79999999999995" viewBox="0 0 400 385.79999999999995" xmlns="http://www.w3.org/2000/svg" xmlns:xlink="http://www.w3.org/1999/xlink" ><g id="svgg"><path id="path0" d="M123.500 35.538 C 104.905 37.955,93.929 59.274,102.307 76.700 C 111.643 96.120,138.320 98.151,150.312 80.355 C 164.121 59.864,147.687 32.393,123.500 35.538 M267.419 35.722 C 245.209 39.444,236.558 68.229,252.788 84.405 C 270.584 102.143,300.100 89.414,300.100 64.000 C 300.100 46.031,284.816 32.807,267.419 35.722 M131.118 47.403 C 145.324 51.024,148.584 70.029,136.397 78.180 C 123.322 86.926,106.751 73.822,111.638 58.600 C 114.280 50.371,123.030 45.342,131.118 47.403 M276.500 47.484 C 287.654 50.584,292.481 64.407,285.719 73.884 C 278.282 84.305,262.928 82.958,257.415 71.400 C 251.241 58.456,262.992 43.730,276.500 47.484 M121.200 104.533 C 97.435 105.814,83.408 111.618,73.539 124.254 C 63.859 136.649,57.461 154.252,57.332 168.848 L 57.300 172.396 46.300 172.448 L 35.300 172.500 35.247 178.248 L 35.194 183.997 47.445 184.048 L 59.697 184.100 60.160 185.400 C 67.415 205.790,83.912 226.960,96.546 232.094 C 112.027 238.384,122.362 227.894,117.283 211.044 C 115.419 204.862,111.597 196.944,106.111 187.900 L 103.807 184.100 126.536 184.049 C 139.037 184.021,149.313 184.046,149.372 184.105 C 149.430 184.164,148.631 191.372,147.596 200.125 L 145.713 216.037 135.607 227.128 C 124.285 239.552,124.200 239.664,124.200 242.100 C 124.200 244.873,123.293 243.880,143.300 263.018 C 162.838 281.708,161.999 280.996,164.500 280.996 C 166.640 280.996,167.503 280.502,169.936 277.879 C 180.350 266.656,201.525 243.128,201.958 242.300 C 202.395 241.464,202.481 241.037,202.481 239.700 C 202.481 236.989,202.795 237.360,190.806 225.885 C 184.973 220.302,180.200 215.633,180.200 215.510 C 180.200 215.387,180.697 213.804,181.305 211.993 C 183.935 204.155,187.173 191.278,188.106 184.948 L 188.246 183.996 197.947 184.048 L 207.648 184.100 208.439 187.000 C 212.065 200.291,218.737 215.151,224.850 223.552 L 225.615 224.604 224.829 225.952 C 212.561 246.983,227.915 274.079,252.100 274.079 C 269.787 274.079,283.280 260.245,283.291 242.100 C 283.299 227.538,274.778 215.534,261.405 211.269 L 259.007 210.504 258.570 209.402 C 257.893 207.698,256.210 204.408,254.268 200.992 C 252.611 198.079,246.405 184.328,246.641 184.092 C 246.693 184.041,259.526 184.021,275.159 184.049 L 303.583 184.100 302.575 185.900 C 294.035 201.151,288.953 213.641,288.656 220.116 C 287.969 235.046,306.214 238.752,319.784 226.439 C 323.031 223.493,327.333 217.670,330.745 211.600 C 338.149 198.433,342.215 190.222,343.892 185.050 L 344.232 184.000 354.316 184.000 L 364.400 184.000 364.400 178.200 L 364.400 172.400 355.750 172.400 L 347.100 172.400 347.098 166.350 C 347.080 121.301,313.618 99.725,255.224 107.110 C 225.342 110.889,207.297 133.387,206.264 168.150 L 206.138 172.400 198.005 172.400 L 189.873 172.400 190.024 171.150 C 195.763 123.507,173.262 101.728,121.200 104.533 M137.500 116.205 C 172.663 118.533,183.308 134.177,177.982 175.700 C 175.311 196.527,167.418 221.408,163.484 221.398 C 162.142 221.395,158.905 219.425,157.351 217.666 C 157.019 217.289,157.088 216.555,158.901 201.304 C 159.946 192.521,160.800 184.764,160.800 184.065 C 160.800 182.603,155.349 150.116,154.899 148.898 C 153.123 144.085,145.764 144.333,144.302 149.256 C 143.846 150.793,143.863 150.952,145.725 161.953 C 146.679 167.593,147.416 172.251,147.362 172.304 C 147.309 172.358,136.554 172.379,123.464 172.351 L 99.662 172.300 102.231 166.200 C 106.759 155.447,107.000 154.808,107.000 153.546 C 107.000 149.249,102.665 146.449,98.878 148.302 C 96.959 149.241,96.881 149.387,91.293 162.658 C 84.887 177.871,85.040 176.998,88.037 181.243 C 101.650 200.531,109.830 218.342,106.675 221.828 C 105.835 222.756,101.999 222.037,99.066 220.403 C 86.720 213.524,70.083 187.130,68.775 172.349 C 67.717 160.394,73.333 143.645,82.472 131.500 C 89.184 122.580,100.395 117.802,117.900 116.401 C 122.989 115.994,132.824 115.895,137.500 116.205 M285.500 117.617 C 318.085 120.138,335.101 136.051,335.739 164.600 C 335.989 175.812,334.089 181.589,324.185 199.723 C 317.356 212.227,314.453 216.288,310.086 219.447 C 307.001 221.679,302.319 222.827,300.427 221.814 C 297.946 220.486,307.264 199.622,318.641 181.032 C 319.690 179.320,320.107 177.660,319.834 176.297 C 319.445 174.363,312.788 151.161,312.408 150.415 C 310.261 146.207,303.885 146.675,302.189 151.165 C 301.513 152.956,301.688 153.917,304.450 163.600 L 306.933 172.300 277.534 172.351 C 261.364 172.379,248.100 172.367,248.058 172.325 C 248.016 172.283,248.751 167.730,249.691 162.207 C 250.631 156.685,251.400 151.603,251.400 150.915 C 251.400 145.099,243.428 143.248,240.775 148.448 C 240.137 149.699,234.549 182.568,234.661 184.409 C 234.789 186.515,241.312 201.431,244.742 207.463 C 249.379 215.616,249.887 217.950,247.671 220.920 C 244.541 225.114,242.471 225.406,238.612 222.194 C 232.518 217.123,224.179 200.806,219.706 185.200 C 217.647 178.018,217.381 175.964,217.609 169.031 C 218.419 144.392,228.677 127.101,246.100 121.003 C 254.312 118.129,272.221 116.590,285.500 117.617 M260.874 223.622 C 279.698 233.188,273.180 262.385,252.200 262.474 C 238.113 262.534,228.209 247.992,233.353 234.800 C 234.024 233.079,234.020 233.081,235.027 233.718 C 243.649 239.167,255.077 234.356,259.181 223.550 C 259.439 222.870,259.391 222.868,260.874 223.622 M179.333 230.891 C 181.625 233.086,184.699 236.034,186.165 237.441 L 188.829 239.999 176.785 253.250 C 170.160 260.537,164.630 266.620,164.496 266.767 C 164.274 267.010,138.000 242.249,138.000 241.797 C 138.000 241.727,140.905 238.479,144.455 234.578 L 150.911 227.486 152.453 228.706 C 160.172 234.810,168.646 234.497,174.000 227.910 C 175.098 226.560,174.407 226.174,179.333 230.891 M309.500 270.376 C 307.789 270.828,307.416 271.209,290.582 289.707 C 280.988 300.249,273.689 308.434,273.403 308.969 C 272.696 310.291,272.682 312.857,273.373 314.261 C 274.074 315.684,308.856 348.994,310.661 349.970 C 312.275 350.843,314.339 350.825,315.875 349.925 C 317.074 349.223,349.861 313.245,350.572 311.853 C 351.512 310.011,351.290 307.378,350.058 305.760 C 348.885 304.220,314.146 271.219,313.258 270.801 C 312.289 270.346,310.417 270.134,309.500 270.376 M102.500 275.131 C 73.259 278.608,61.021 313.655,81.804 334.400 C 103.567 356.123,139.995 339.491,138.946 308.311 C 138.287 288.750,120.922 272.941,102.500 275.131 M206.229 284.208 C 204.977 284.464,203.658 285.306,202.964 286.291 C 202.002 287.655,176.602 339.970,176.365 341.074 C 175.760 343.895,177.461 346.895,180.147 347.741 C 181.177 348.066,181.677 348.050,193.458 347.328 C 238.491 344.569,240.113 344.457,241.026 344.051 C 244.360 342.570,245.490 338.662,243.527 335.405 C 242.122 333.073,212.149 286.664,211.619 286.000 C 210.515 284.615,208.122 283.820,206.229 284.208 M322.953 295.627 C 329.414 301.801,335.316 307.458,336.069 308.198 L 337.438 309.542 325.223 322.975 C 318.505 330.362,312.939 336.403,312.854 336.398 C 312.691 336.387,286.741 311.632,286.642 311.392 C 286.586 311.256,310.936 284.400,311.116 284.400 C 311.165 284.400,316.492 289.452,322.953 295.627 M109.547 287.089 C 127.117 290.785,133.674 312.713,121.112 325.768 C 108.969 338.388,88.057 332.540,83.606 315.279 C 79.481 299.280,93.755 283.767,109.547 287.089 M218.785 318.171 C 224.197 326.570,228.597 333.463,228.562 333.489 C 228.468 333.559,191.547 335.814,191.493 335.753 C 191.467 335.724,195.185 328.028,199.755 318.650 L 208.063 301.600 208.504 302.250 C 208.746 302.608,213.373 309.772,218.785 318.171 " stroke="none" fill="#07adca" fill-rule="evenodd"></path><path id="path1" d="" stroke="none" fill="#080404" fill-rule="evenodd"></path><path id="path2" d="" stroke="none" fill="#080404" fill-rule="evenodd"></path><path id="path3" d="" stroke="none" fill="#080404" fill-rule="evenodd"></path><path id="path4" d="" stroke="none" fill="#080404" fill-rule="evenodd"></path></g></svg>
