<?xml version="1.0"?>
<svg xmlns="http://www.w3.org/2000/svg" height="512px" viewBox="-162 0 512 512.00141" width="512px" class=""><g><path d="m102.402344 8.535156h-17.066406c-4.714844 0-8.535157 3.820313-8.535157 8.53125v42.667969h34.132813v-42.667969c0-4.714844-3.820313-8.53125-8.53125-8.53125zm0 0" fill="#d8d7da" data-original="#D8D7DA" class="active-path" style="fill:#F9F9F9" data-old_color="#FBFAFB"/><path d="m68.269531 59.734375c-9.425781 0-17.066406 7.640625-17.066406 17.066406v179.199219h85.332031v-179.199219c0-9.425781-7.640625-17.066406-17.066406-17.066406zm0 0" fill="#898890" data-original="#898890" class="" style="fill:#3DD0F2" data-old_color="#3dd0f2"/><path d="m8.535156 256v51.199219h170.664063v-51.199219zm0 0" fill="#ffe477" data-original="#FFE477" class="" style="fill:#3DD0F2" data-old_color="#3dd0f2"/><path d="m34.132812 358.398438h119.46875v-51.199219h-119.46875zm0 0" fill="#ffeb99" data-original="#FFEB99" class="" style="fill:#3DD0F2" data-old_color="#3dd0f2"/><path d="m51.09375 358.675781 85.332031-.519531.210938 34.132812-85.335938.519532zm0 0" fill="#c6c5ca" data-original="#C6C5CA" class="" style="fill:#3DD0F2" data-old_color="#3dd0f2"/><path d="m51.203125 443.734375c0 9.425781 7.640625 17.066406 17.066406 17.066406h51.199219c9.425781 0 17.066406-7.640625 17.066406-17.066406v-17.066406h-85.332031zm0 0" fill="#c6c5ca" data-original="#C6C5CA" class="" style="fill:#3DD0F2" data-old_color="#3dd0f2"/><path d="m51.203125 392.53125h85.332031v34.136719h-85.332031zm0 0" fill="#898890" data-original="#898890" class="" style="fill:#3DD0F2" data-old_color="#3dd0f2"/><path d="m179.199219 247.464844h-34.132813v-170.664063c0-14.140625-11.460937-25.601562-25.597656-25.601562v-34.132813c0-9.425781-7.640625-17.066406-17.066406-17.066406h-17.066406c-9.425782 0-17.066407 7.640625-17.066407 17.066406v34.132813c-14.140625 0-25.601562 11.460937-25.601562 25.601562v170.664063h-34.132813c-4.714844 0-8.535156 3.824218-8.535156 8.535156v51.199219c0 4.714843 3.820312 8.535156 8.535156 8.535156h17.066406v42.667969c0 4.710937 3.820313 8.53125 8.53125 8.53125h8.535157v76.800781c0 14.140625 11.460937 25.601563 25.601562 25.601563h17.066407v8.53125c0 4.714843 3.820312 8.535156 8.53125 8.535156 4.714843 0 8.535156-3.820313 8.535156-8.535156v-8.53125h8.53125v17.066406c0 4.710937-3.820313 8.53125-8.53125 8.53125h-8.535156c-4.710938 0-8.53125 3.820312-8.53125 8.535156 0 4.710938 3.820312 8.53125 8.53125 8.53125h8.535156c14.136718 0 25.597656-11.460938 25.597656-25.597656v-18.636719c10.195312-3.605469 17.023438-13.222656 17.066406-24.03125v-76.800781h8.535156c4.714844 0 8.535157-3.820313 8.535157-8.535156v-42.664063h17.066406c4.710937 0 8.53125-3.820313 8.53125-8.535156v-51.199219c0-4.710938-3.820313-8.535156-8.535156-8.535156zm-93.863281-230.398438h17.066406v34.132813h-17.066406zm-25.601563 59.734375c0-4.714843 3.820313-8.535156 8.535156-8.535156h51.199219c4.710938 0 8.53125 3.820313 8.53125 8.535156v170.664063h-68.265625zm68.265625 341.332031h-68.265625v-17.066406h68.265625zm-8.53125 34.132813h-51.199219c-4.714843 0-8.535156-3.820313-8.535156-8.53125v-8.535156h68.265625v8.535156c0 4.710937-3.820312 8.53125-8.53125 8.53125zm8.53125-68.265625h-68.265625v-17.066406h68.265625zm17.066406-34.132812h-102.398437v-34.132813h102.398437zm25.601563-51.199219h-153.601563v-34.132813h153.601563zm0 0" fill="#3e3d42" data-original="#3E3D42" class="" style="fill:#050506" data-old_color="#3E3D42"/></g> </svg>
