<?xml version="1.0"?>
<svg xmlns="http://www.w3.org/2000/svg" height="512px" viewBox="-9 1 511 511.99666" width="512px" class=""><g><path d="m325.4375 116.878906c-18.839844-16.5625-47.535156-14.714844-64.097656 4.121094s-14.71875 47.535156 4.121094 64.09375c18.835937 16.5625 47.53125 14.71875 64.09375-4.117188 16.5625-18.835937 14.71875-47.535156-4.117188-64.097656zm0 0" fill="#f9cd45" data-original="#F9CD45" class="" style="fill:#3DD0F2" data-old_color="#3dd0f2"/><path d="m325.4375 116.878906c-18.839844-16.5625-47.535156-14.714844-64.097656 4.121094s-14.71875 47.535156 4.121094 64.09375c18.835937 16.5625 47.53125 14.71875 64.09375-4.117188 16.5625-18.835937 14.71875-47.535156-4.117188-64.097656zm0 0" fill="#f9cd45" data-original="#F9CD45" class="" style="fill:#3DD0F2" data-old_color="#3dd0f2"/><path d="m325.4375 116.882812c-11.773438-10.355468-27.402344-13.515624-41.511719-9.828124 6.636719 1.730468 12.984375 4.988281 18.488281 9.828124 18.839844 16.5625 20.683594 45.257813 4.121094 64.09375-6.210937 7.0625-14.125 11.734376-22.585937 13.945313 16.085937 4.195313 33.882812-.613281 45.609375-13.945313 16.558594-18.835937 14.714844-47.53125-4.121094-64.09375zm0 0" fill="#f8a814" data-original="#F8A814" class="" style="fill:#3DD0F2" data-old_color="#3dd0f2"/><path d="m359.046875 466.039062h99.785156v36.597657h-99.785156zm0 0" fill="#0075ff" data-original="#0075FF" class="" style="fill:#3DD0F2" data-old_color="#3dd0f2"/><path d="m435.808594 466.039062h23.023437v36.597657h-23.023437zm0 0" fill="#2052e0" data-original="#2052E0" class="" style="fill:#3DD0F2" data-old_color="#3dd0f2"/><path d="m140.082031 32.390625 24.453125-24.894531 28.074219 27.582031-24.453125 24.890625zm0 0" fill="#e480be" data-original="#E480BE"/><path d="m140.082031 32.390625 24.453125-24.894531 28.074219 27.582031-24.453125 24.890625zm0 0" fill="#f45a3c" data-original="#F45A3C" class="" style="fill:#3DD0F2" data-old_color="#3dd0f2"/><path d="m203.398438 400.929688-5.03125 25.082031c-1.695313 8.464843 4.777343 16.363281 13.410156 16.363281h18.988281l9.203125-45.878906c1.054688-5.269532.699219-10.730469-1.03125-15.816406l-.472656-1.378907c-1.664063-4.898437-4.597656-9.269531-8.5-12.667969l-169.035156-126.324218c-1.917969-1.667969-1.988282-4.621094-.15625-6.382813l103.183593-99.121093-24.234375-25.226563-110.671875 106.308594c-6.1875 5.945312-9.589843 14.214843-9.382812 22.792969.191406 7.859374 3.675781 15.28125 9.605469 20.449218l168.78125 126.097656c4.46875 3.894532 6.511718 9.890626 5.34375 15.703126zm0 0" fill="#4890e3" data-original="#4890E3" class="active-path" style="fill:#3DD0F2" data-old_color="#3dd0f2"/><g fill="#0075ff"><path d="m238.9375 380.679688-.472656-1.378907c-1.664063-4.898437-4.597656-9.269531-8.5-12.667969l-169.035156-126.324218c-1.917969-1.667969-1.988282-4.621094-.15625-6.382813l103.183593-99.121093-24.234375-25.226563-11.972656 11.5 13.1875 13.726563-103.183594 99.121093c-1.835937 1.761719-1.761718 4.714844.152344 6.382813l169.039062 126.324218c3.902344 3.398438 6.832032 7.769532 8.5 12.667969l.46875 1.378907c1.734376 5.085937 2.089844 10.542968 1.03125 15.8125l-9.082031 45.292968c1.234375.371094 2.542969.589844 3.914063.589844h18.988281l9.203125-45.882812c1.054688-5.269532.699219-10.726563-1.03125-15.8125zm0 0" data-original="#000000" class="" style="fill:#000000" data-old_color="#3DD0F2"/><path d="m194.941406 117.65625c0 17.902344-14.515625 32.414062-32.414062 32.414062-17.902344 0-32.417969-14.511718-32.417969-32.414062s14.515625-32.414062 32.417969-32.414062c17.898437 0 32.414062 14.511718 32.414062 32.414062zm0 0" data-original="#000000" class="" style="fill:#000000" data-old_color="#3DD0F2"/><path d="m261.148438 39.507812c-25.164063-22.125-63.5-19.664062-85.625 5.5-22.121094 25.164063-19.660157 63.5 5.503906 85.625 2.273437 1.996094 4.65625 3.792969 7.125 5.390626l58.960937 69.9375 96.671875-109.945313-73.628906-46.640625c-2.578125-3.539062-5.582031-6.855469-9.007812-9.867188zm0 0" data-original="#000000" class="" style="fill:#000000" data-old_color="#3DD0F2"/></g><path d="m270.15625 49.375c-2.578125-3.539062-5.582031-6.855469-9.007812-9.867188-14.652344-12.882812-33.765626-17.414062-51.550782-13.996093 10.246094 1.972656 20.125 6.605469 28.527344 13.996093 3.429688 3.011719 6.429688 6.328126 9.011719 9.867188l73.625 46.640625-84.917969 96.582031 11.269531 13.363282 96.671875-109.945313zm0 0" fill="#2052e0" data-original="#2052E0" class="" style="fill:#3DD0F2" data-old_color="#3dd0f2"/><path d="m79.859375 245.777344c0 19.839844-16.085937 35.925781-35.925781 35.925781-19.84375 0-35.929688-16.085937-35.929688-35.925781 0-19.84375 16.085938-35.929688 35.929688-35.929688 19.839844 0 35.925781 16.085938 35.925781 35.929688zm0 0" fill="#0075ff" data-original="#0075FF" class="" style="fill:#3DD0F2" data-old_color="#3dd0f2"/><path d="m43.933594 209.847656c-4.027344 0-7.898438.671875-11.511719 1.894532 14.195313 4.800781 24.417969 18.21875 24.417969 34.035156 0 15.8125-10.222656 29.230468-24.417969 34.03125 3.613281 1.222656 7.484375 1.894531 11.511719 1.894531 19.839844 0 35.925781-16.085937 35.925781-35.929687 0-19.839844-16.085937-35.925782-35.925781-35.925782zm0 0" fill="#2052e0" data-original="#2052E0" class="" style="fill:#3DD0F2" data-old_color="#3dd0f2"/><path d="m427.707031 351.421875c0 10.363281-8.402343 18.765625-18.765625 18.765625-10.367187 0-18.765625-8.402344-18.765625-18.765625 0-10.367187 8.398438-18.765625 18.765625-18.765625 10.363282 0 18.765625 8.398438 18.765625 18.765625zm0 0" fill="#f45a3c" data-original="#F45A3C" class="" style="fill:#3DD0F2" data-old_color="#3dd0f2"/><path d="m299.535156 504.492188h-166.746094c0-42.472657 34.433594-76.902344 76.90625-76.902344h12.9375c42.472657 0 76.902344 34.429687 76.902344 76.902344zm0 0" fill="#4890e3" data-original="#4890E3" class="active-path" style="fill:#3DD0F2" data-old_color="#3dd0f2"/><path d="m222.632812 427.589844h-12.9375c-1.695312 0-3.375.074218-5.042968.179687 40.121094 2.601563 71.863281 35.945313 71.863281 76.722657h23.023437c-.003906-42.472657-34.433593-76.902344-76.90625-76.902344zm0 0" fill="#0075ff" data-original="#0075FF" class="" style="fill:#3DD0F2" data-old_color="#3dd0f2"/><path d="m364.960938 355.75c4.144531 0 7.507812-3.363281 7.507812-7.507812 0-20.113282 16.359375-36.472657 36.472656-36.472657 20.109375 0 36.472656 16.359375 36.472656 36.472657 0 4.144531 3.359376 7.507812 7.507813 7.507812 4.144531 0 7.507813-3.363281 7.507813-7.507812 0-28.390626-23.097657-51.488282-51.488282-51.488282s-51.488281 23.097656-51.488281 51.488282c0 4.144531 3.359375 7.507812 7.507813 7.507812zm0 0" data-original="#000000" class="" style="fill:#000000" data-old_color="#3DD0F2"/><path d="m408.941406 264.183594c-46.351562 0-84.0625 37.707031-84.0625 84.058594 0 4.144531 3.363282 7.507812 7.507813 7.507812 4.148437 0 7.507812-3.363281 7.507812-7.507812 0-38.070313 30.972657-69.046876 69.046875-69.046876 38.070313 0 69.042969 30.972657 69.042969 69.046876 0 4.144531 3.363281 7.507812 7.507813 7.507812 4.148437 0 7.507812-3.363281 7.507812-7.507812 0-46.351563-37.710938-84.058594-84.058594-84.058594zm0 0" data-original="#000000" class="" style="fill:#000000" data-old_color="#3DD0F2"/><path d="m289.082031 465.035156c-3.75 1.761719-5.363281 6.234375-3.601562 9.988282 3.28125 6.980468 5.339843 14.339843 6.152343 21.960937h-150.929687c3.753906-34.746094 33.261719-61.886719 68.992187-61.886719h12.9375c16.589844 0 32.644532 5.945313 45.203126 16.738282 3.148437 2.703124 7.886718 2.34375 10.589843-.800782 2.699219-3.144531 2.34375-7.882812-.800781-10.585937-10.199219-8.765625-22.292969-14.882813-35.207031-17.996094l4.910156-24.484375c1.316406-6.558594.871094-13.375-1.285156-19.714844l-.46875-1.375c-2.089844-6.140625-5.78125-11.644531-10.675781-15.90625-.140626-.125-.289063-.242187-.4375-.355468l-147.355469-110.117188c.171875-1.550781.261719-3.125.261719-4.722656 0-7.816406-2.085938-15.152344-5.714844-21.496094l70.785156-67.996094c3.222656.84375 6.605469 1.292969 10.089844 1.292969 9.640625 0 18.75-3.425781 25.914062-9.5625l52.933594 62.785156c1.410156 1.671875 3.476562 2.648438 5.660156 2.667969h.078125c2.160157 0 4.214844-.925781 5.640625-2.550781l13.738282-15.625c8.574218 5.628906 18.535156 8.621093 28.882812 8.621093 1.152344 0 2.308594-.039062 3.46875-.113281 14.109375-.90625 27.015625-7.25 36.351562-17.867187 9.335938-10.617188 13.976563-24.230469 13.070313-38.339844-.746094-11.578125-5.160156-22.34375-12.582031-30.996094l13.738281-15.625c1.449219-1.648437 2.105469-3.851562 1.792969-6.023437-.3125-2.175781-1.558594-4.101563-3.414063-5.277344l-72.453125-45.894531c-2.738281-3.59375-5.84375-6.921875-9.242187-9.910156-13.675781-12.023438-31.222657-18.003907-49.390625-16.835938-8.855469.570312-17.34375 2.816406-25.113282 6.542969l-21.808593-21.421875c-2.957031-2.90625-7.707031-2.863282-10.617188.09375l-24.453125 24.890625c-1.394531 1.417969-2.167968 3.335937-2.148437 5.328125.015625 1.992187.824219 3.894531 2.246093 5.289062l22.804688 22.40625c-2.359375 6.035156-3.8125 12.328125-4.386719 18.675782-16.964843 4.058593-29.644531 18.945312-30.578125 36.722656l-91.4375 87.835937c-.378906.363281-.710937.757813-.996094 1.175781-17.253906 5.753907-29.726562 22.042969-29.726562 41.207032 0 23.949218 19.484375 43.433594 43.433594 43.433594 3.84375 0 7.570312-.507813 11.121094-1.449219l66.070312 49.359375c1.351562 1.007812 2.925781 1.496094 4.488281 1.496094 2.289063 0 4.546875-1.042969 6.019531-3.015626 2.484376-3.320312 1.800782-8.027343-1.519531-10.507812l-59.910156-44.757812c5.085937-3.875 9.289063-8.847657 12.265625-14.558594l142.761719 106.6875c2.804687 2.5 4.917969 5.695312 6.132812 9.253906l.46875 1.378906c1.304688 3.828125 1.570313 7.953125.777344 11.917969l-5.058594 25.226563c-1.636719-.09375-3.273437-.160157-4.917969-.160157h-12.9375c-.835937 0-1.664062.039063-2.492187.0625l3.554687-17.738281c1.691407-8.4375-1.285156-17.1875-7.773437-22.839844-.140625-.125-.285156-.242187-.4375-.355468l-45.25-33.804688c-3.320313-2.484375-8.023437-1.800781-10.503906 1.519531-2.484375 3.320313-1.804688 8.027344 1.519531 10.507813l44.988281 33.609375c2.308594 2.125 3.355469 5.320312 2.734375 8.40625l-4.535156 22.625c-37.824219 8.347656-66.21875 42.117187-66.21875 82.414062 0 4.148438 3.363281 7.507813 7.507812 7.507813h166.746094c4.148438 0 7.507813-3.359375 7.507813-7.507813 0-12.527343-2.683594-24.59375-7.972657-35.851562-1.761718-3.75-6.234374-5.363281-9.988281-3.601563zm-217.042969-252.335937c-5.382812-4.582031-11.886718-7.875-19.042968-9.398438l72.824218-69.957031c2.695313 6.285156 6.964844 11.738281 12.300782 15.875zm251.878907-36.679688c-6.6875 7.605469-15.933594 12.152344-26.039063 12.800781-7.546875.484376-14.917968-1.253906-21.332031-4.960937l49.078125-55.820313c10.699219 14.058594 10.398438 34.214844-1.707031 47.980469zm-106.238281-144.003906c1.164062-.074219 2.324218-.109375 3.480468-.109375 12.917969 0 25.242188 4.632812 35.03125 13.238281 2.941406 2.585938 5.597656 5.5 7.898438 8.652344.558594.765625 1.253906 1.414063 2.050781 1.921875l66.203125 41.9375-12.53125 14.253906c-.003906.003906-.007812.011719-.011719.015625-.003906.003907-.007812.007813-.011719.011719l-59.957031 68.191406c-.003906.003906-.007812.007813-.007812.011719-.003907.003906-.007813.007813-.007813.007813l-12.582031 14.308593-53.34375-63.269531c-.476563-.566406-1.035156-1.058594-1.65625-1.464844-2.191406-1.417968-4.292969-3.007812-6.25-4.730468-22.011719-19.355469-24.175781-53.011719-4.820313-75.027344 9.375-10.664063 22.34375-17.039063 36.515626-17.949219zm-66.984376.289063 13.929688-14.179688 13.921875 13.671875c-3.089844 2.476563-5.992187 5.222656-8.660156 8.253906-1.777344 2.023438-3.398438 4.132813-4.894531 6.296875zm2.910157 62.097656c2.152343 15.65625 9.695312 30.636718 22.464843 41.867187.484376.425781.976563.839844 1.476563 1.253907-4.277344 3.246093-9.511719 5.042968-15.019531 5.042968-13.734375 0-24.910156-11.175781-24.910156-24.910156 0-10.53125 6.613281-19.648438 15.988281-23.253906zm-98.601563 177.546875c-.878906.15625-1.734375.464843-2.519531.929687-2.699219.855469-5.570313 1.316406-8.550781 1.316406-15.671875 0-28.421875-12.75-28.421875-28.417968 0-15.671875 12.75-28.421875 28.421875-28.421875s28.417968 12.75 28.417968 28.421875c0 11.742187-7.160156 21.847656-17.347656 26.171875zm0 0" data-original="#000000" class="" style="fill:#000000" data-old_color="#3DD0F2"/><path d="m458.832031 458.535156h-42.386719v-81.9375c10.84375-3.238281 18.765626-13.296875 18.765626-25.175781 0-14.488281-11.785157-26.273437-26.273438-26.273437s-26.273438 11.785156-26.273438 26.273437c0 11.878906 7.925782 21.933594 18.769532 25.175781v81.9375h-42.386719c-4.148437 0-7.507813 3.359375-7.507813 7.503906v36.597657c0 4.148437 3.359376 7.507812 7.507813 7.507812h99.785156c4.148438 0 7.507813-3.359375 7.507813-7.507812v-36.597657c0-4.144531-3.359375-7.503906-7.507813-7.503906zm-61.152343-107.113281c0-6.210937 5.050781-11.261719 11.261718-11.261719 6.207032 0 11.257813 5.050782 11.257813 11.261719 0 6.207031-5.050781 11.257813-11.257813 11.257813-6.210937 0-11.261718-5.050782-11.261718-11.257813zm53.644531 143.710937h-84.769531v-21.585937h84.769531zm0 0" data-original="#000000" class="" style="fill:#000000" data-old_color="#3DD0F2"/></g> </svg>
