<?xml version="1.0"?>
<svg xmlns="http://www.w3.org/2000/svg" xmlns:xlink="http://www.w3.org/1999/xlink" version="1.1" id="Layer_1" x="0px" y="0px" viewBox="0 0 503.607 503.607" style="enable-background:new 0 0 503.607 503.607;" xml:space="preserve" width="512px" height="512px" class=""><g><g transform="translate(0 1)">
	<g>
		<path style="fill:#3DD0F2" d="M51.2,494.213H36.931c-6.715,0-11.751-5.036-11.751-11.751v-21.823h50.361l-13.43,26.859    C59.593,491.695,56.236,494.213,51.2,494.213" data-original="#FDCC00" class="" data-old_color="#3dd0f2"/>
		<path style="fill:#3DD0F2" d="M223.266,494.213h-14.269c-4.197,0-8.393-2.518-10.911-6.715l-13.43-26.859h50.361v21.823    C235.016,489.177,229.98,494.213,223.266,494.213" data-original="#FDCC00" class="" data-old_color="#3dd0f2"/>
		<path style="fill:#3DD0F2" d="M294.61,494.213h-14.269c-6.715,0-11.751-5.036-11.751-11.751v-21.823h50.361l-13.43,26.859    C303.003,491.695,299.646,494.213,294.61,494.213" data-original="#FDCC00" class="" data-old_color="#3dd0f2"/>
		<path style="fill:#3DD0F2" d="M466.675,494.213h-14.269c-4.197,0-8.393-2.518-10.911-6.715l-13.43-26.859h50.361v21.823    C478.426,489.177,473.39,494.213,466.675,494.213" data-original="#FDCC00" class="" data-old_color="#3dd0f2"/>
		<path style="fill:#3DD0F2" d="M461.639,460.639H251.803V24.18c0-9.233,7.554-16.787,16.787-16.787h193.049    c9.233,0,16.787,7.554,16.787,16.787v419.672C478.426,453.085,470.872,460.639,461.639,460.639" data-original="#FDCC00" class="" data-old_color="#3dd0f2"/>
	</g>
	<path style="fill:#3DD0F2" d="M478.426,7.393h-16.787c9.233,0,16.787,7.554,16.787,16.787v419.672   c0,9.233-7.554,16.787-16.787,16.787h16.787c9.233,0,16.787-7.554,16.787-16.787V24.18C495.213,14.948,487.659,7.393,478.426,7.393   " data-original="#FFA800" class="active-path" data-old_color="#3dd0f2"/>
	<path style="fill:#3DD0F2" d="M41.967,7.393h209.836v436.459c0,9.233-7.554,16.787-16.787,16.787H41.967   c-9.233,0-16.787-7.554-16.787-16.787V24.18C25.18,14.948,32.734,7.393,41.967,7.393" data-original="#FDCC00" class="" data-old_color="#3dd0f2"/>
	<path style="fill:#FFFFFF;" d="M25.18,460.639h16.787c-9.233,0-16.787-7.554-16.787-16.787V24.18   c0-9.233,7.554-16.787,16.787-16.787H25.18c-9.233,0-16.787,7.554-16.787,16.787v419.672   C8.393,453.085,15.948,460.639,25.18,460.639" data-original="#FFFFFF"/>
	<polygon style="fill:#3DD0F2" points="276.984,435.459 444.852,435.459 444.852,32.574 276.984,32.574  " data-original="#FFE100" class="" data-old_color="#3dd0f2"/>
	<polygon style="fill:#3DD0F2" points="444.852,435.459 470.033,435.459 470.033,32.574 444.852,32.574  " data-original="#FFA800" class="active-path" data-old_color="#3dd0f2"/>
	<polygon style="fill:#3DD0F2" points="33.574,435.459 201.443,435.459 201.443,32.574 33.574,32.574  " data-original="#FFE100" class="" data-old_color="#3dd0f2"/>
	<polygon style="fill:#3DD0F2" points="201.443,435.459 226.623,435.459 226.623,32.574 201.443,32.574  " data-original="#FFA800" class="active-path" data-old_color="#3dd0f2"/>
	<path d="M251.803,469.033H25.18c-14.269,0-25.18-10.911-25.18-25.18V141.689c0-5.036,3.357-8.393,8.393-8.393   s8.393,3.357,8.393,8.393v302.164c0,5.036,3.357,8.393,8.393,8.393H243.41V24.18c0-5.036-3.357-8.393-8.393-8.393H25.18   c-5.036,0-8.393,3.357-8.393,8.393v50.361c0,5.036-3.357,8.393-8.393,8.393S0,79.577,0,74.541V24.18C0,9.911,10.911-1,25.18-1   h209.836c14.269,0,25.18,10.911,25.18,25.18v436.459C260.197,465.675,256,469.033,251.803,469.033z" data-original="#000000" class="" style="fill:#000000"/>
	<path d="M16.787,108.115c0-5.036-3.357-8.393-8.393-8.393S0,103.079,0,108.115c0,5.036,3.357,8.393,8.393,8.393   S16.787,113.151,16.787,108.115" data-original="#000000" class="" style="fill:#000000"/>
	<path d="M226.623,443.852H33.574c-5.036,0-8.393-3.357-8.393-8.393V32.574c0-5.036,3.357-8.393,8.393-8.393h193.049   c5.036,0,8.393,3.357,8.393,8.393v402.885C235.016,440.495,230.82,443.852,226.623,443.852z M41.967,427.066h176.262V40.967H41.967   V427.066z" data-original="#000000" class="" style="fill:#000000"/>
	<path d="M470.033,443.852H276.984c-5.036,0-8.393-3.357-8.393-8.393V32.574c0-5.036,3.357-8.393,8.393-8.393h193.049   c5.036,0,8.393,3.357,8.393,8.393v402.885C478.426,440.495,474.229,443.852,470.033,443.852z M285.377,427.066h176.262V40.967   H285.377V427.066z" data-original="#000000" class="" style="fill:#000000"/>
	<path d="M478.426,469.033H251.803c-5.036,0-8.393-3.357-8.393-8.393V24.18C243.41,9.911,254.321-1,268.59-1h209.836   c14.269,0,25.18,10.911,25.18,25.18v419.672C503.607,458.121,491.856,469.033,478.426,469.033z M260.197,452.246h218.229   c5.036,0,8.393-3.357,8.393-8.393V24.18c0-5.036-3.357-8.393-8.393-8.393H268.59c-5.036,0-8.393,3.357-8.393,8.393V452.246z" data-original="#000000" class="" style="fill:#000000"/>
	<path d="M51.2,502.607H36.931c-10.911,0-20.144-9.233-20.144-20.144v-21.823c0-5.036,3.357-8.393,8.393-8.393h50.361   c2.518,0,5.875,1.679,7.554,4.197c1.679,2.518,1.679,5.875,0,8.393l-13.43,26.859C66.308,498.41,58.754,502.607,51.2,502.607z    M33.574,469.033v13.429c0,1.679,1.679,3.357,3.357,3.357H51.2c1.679,0,2.518-0.839,3.357-1.679l7.554-15.108H33.574z" data-original="#000000" class="" style="fill:#000000"/>
	<path d="M223.266,502.607h-14.269c-7.554,0-14.269-4.197-17.626-10.911l-13.43-26.859c-1.679-2.518-0.839-5.875,0-8.393   s3.357-4.197,6.715-4.197h50.361c5.036,0,8.393,3.357,8.393,8.393v21.823C243.41,493.374,234.177,502.607,223.266,502.607z    M198.085,469.033l7.554,15.108c0.839,0.839,1.679,1.679,3.357,1.679h14.269c1.679,0,3.357-1.679,3.357-3.357v-13.429H198.085z" data-original="#000000" class="" style="fill:#000000"/>
	<path d="M294.61,502.607h-14.269c-10.911,0-20.144-9.233-20.144-20.144v-21.823c0-5.036,3.357-8.393,8.393-8.393h50.361   c2.518,0,5.875,1.679,7.554,4.197s1.679,5.875,0,8.393l-13.43,26.859C309.718,498.41,302.164,502.607,294.61,502.607z    M276.984,469.033v13.429c0,1.679,1.679,3.357,3.357,3.357h14.269c1.679,0,2.518-0.839,3.357-1.679l7.554-15.108H276.984z" data-original="#000000" class="" style="fill:#000000"/>
	<path d="M466.675,502.607h-14.269c-7.554,0-14.269-4.197-17.626-10.911l-13.43-26.859c-1.679-2.518-0.839-5.875,0-8.393   c1.679-2.518,4.197-4.197,7.554-4.197h50.361c5.036,0,8.393,3.357,8.393,8.393v21.823   C486.82,493.374,477.587,502.607,466.675,502.607z M441.495,469.033l7.554,15.108c0.839,0.839,1.679,1.679,3.357,1.679h14.269   c1.679,0,3.357-1.679,3.357-3.357v-13.429H441.495z" data-original="#000000" class="" style="fill:#000000"/>
	<path d="M184.656,301.164c-5.036,0-8.393-3.357-8.393-8.393v-33.574c0-5.036,3.357-8.393,8.393-8.393s8.393,3.357,8.393,8.393   v33.574C193.049,297.807,188.852,301.164,184.656,301.164z" data-original="#000000" class="" style="fill:#000000"/>
	<path d="M201.443,66.148h-16.787c-5.036,0-8.393-3.357-8.393-8.393s3.357-8.393,8.393-8.393h16.787   c5.036,0,8.393,3.357,8.393,8.393S205.639,66.148,201.443,66.148z" data-original="#000000" class="" style="fill:#000000"/>
	<path d="M201.443,91.328h-8.393c-5.036,0-8.393-3.357-8.393-8.393c0-5.036,3.357-8.393,8.393-8.393h8.393   c5.036,0,8.393,3.357,8.393,8.393C209.836,87.97,205.639,91.328,201.443,91.328z" data-original="#000000" class="" style="fill:#000000"/>
	<path d="M75.541,418.672H58.754c-5.036,0-8.393-3.357-8.393-8.393c0-5.036,3.357-8.393,8.393-8.393h16.787   c5.036,0,8.393,3.357,8.393,8.393C83.934,415.315,79.738,418.672,75.541,418.672z" data-original="#000000" class="" style="fill:#000000"/>
	<path d="M67.148,393.492h-8.393c-5.036,0-8.393-3.357-8.393-8.393c0-5.036,3.357-8.393,8.393-8.393h8.393   c5.036,0,8.393,3.357,8.393,8.393C75.541,390.134,71.344,393.492,67.148,393.492z" data-original="#000000" class="" style="fill:#000000"/>
	<path d="M176.262,124.902H83.934c-5.036,0-8.393-3.357-8.393-8.393c0-5.036,3.357-8.393,8.393-8.393h92.328   c5.036,0,8.393,3.357,8.393,8.393C184.656,121.544,180.459,124.902,176.262,124.902z" data-original="#000000" class="" style="fill:#000000"/>
	<path d="M176.262,158.475H83.934c-5.036,0-8.393-3.357-8.393-8.393s3.357-8.393,8.393-8.393h92.328   c5.036,0,8.393,3.357,8.393,8.393S180.459,158.475,176.262,158.475z" data-original="#000000" class="" style="fill:#000000"/>
	<path d="M176.262,192.049H83.934c-5.036,0-8.393-3.357-8.393-8.393s3.357-8.393,8.393-8.393h92.328   c5.036,0,8.393,3.357,8.393,8.393S180.459,192.049,176.262,192.049z" data-original="#000000" class="" style="fill:#000000"/>
	<path d="M428.066,301.164c-5.036,0-8.393-3.357-8.393-8.393v-33.574c0-5.036,3.357-8.393,8.393-8.393s8.393,3.357,8.393,8.393   v33.574C436.459,297.807,432.262,301.164,428.066,301.164z" data-original="#000000" class="" style="fill:#000000"/>
	<path d="M444.852,66.148h-16.787c-5.036,0-8.393-3.357-8.393-8.393s3.357-8.393,8.393-8.393h16.787   c5.036,0,8.393,3.357,8.393,8.393S449.049,66.148,444.852,66.148z" data-original="#000000" class="" style="fill:#000000"/>
	<path d="M444.852,91.328h-8.393c-5.036,0-8.393-3.357-8.393-8.393c0-5.036,3.357-8.393,8.393-8.393h8.393   c5.036,0,8.393,3.357,8.393,8.393C453.246,87.97,449.049,91.328,444.852,91.328z" data-original="#000000" class="" style="fill:#000000"/>
	<path d="M318.951,418.672h-16.787c-5.036,0-8.393-3.357-8.393-8.393c0-5.036,3.357-8.393,8.393-8.393h16.787   c5.036,0,8.393,3.357,8.393,8.393C327.344,415.315,323.148,418.672,318.951,418.672z" data-original="#000000" class="" style="fill:#000000"/>
	<path d="M310.557,393.492h-8.393c-5.036,0-8.393-3.357-8.393-8.393c0-5.036,3.357-8.393,8.393-8.393h8.393   c5.036,0,8.393,3.357,8.393,8.393C318.951,390.134,314.754,393.492,310.557,393.492z" data-original="#000000" class="" style="fill:#000000"/>
	<path d="M419.672,124.902h-92.328c-5.036,0-8.393-3.357-8.393-8.393c0-5.036,3.357-8.393,8.393-8.393h92.328   c5.036,0,8.393,3.357,8.393,8.393C428.066,121.544,423.869,124.902,419.672,124.902z" data-original="#000000" class="" style="fill:#000000"/>
	<path d="M419.672,158.475h-92.328c-5.036,0-8.393-3.357-8.393-8.393s3.357-8.393,8.393-8.393h92.328   c5.036,0,8.393,3.357,8.393,8.393S423.869,158.475,419.672,158.475z" data-original="#000000" class="" style="fill:#000000"/>
	<path d="M419.672,192.049h-92.328c-5.036,0-8.393-3.357-8.393-8.393s3.357-8.393,8.393-8.393h92.328   c5.036,0,8.393,3.357,8.393,8.393S423.869,192.049,419.672,192.049z" data-original="#000000" class="" style="fill:#000000"/>
</g></g> </svg>
