<?xml version="1.0"?>
<svg xmlns="http://www.w3.org/2000/svg" xmlns:xlink="http://www.w3.org/1999/xlink" version="1.1" id="Layer_1" x="0px" y="0px" viewBox="0 0 512 512" style="enable-background:new 0 0 512 512;" xml:space="preserve" width="512px" height="512px" class=""><g><path style="fill:#3DD0F2" d="M433.369,512H78.631c-17.662,0-31.98-14.318-31.98-31.98V31.981C46.651,14.318,60.969,0,78.631,0  h354.739c17.662,0,31.98,14.318,31.98,31.98v448.039C465.35,497.681,451.032,512,433.369,512z" data-original="#F2BA43" class="" data-old_color="#3dd0f2"/><g>
	<path style="fill:#050606" d="M433.369,0h-18.055c17.662,0,31.98,14.318,31.98,31.98v448.038c0,17.662-14.318,31.981-31.98,31.981   h18.055c17.662,0,31.98-14.318,31.98-31.981V31.98C465.35,14.318,451.032,0,433.369,0z" data-original="#EDA21D" class="" data-old_color="#3DD0F2"/>
	<circle style="fill:#050606" cx="81.178" cy="36.243" r="9.028" data-original="#EDA21D" class="" data-old_color="#3DD0F2"/>
	<circle style="fill:#050606" cx="428.948" cy="37.152" r="9.028" data-original="#EDA21D" class="" data-old_color="#3DD0F2"/>
	<circle style="fill:#050606" cx="110.776" cy="31.133" r="9.028" data-original="#EDA21D" class="" data-old_color="#3DD0F2"/>
	<circle style="fill:#050606" cx="147.092" cy="31.133" r="9.028" data-original="#EDA21D" class="" data-old_color="#3DD0F2"/>
	<circle style="fill:#050606" cx="183.395" cy="31.133" r="9.028" data-original="#EDA21D" class="" data-old_color="#3DD0F2"/>
	<circle style="fill:#050606" cx="219.698" cy="31.133" r="9.028" data-original="#EDA21D" class="" data-old_color="#3DD0F2"/>
	<circle style="fill:#050606" cx="256.002" cy="31.133" r="9.028" data-original="#EDA21D" class="" data-old_color="#3DD0F2"/>
	<circle style="fill:#050606" cx="292.305" cy="31.133" r="9.028" data-original="#EDA21D" class="" data-old_color="#3DD0F2"/>
	<circle style="fill:#050606" cx="328.608" cy="31.133" r="9.028" data-original="#EDA21D" class="" data-old_color="#3DD0F2"/>
	<circle style="fill:#050606" cx="364.912" cy="31.133" r="9.028" data-original="#EDA21D" class="" data-old_color="#3DD0F2"/>
	<circle style="fill:#050606" cx="401.215" cy="31.133" r="9.028" data-original="#EDA21D" class="" data-old_color="#3DD0F2"/>
	<circle style="fill:#050606" cx="110.776" cy="481.994" r="9.028" data-original="#EDA21D" class="" data-old_color="#3DD0F2"/>
	<circle style="fill:#050606" cx="147.092" cy="481.994" r="9.028" data-original="#EDA21D" class="" data-old_color="#3DD0F2"/>
	<circle style="fill:#050606" cx="183.395" cy="481.994" r="9.028" data-original="#EDA21D" class="" data-old_color="#3DD0F2"/>
	<circle style="fill:#050606" cx="219.698" cy="481.994" r="9.028" data-original="#EDA21D" class="" data-old_color="#3DD0F2"/>
	<circle style="fill:#050606" cx="256.002" cy="481.994" r="9.028" data-original="#EDA21D" class="" data-old_color="#3DD0F2"/>
	<circle style="fill:#050606" cx="292.305" cy="481.994" r="9.028" data-original="#EDA21D" class="" data-old_color="#3DD0F2"/>
	<circle style="fill:#050606" cx="328.608" cy="481.994" r="9.028" data-original="#EDA21D" class="" data-old_color="#3DD0F2"/>
	<circle style="fill:#050606" cx="364.912" cy="481.994" r="9.028" data-original="#EDA21D" class="" data-old_color="#3DD0F2"/>
	<circle style="fill:#050606" cx="401.215" cy="481.994" r="9.028" data-original="#EDA21D" class="" data-old_color="#3DD0F2"/>
	<circle style="fill:#050606" cx="428.106" cy="477.577" r="9.028" data-original="#EDA21D" class="" data-old_color="#3DD0F2"/>
	<circle style="fill:#050606" cx="78.614" cy="104.565" r="9.028" data-original="#EDA21D" class="" data-old_color="#3DD0F2"/>
	<circle style="fill:#050606" cx="78.614" cy="142.734" r="9.028" data-original="#EDA21D" class="" data-old_color="#3DD0F2"/>
	<circle style="fill:#050606" cx="78.614" cy="180.903" r="9.028" data-original="#EDA21D" class="" data-old_color="#3DD0F2"/>
	<circle style="fill:#050606" cx="78.614" cy="219.072" r="9.028" data-original="#EDA21D" class="" data-old_color="#3DD0F2"/>
	<circle style="fill:#050606" cx="78.614" cy="257.241" r="9.028" data-original="#EDA21D" class="" data-old_color="#3DD0F2"/>
	<circle style="fill:#050606" cx="78.614" cy="295.41" r="9.028" data-original="#EDA21D" class="" data-old_color="#3DD0F2"/>
	<circle style="fill:#050606" cx="78.614" cy="333.579" r="9.028" data-original="#EDA21D" class="" data-old_color="#3DD0F2"/>
	<circle style="fill:#050606" cx="78.614" cy="371.76" r="9.028" data-original="#EDA21D" class="" data-old_color="#3DD0F2"/>
	<circle style="fill:#050606" cx="78.614" cy="409.929" r="9.028" data-original="#EDA21D" class="" data-old_color="#3DD0F2"/>
	<circle style="fill:#050606" cx="78.614" cy="448.098" r="9.028" data-original="#EDA21D" class="" data-old_color="#3DD0F2"/>
	<circle style="fill:#050606" cx="84.234" cy="477.18" r="9.028" data-original="#EDA21D" class="" data-old_color="#3DD0F2"/>
	<circle style="fill:#050606" cx="78.614" cy="66.396" r="9.028" data-original="#EDA21D" class="" data-old_color="#3DD0F2"/>
	<circle style="fill:#050606" cx="432.03" cy="104.565" r="9.028" data-original="#EDA21D" class="" data-old_color="#3DD0F2"/>
	<circle style="fill:#050606" cx="432.03" cy="142.734" r="9.028" data-original="#EDA21D" class="" data-old_color="#3DD0F2"/>
	<circle style="fill:#050606" cx="432.03" cy="180.903" r="9.028" data-original="#EDA21D" class="" data-old_color="#3DD0F2"/>
	<circle style="fill:#050606" cx="432.03" cy="219.072" r="9.028" data-original="#EDA21D" class="" data-old_color="#3DD0F2"/>
	<circle style="fill:#050606" cx="432.03" cy="257.241" r="9.028" data-original="#EDA21D" class="" data-old_color="#3DD0F2"/>
	<circle style="fill:#050606" cx="432.03" cy="295.41" r="9.028" data-original="#EDA21D" class="" data-old_color="#3DD0F2"/>
	<circle style="fill:#050606" cx="432.03" cy="333.579" r="9.028" data-original="#EDA21D" class="" data-old_color="#3DD0F2"/>
	<circle style="fill:#050606" cx="432.03" cy="371.76" r="9.028" data-original="#EDA21D" class="" data-old_color="#3DD0F2"/>
	<circle style="fill:#050606" cx="432.03" cy="409.929" r="9.028" data-original="#EDA21D" class="" data-old_color="#3DD0F2"/>
	<circle style="fill:#050606" cx="432.03" cy="448.098" r="9.028" data-original="#EDA21D" class="" data-old_color="#3DD0F2"/>
	<circle style="fill:#050606" cx="432.03" cy="66.396" r="9.028" data-original="#EDA21D" class="" data-old_color="#3DD0F2"/>
</g><path style="fill:#3DD0F2" d="M394.771,450.044H117.229c-3.561,0-6.447-2.886-6.447-6.447V68.403c0-3.561,2.886-6.447,6.447-6.447  h277.541c3.561,0,6.447,2.886,6.447,6.447v375.192C401.219,447.156,398.332,450.044,394.771,450.044z" data-original="#4A80CE" class="active-path" data-old_color="#3dd0f2"/><path style="fill:#EDF1F2" d="M374.054,425.948H137.947c-3.074,0-5.567-2.493-5.567-5.567V91.619c0-3.074,2.493-5.567,5.567-5.567  h236.107c3.074,0,5.567,2.493,5.567,5.567v328.762C379.621,423.455,377.128,425.948,374.054,425.948z" data-original="#5A8EE8" class="" data-old_color="#3DD0F2"/><g>
	<polygon style="fill:#EEF3F4" points="211.503,425.948 379.621,171.839 379.621,103.345 166.084,425.948  " data-original="#7EB6F3" class="" data-old_color="#3DD0F2"/>
	<polygon style="fill:#EEF3F4" points="247.555,425.948 379.621,232.05 379.621,198.302 224.652,425.948  " data-original="#7EB6F3" class="" data-old_color="#3DD0F2"/>
</g></g> </svg>
