<?xml version="1.0"?>
<svg xmlns="http://www.w3.org/2000/svg" height="512px" viewBox="0 0 512 512.15793" width="512px" class=""><g><g fill="#e91e63"><path d="m503.652344 136.585938c0 9.425781-7.640625 17.066406-17.066406 17.066406-9.425782 0-17.066407-7.640625-17.066407-17.066406 0-9.425782 7.640625-17.066407 17.066407-17.066407 9.425781 0 17.066406 7.640625 17.066406 17.066407zm0 0" data-original="#000000" class="" style="fill:#000000" data-old_color="#3DD0F2"/><path d="m426.851562 136.585938c0 9.425781-7.640624 17.066406-17.066406 17.066406-9.425781 0-17.066406-7.640625-17.066406-17.066406 0-9.425782 7.640625-17.066407 17.066406-17.066407 9.425782 0 17.066406 7.640625 17.066406 17.066407zm0 0" data-original="#000000" class="" style="fill:#000000" data-old_color="#3DD0F2"/><path d="m42.851562 136.585938c0 9.425781-7.640624 17.066406-17.066406 17.066406-9.425781 0-17.066406-7.640625-17.066406-17.066406 0-9.425782 7.640625-17.066407 17.066406-17.066407 9.425782 0 17.066406 7.640625 17.066406 17.066407zm0 0" data-original="#000000" class="" style="fill:#000000" data-old_color="#3DD0F2"/><path d="m119.652344 136.585938c0 9.425781-7.640625 17.066406-17.066406 17.066406-9.425782 0-17.066407-7.640625-17.066407-17.066406 0-9.425782 7.640625-17.066407 17.066407-17.066407 9.425781 0 17.066406 7.640625 17.066406 17.066407zm0 0" data-original="#000000" class="" style="fill:#000000" data-old_color="#3DD0F2"/><path d="m332.984375 486.453125c0 9.425781-7.640625 17.066406-17.066406 17.066406s-17.066407-7.640625-17.066407-17.066406 7.640626-17.066406 17.066407-17.066406 17.066406 7.640625 17.066406 17.066406zm0 0" data-original="#000000" class="" style="fill:#000000" data-old_color="#3DD0F2"/><path d="m332.984375 409.652344c0 9.425781-7.640625 17.066406-17.066406 17.066406s-17.066407-7.640625-17.066407-17.066406c0-9.425782 7.640626-17.066406 17.066407-17.066406s17.066406 7.640624 17.066406 17.066406zm0 0" data-original="#000000" class="" style="fill:#000000" data-old_color="#3DD0F2"/><path d="m213.519531 486.453125c0 9.425781-7.640625 17.066406-17.066406 17.066406s-17.066406-7.640625-17.066406-17.066406 7.640625-17.066406 17.066406-17.066406 17.066406 7.640625 17.066406 17.066406zm0 0" data-original="#000000" class="" style="fill:#000000" data-old_color="#3DD0F2"/><path d="m213.519531 409.652344c0 9.425781-7.640625 17.066406-17.066406 17.066406s-17.066406-7.640625-17.066406-17.066406c0-9.425782 7.640625-17.066406 17.066406-17.066406s17.066406 7.640624 17.066406 17.066406zm0 0" data-original="#000000" class="" style="fill:#000000" data-old_color="#3DD0F2"/></g><path d="m298.851562 51.25c0 23.566406-19.101562 42.667969-42.667968 42.667969-4.332032-.011719-8.644532-.644531-12.796875-1.875-17.785157-5.632813-29.871094-22.136719-29.871094-40.792969 0-18.652344 12.085937-35.15625 29.871094-40.789062 4.152343-1.230469 8.464843-1.863282 12.796875-1.875 11.316406 0 22.167968 4.496093 30.171875 12.496093 8 8 12.496093 18.855469 12.496093 30.167969zm0 0" fill="#ad1457" data-original="#AD1457" class="active-path" style="fill:#3DD0F2" data-old_color="#3dd0f2"/><path d="m273.25 51.25c0-22.527344-13.371094-40.789062-29.863281-40.789062-16.496094 0-29.867188 18.261718-29.867188 40.789062s13.371094 40.792969 29.867188 40.792969c16.492187 0 29.863281-18.265625 29.863281-40.792969zm0 0" fill="#e91e63" data-original="#E91E63" class="" style="fill:#3DD0F2" data-old_color="#3dd0f2"/><path d="m213.519531 332.851562c0 9.425782-7.640625 17.066407-17.066406 17.066407s-17.066406-7.640625-17.066406-17.066407c0-9.425781 7.640625-17.066406 17.066406-17.066406s17.066406 7.640625 17.066406 17.066406zm0 0" fill="#e91e63" data-original="#E91E63" class="" style="fill:#3DD0F2" data-old_color="#3dd0f2"/><path d="m332.984375 332.851562c0 9.425782-7.640625 17.066407-17.066406 17.066407s-17.066407-7.640625-17.066407-17.066407c0-9.425781 7.640626-17.066406 17.066407-17.066406s17.066406 7.640625 17.066406 17.066406zm0 0" fill="#e91e63" data-original="#E91E63" class="" style="fill:#3DD0F2" data-old_color="#3dd0f2"/><path d="m213.519531 136.585938c0 9.425781-7.640625 17.066406-17.066406 17.066406s-17.066406-7.640625-17.066406-17.066406c0-9.425782 7.640625-17.066407 17.066406-17.066407s17.066406 7.640625 17.066406 17.066407zm0 0" fill="#e91e63" data-original="#E91E63" class="" style="fill:#3DD0F2" data-old_color="#3dd0f2"/><path d="m332.984375 136.585938c0 9.425781-7.640625 17.066406-17.066406 17.066406s-17.066407-7.640625-17.066407-17.066406c0-9.425782 7.640626-17.066407 17.066407-17.066407s17.066406 7.640625 17.066406 17.066407zm0 0" fill="#e91e63" data-original="#E91E63" class="" style="fill:#3DD0F2" data-old_color="#3dd0f2"/><path d="m273.25 264.585938c0 9.425781-7.640625 17.066406-17.066406 17.066406-9.425782 0-17.066406-7.640625-17.066406-17.066406 0-9.425782 7.640624-17.066407 17.066406-17.066407 9.425781 0 17.066406 7.640625 17.066406 17.066407zm0 0" fill="#e91e63" data-original="#E91E63" class="" style="fill:#3DD0F2" data-old_color="#3dd0f2"/><path d="m273.25 187.785156c0 9.425782-7.640625 17.066406-17.066406 17.066406-9.425782 0-17.066406-7.640624-17.066406-17.066406 0-9.425781 7.640624-17.066406 17.066406-17.066406 9.425781 0 17.066406 7.640625 17.066406 17.066406zm0 0" fill="#e91e63" data-original="#E91E63" class="" style="fill:#3DD0F2" data-old_color="#3dd0f2"/><path d="m486.585938 110.984375c-10.8125.046875-20.425782 6.875-24.03125 17.066406h-28.738282c-3.5625-10.222656-13.203125-17.074219-24.03125-17.074219s-20.46875 6.851563-24.03125 17.074219h-45.804687c-3.5625-10.222656-13.203125-17.074219-24.03125-17.074219s-20.46875 6.851563-24.03125 17.074219h-27.167969v-26.367187c26.246094-4.4375 44.710938-28.242188 42.488281-54.765625-2.226562-26.523438-24.40625-46.917969-51.023437-46.917969-26.617188 0-48.792969 20.394531-51.019532 46.917969-2.226562 26.523437 16.242188 50.328125 42.488282 54.765625v26.367187h-27.171875c-3.5625-10.222656-13.203125-17.074219-24.027344-17.074219-10.828125 0-20.46875 6.851563-24.03125 17.074219h-45.808594c-3.558593-10.222656-13.203125-17.074219-24.027343-17.074219-10.828126 0-20.46875 6.851563-24.03125 17.074219h-28.738282c-4.15625-11.753906-16.179687-18.804687-28.464844-16.695312-12.289062 2.105469-21.273437 12.761719-21.273437 25.230469s8.984375 23.121093 21.273437 25.230468c12.285157 2.109375 24.308594-4.941406 28.464844-16.699218h28.738282c3.5625 10.226562 13.203124 17.074218 24.03125 17.074218 10.824218 0 20.46875-6.847656 24.027343-17.074218h45.808594c3.5625 10.226562 13.203125 17.074218 24.03125 17.074218 10.824219 0 20.464844-6.847656 24.027344-17.074218h27.171875v18.636718c-10.226563 3.5625-17.074219 13.203125-17.074219 24.03125s6.847656 20.46875 17.074219 24.03125v28.738282c-10.191406 3.605468-17.023438 13.21875-17.066406 24.03125.035156 4.378906 1.210937 8.671874 3.414062 12.457031l-28.085938 32.0625c-3.003906-1.21875-6.21875-1.847657-9.460937-1.855469-12.457031-.023438-23.109375 8.941406-25.222656 21.214844-2.109375 12.273437 4.941406 24.28125 16.6875 28.417968v28.738282c-10.222657 3.5625-17.074219 13.203125-17.074219 24.03125s6.851562 20.46875 17.074219 24.03125v28.738281c-11.753907 4.15625-18.804688 16.175781-16.699219 28.464844 2.109375 12.289062 12.765625 21.269531 25.234375 21.269531 12.464844 0 23.121094-8.980469 25.230469-21.269531 2.109375-12.289063-4.945313-24.308594-16.699219-28.464844v-28.738281c10.226563-3.5625 17.074219-13.203125 17.074219-24.03125s-6.847656-20.46875-17.074219-24.03125v-28.738282c10.191406-3.605468 17.023437-13.222656 17.066406-24.03125-.035156-4.378906-1.210937-8.671874-3.414062-12.457031l28.160156-32.0625c6.046875 2.46875 12.816406 2.46875 18.859375 0l28.074219 32.0625c-2.199219 3.785157-3.375 8.078125-3.414063 12.457031.046875 10.808594 6.875 20.425782 17.070313 24.03125v28.738282c-10.226563 3.5625-17.078125 13.203125-17.078125 24.03125s6.851562 20.46875 17.078125 24.03125v28.738281c-11.757813 4.15625-18.808594 16.175781-16.699219 28.464844 2.109375 12.289062 12.761719 21.269531 25.230469 21.269531s23.125-8.980469 25.230469-21.269531c2.109374-12.289063-4.941407-24.308594-16.695313-28.464844v-28.738281c10.222656-3.5625 17.074219-13.203125 17.074219-24.03125s-6.851563-20.46875-17.074219-24.03125v-28.738282c8.828125-2.988281 15.328125-10.546874 16.957031-19.722656 1.632813-9.179687-1.871094-18.515625-9.132812-24.355468-7.261719-5.84375-17.128906-7.265626-25.746094-3.710938l-28.160156-32.050781c2.199218-3.785157 3.375-8.078125 3.414062-12.457031-.046875-10.8125-6.875-20.425782-17.066406-24.03125v-28.738282c10.222656-3.5625 17.074219-13.203125 17.074219-24.03125s-6.851563-20.46875-17.074219-24.03125v-18.636718h27.167969c3.5625 10.226562 13.203125 17.074218 24.03125 17.074218s20.46875-6.847656 24.03125-17.074218h45.804687c3.5625 10.226562 13.203125 17.074218 24.03125 17.074218s20.46875-6.847656 24.03125-17.074218h28.738282c4.359374 12.242187 17.214843 19.261718 29.871093 16.316406 12.65625-2.945313 21.085938-14.921875 19.59375-27.832032-1.496093-12.90625-12.4375-22.640624-25.433593-22.617187zm-264.535157-59.734375c0-18.847656 15.28125-34.132812 34.132813-34.132812 18.851562 0 34.132812 15.285156 34.132812 34.132812 0 18.851562-15.28125 34.136719-34.132812 34.136719-18.851563 0-34.132813-15.285157-34.132813-34.136719zm-196.265625 93.867188c-4.714844 0-8.535156-3.820313-8.535156-8.53125 0-4.714844 3.820312-8.535157 8.535156-8.535157 4.710938 0 8.53125 3.820313 8.53125 8.535157 0 4.710937-3.820312 8.53125-8.53125 8.53125zm76.800782 0c-4.714844 0-8.535157-3.820313-8.535157-8.53125 0-4.714844 3.820313-8.535157 8.535157-8.535157 4.710937 0 8.53125 3.820313 8.53125 8.535157 0 4.710937-3.820313 8.53125-8.53125 8.53125zm93.867187 0c-4.714844 0-8.535156-3.820313-8.535156-8.53125 0-4.714844 3.820312-8.535157 8.535156-8.535157 4.710937 0 8.53125 3.820313 8.53125 8.535157 0 4.710937-3.820313 8.53125-8.53125 8.53125zm0 349.867187c-4.714844 0-8.535156-3.820313-8.535156-8.53125 0-4.714844 3.820312-8.535156 8.535156-8.535156 4.710937 0 8.53125 3.820312 8.53125 8.535156 0 4.710937-3.820313 8.53125-8.53125 8.53125zm0-76.800781c-4.714844 0-8.535156-3.820313-8.535156-8.53125 0-4.714844 3.820312-8.535156 8.535156-8.535156 4.710937 0 8.53125 3.820312 8.53125 8.535156 0 4.710937-3.820313 8.53125-8.53125 8.53125zm0-76.796875c-4.714844 0-8.535156-3.820313-8.535156-8.535157 0-4.710937 3.820312-8.53125 8.535156-8.53125 4.710937 0 8.53125 3.820313 8.53125 8.53125 0 4.714844-3.820313 8.535157-8.53125 8.535157zm51.199219-76.800781c0-4.714844 3.820312-8.535157 8.53125-8.535157 4.714844 0 8.535156 3.820313 8.535156 8.535157 0 4.710937-3.820312 8.53125-8.535156 8.53125-4.710938 0-8.53125-3.820313-8.53125-8.53125zm68.265625 230.398437c-4.710938 0-8.53125-3.820313-8.53125-8.53125 0-4.714844 3.820312-8.535156 8.53125-8.535156 4.714843 0 8.535156 3.820312 8.535156 8.535156 0 4.710937-3.820313 8.53125-8.535156 8.53125zm0-76.800781c-4.710938 0-8.53125-3.820313-8.53125-8.53125 0-4.714844 3.820312-8.535156 8.53125-8.535156 4.714843 0 8.535156 3.820312 8.535156 8.535156 0 4.710937-3.820313 8.53125-8.535156 8.53125zm8.535156-85.332032c0 4.714844-3.820313 8.535157-8.535156 8.535157-4.710938 0-8.53125-3.820313-8.53125-8.535157 0-4.710937 3.820312-8.53125 8.53125-8.53125 4.714843 0 8.535156 3.820313 8.535156 8.53125zm-68.269531-136.53125c-4.710938 0-8.53125-3.824218-8.53125-8.535156 0-4.710937 3.820312-8.535156 8.53125-8.535156 4.714844 0 8.535156 3.824219 8.535156 8.535156 0 4.710938-3.820312 8.535156-8.535156 8.535156zm59.734375-51.203124c-4.710938 0-8.53125-3.820313-8.53125-8.53125 0-4.714844 3.820312-8.535157 8.53125-8.535157 4.714843 0 8.535156 3.820313 8.535156 8.535157 0 4.710937-3.820313 8.53125-8.535156 8.53125zm93.867187 0c-4.714844 0-8.535156-3.820313-8.535156-8.53125 0-4.714844 3.820312-8.535157 8.535156-8.535157 4.710938 0 8.53125 3.820313 8.53125 8.535157 0 4.710937-3.820312 8.53125-8.53125 8.53125zm76.800782 0c-4.714844 0-8.535157-3.820313-8.535157-8.53125 0-4.714844 3.820313-8.535157 8.535157-8.535157 4.710937 0 8.53125 3.820313 8.53125 8.535157 0 4.710937-3.820313 8.53125-8.53125 8.53125zm0 0" data-original="#000000" class="" style="fill:#000000" data-old_color="#3DD0F2"/><path d="m62.28125 287.121094c-3.152344 3.503906-2.867188 8.894531.632812 12.050781 14.386719 12.945313 22.605469 31.390625 22.605469 50.746094s-8.21875 37.800781-22.605469 50.75c-2.335937 2.019531-3.398437 5.144531-2.773437 8.171875.621094 3.023437 2.828125 5.476562 5.773437 6.414062 2.945313.933594 6.164063.203125 8.417969-1.90625 17.980469-16.183594 28.246094-39.238281 28.246094-63.429687 0-24.191407-10.265625-47.246094-28.246094-63.425781-3.503906-3.152344-8.898437-2.871094-12.050781.628906zm0 0" data-original="#000000" class="" style="fill:#000000" data-old_color="#3DD0F2"/><path d="m85.144531 261.769531c-3.15625 3.5-2.875 8.894531.621094 12.046875 21.570313 19.421875 33.882813 47.078125 33.882813 76.101563 0 29.023437-12.3125 56.683593-33.882813 76.101562-2.445313 1.988281-3.597656 5.167969-2.988281 8.261719.605468 3.097656 2.871094 5.605469 5.890625 6.523438 3.019531.914062 6.296875.09375 8.523437-2.140626 25.15625-22.652343 39.519532-54.917968 39.519532-88.769531 0-33.855469-14.363282-66.117187-39.519532-88.773437-3.507812-3.148438-8.898437-2.859375-12.046875.648437zm0 0" data-original="#000000" class="" style="fill:#000000" data-old_color="#3DD0F2"/><path d="m39.4375 387.371094c1.515625 1.683594 3.640625 2.695312 5.902344 2.8125 2.261718.113281 4.476562-.671875 6.15625-2.1875 10.800781-9.710938 16.96875-23.554688 16.96875-38.078125 0-14.523438-6.167969-28.363281-16.96875-38.074219-3.5-3.160156-8.894532-2.882812-12.054688.617188-3.15625 3.5-2.878906 8.894531.621094 12.054687 7.214844 6.472656 11.335938 15.710937 11.335938 25.402344 0 9.695312-4.121094 18.929687-11.335938 25.40625-3.5 3.152343-3.777344 8.546875-.625 12.046875zm0 0" data-original="#000000" class="" style="fill:#000000" data-old_color="#3DD0F2"/><path d="m438.039062 286.492188c-17.980468 16.179687-28.25 39.234374-28.25 63.425781 0 24.191406 10.269532 47.246093 28.25 63.429687 2.253907 2.109375 5.472657 2.839844 8.417969 1.90625 2.941407-.9375 5.152344-3.390625 5.773438-6.414062.625-3.027344-.4375-6.152344-2.773438-8.171875-14.390625-12.949219-22.605469-31.394531-22.605469-50.75s8.214844-37.800781 22.605469-50.746094c3.390625-3.179687 3.617188-8.484375.507813-11.9375s-8.410156-3.785156-11.925782-.742187zm0 0" data-original="#000000" class="" style="fill:#000000" data-old_color="#3DD0F2"/><path d="m415.179688 261.171875c-25.15625 22.65625-39.519532 54.917969-39.519532 88.773437 0 33.851563 14.363282 66.117188 39.519532 88.769532 3.511718 3.035156 8.804687 2.703125 11.914062-.742188 3.105469-3.449218 2.890625-8.746094-.488281-11.929687-21.570313-19.417969-33.886719-47.078125-33.886719-76.097657 0-29.023437 12.316406-56.683593 33.886719-76.101562 3.378906-3.179688 3.59375-8.480469.488281-11.925781-3.109375-3.449219-8.402344-3.777344-11.914062-.746094zm0 0" data-original="#000000" class="" style="fill:#000000" data-old_color="#3DD0F2"/><path d="m472.933594 312.464844c-1.519532-1.679688-3.640625-2.691406-5.902344-2.808594s-4.476562.667969-6.15625 2.1875c-10.800781 9.710938-16.972656 23.550781-16.972656 38.074219 0 14.523437 6.171875 28.367187 16.972656 38.078125 3.5 3.15625 8.894531 2.878906 12.050781-.621094 3.160157-3.5 2.882813-8.894531-.617187-12.050781-7.214844-6.476563-11.335938-15.710938-11.335938-25.40625 0-9.691407 4.121094-18.929688 11.335938-25.402344 3.5-3.15625 3.777344-8.550781.625-12.050781zm0 0" data-original="#000000" class="" style="fill:#000000" data-old_color="#3DD0F2"/></g> </svg>
