<?xml version="1.0"?>
<svg xmlns="http://www.w3.org/2000/svg" height="512px" viewBox="0 0 490.67733 490" width="512px" class=""><g><path d="m341.339844 245.671875c0 53.019531-42.980469 96-96 96-53.019532 0-96-42.980469-96-96s42.980468-96 96-96c53.019531 0 96 42.980469 96 96zm0 0" fill="#ffc107" data-original="#FFC107" class="active-path" style="fill:#3DD0F2" data-old_color="#3dd0f2"/><path d="m245.339844 341.671875c-52.929688 0-96-43.070313-96-96s43.070312-96 96-96c52.925781 0 96 43.070313 96 96s-43.074219 96-96 96zm0-170.667969c-41.175782 0-74.667969 33.496094-74.667969 74.667969s33.492187 74.667969 74.667969 74.667969c41.171875 0 74.664062-33.496094 74.664062-74.667969s-33.492187-74.667969-74.664062-74.667969zm0 0" data-original="#000000" class="" style="fill:#000000"/><path d="m309.339844 85.671875c-2.730469 0-5.460938-1.046875-7.554688-3.113281l-56.445312-56.46875-56.449219 56.46875c-4.160156 4.160156-10.921875 4.160156-15.082031 0s-4.160156-10.925782 0-15.082032l64-64c4.160156-4.160156 10.921875-4.160156 15.082031 0l64 64c4.160156 4.15625 4.160156 10.921876 0 15.082032-2.089844 2.066406-4.820313 3.113281-7.550781 3.113281zm0 0" data-original="#000000" class="" style="fill:#000000"/><path d="m245.339844 491.003906c-2.730469 0-5.460938-1.042968-7.554688-3.113281l-64-64c-4.160156-4.160156-4.160156-10.921875 0-15.082031s10.925782-4.160156 15.085938 0l56.46875 56.449218 56.445312-56.449218c4.160156-4.160156 10.925782-4.160156 15.085938 0s4.160156 10.921875 0 15.082031l-64 64c-2.070313 2.070313-4.800782 3.113281-7.53125 3.113281zm0 0" data-original="#000000" class="" style="fill:#000000"/><path d="m416.003906 320.339844c-2.730468 0-5.460937-1.046875-7.550781-3.117188-4.160156-4.160156-4.160156-10.921875 0-15.082031l56.46875-56.46875-56.445313-56.449219c-4.160156-4.160156-4.160156-10.921875 0-15.082031 4.15625-4.160156 10.921876-4.160156 15.082032 0l64 64c4.160156 4.160156 4.160156 10.921875 0 15.082031l-64 64c-2.09375 2.070313-4.824219 3.117188-7.554688 3.117188zm0 0" data-original="#000000" class="" style="fill:#000000"/><path d="m74.671875 320.339844c-2.730469 0-5.460937-1.046875-7.550781-3.117188l-64-64c-4.160156-4.160156-4.160156-10.921875 0-15.082031l64-64c4.160156-4.160156 10.921875-4.160156 15.082031 0s4.160156 10.921875 0 15.082031l-56.449219 56.449219 56.449219 56.449219c4.160156 4.160156 4.160156 10.921875 0 15.082031-2.070313 2.089844-4.800781 3.136719-7.53125 3.136719zm0 0" data-original="#000000" class="" style="fill:#000000"/><path d="m245.339844 171.003906c-5.890625 0-10.667969-4.777344-10.667969-10.664062v-149.335938c0-5.886718 4.777344-10.664062 10.667969-10.664062 5.886718 0 10.664062 4.777344 10.664062 10.664062v149.335938c0 5.886718-4.777344 10.664062-10.664062 10.664062zm0 0" data-original="#000000" class="" style="fill:#000000"/><path d="m160.003906 256.339844h-149.332031c-5.886719 0-10.66796875-4.78125-10.66796875-10.667969s4.78124975-10.667969 10.66796875-10.667969h149.332031c5.890625 0 10.667969 4.78125 10.667969 10.667969s-4.777344 10.667969-10.667969 10.667969zm0 0" data-original="#000000" class="" style="fill:#000000"/><path d="m480.003906 256.339844h-149.332031c-5.886719 0-10.667969-4.78125-10.667969-10.667969s4.78125-10.667969 10.667969-10.667969h149.332031c5.890625 0 10.667969 4.78125 10.667969 10.667969s-4.777344 10.667969-10.667969 10.667969zm0 0" data-original="#000000" class="" style="fill:#000000"/><path d="m245.339844 491.003906c-5.890625 0-10.667969-4.777344-10.667969-10.664062v-149.335938c0-5.886718 4.777344-10.664062 10.667969-10.664062 5.886718 0 10.664062 4.777344 10.664062 10.664062v149.335938c0 5.886718-4.777344 10.664062-10.664062 10.664062zm0 0" data-original="#000000" class="" style="fill:#000000"/></g> </svg>
