<?xml version="1.0"?>
<svg xmlns="http://www.w3.org/2000/svg" xmlns:xlink="http://www.w3.org/1999/xlink" version="1.1" id="Layer_1" x="0px" y="0px" viewBox="0 0 512 512" style="enable-background:new 0 0 512 512;" xml:space="preserve" width="512px" height="512px" class=""><g><g transform="translate(1 1)">
	<path style="fill:#F7F9F9" d="M425.667,502.467h-307.2V7.533h307.2c9.387,0,17.067,7.68,17.067,17.067v460.8   C442.733,494.787,435.053,502.467,425.667,502.467" data-original="#FD9808" class="active-path" data-old_color="#3DD0F2"/>
	<g>
		<path style="fill:#3DD0F2" d="M451.267,502.467H434.2V7.533h17.067c9.387,0,17.067,7.68,17.067,17.067v460.8    C468.333,494.787,460.653,502.467,451.267,502.467" data-original="#FFDD09" class="" data-old_color="#3dd0f2"/>
		<path style="fill:#3DD0F2" d="M400.067,502.467h-281.6V7.533h281.6c9.387,0,17.067,7.68,17.067,17.067v460.8    C417.133,494.787,409.453,502.467,400.067,502.467" data-original="#FFDD09" class="" data-old_color="#3dd0f2"/>
	</g>
	<path style="fill:#F7F9F9" d="M254.147,349.72L265.24,319l-64-23.04l-23.04,64l40.96,14.507   C226.84,361.667,239.64,352.28,254.147,349.72" data-original="#FD9808" class="active-path" data-old_color="#3DD0F2"/>
	<path style="fill:#3DD0F2" d="M314.733,400.067c0-28.16-23.04-51.2-51.2-51.2c-28.16,0-51.2,23.04-51.2,51.2   c0,28.16,23.04,51.2,51.2,51.2C291.693,451.267,314.733,428.227,314.733,400.067" data-original="#1CD759" class="" data-old_color="#3dd0f2"/>
	<path style="fill:#F2F5F7" d="M331.8,340.333v34.133h-23.893c4.267,7.68,6.827,16.213,6.827,25.6   c0,6.827-1.707,13.653-4.267,19.627c5.973,3.413,13.653,5.973,21.333,5.973c23.893,0,42.667-18.773,42.667-42.667   C374.467,359.107,355.693,340.333,331.8,340.333" data-original="#54C9FD" class="" data-old_color="#54C9FD"/>
	<path style="fill:#3DD0F2" d="M246.467,289.133v23.04L266.093,319L255,349.72c2.56-0.853,5.12-0.853,8.533-0.853   c18.773,0,35.84,10.24,44.373,25.6H331.8v-85.333H246.467z" data-original="#DB4D6C" class="" data-old_color="#3dd0f2"/>
	<g>
		<path style="fill:#3DD0F2" d="M84.333,67.267H50.2c-5.12,0-8.533-3.413-8.533-8.533S45.08,50.2,50.2,50.2h34.133    c5.12,0,8.533,3.413,8.533,8.533S89.453,67.267,84.333,67.267z" data-original="#FFDD09" class="" data-old_color="#3dd0f2"/>
		<path style="fill:#3DD0F2" d="M84.333,135.533H50.2c-5.12,0-8.533-3.413-8.533-8.533s3.413-8.533,8.533-8.533h34.133    c5.12,0,8.533,3.413,8.533,8.533S89.453,135.533,84.333,135.533z" data-original="#FFDD09" class="" data-old_color="#3dd0f2"/>
		<path style="fill:#3DD0F2" d="M84.333,203.8H50.2c-5.12,0-8.533-3.413-8.533-8.533c0-5.12,3.413-8.533,8.533-8.533h34.133    c5.12,0,8.533,3.413,8.533,8.533C92.867,200.387,89.453,203.8,84.333,203.8z" data-original="#FFDD09" class="" data-old_color="#3dd0f2"/>
		<path style="fill:#3DD0F2" d="M84.333,272.067H50.2c-5.12,0-8.533-3.413-8.533-8.533c0-5.12,3.413-8.533,8.533-8.533h34.133    c5.12,0,8.533,3.413,8.533,8.533C92.867,268.653,89.453,272.067,84.333,272.067z" data-original="#FFDD09" class="" data-old_color="#3dd0f2"/>
		<path style="fill:#3DD0F2" d="M84.333,340.333H50.2c-5.12,0-8.533-3.413-8.533-8.533s3.413-8.533,8.533-8.533h34.133    c5.12,0,8.533,3.413,8.533,8.533S89.453,340.333,84.333,340.333z" data-original="#FFDD09" class="" data-old_color="#3dd0f2"/>
		<path style="fill:#3DD0F2" d="M84.333,408.6H50.2c-5.12,0-8.533-3.413-8.533-8.533s3.413-8.533,8.533-8.533h34.133    c5.12,0,8.533,3.413,8.533,8.533S89.453,408.6,84.333,408.6z" data-original="#FFDD09" class="" data-old_color="#3dd0f2"/>
		<path style="fill:#3DD0F2" d="M84.333,476.867H50.2c-5.12,0-8.533-3.413-8.533-8.533c0-5.12,3.413-8.533,8.533-8.533h34.133    c5.12,0,8.533,3.413,8.533,8.533C92.867,473.453,89.453,476.867,84.333,476.867z" data-original="#FFDD09" class="" data-old_color="#3dd0f2"/>
	</g>
	<path style="fill:#FFFFFF;" d="M118.467,502.467H84.333c-9.387,0-17.067-7.68-17.067-17.067V24.6   c0-9.387,7.68-17.067,17.067-17.067h34.133V502.467z" data-original="#FFFFFF" class=""/>
	<path style="fill:#3DD0F2" d="M118.467,502.467h-8.533c-9.387,0-17.067-7.68-17.067-17.067V24.6   c0-9.387,7.68-17.067,17.067-17.067h8.533V502.467z" data-original="#FFDD09" class="" data-old_color="#3dd0f2"/>
	<path d="M425.667,511h-307.2c-5.12,0-8.533-3.413-8.533-8.533V7.533c0-5.12,3.413-8.533,8.533-8.533h307.2   c14.507,0,25.6,11.093,25.6,25.6v460.8C451.267,499.907,440.173,511,425.667,511z M127,493.933h298.667   c5.12,0,8.533-3.413,8.533-8.533V24.6c0-5.12-3.413-8.533-8.533-8.533H127V493.933z" data-original="#000000" class="" style="fill:#000000"/>
	<path d="M118.467,511H84.333c-14.507,0-25.6-11.093-25.6-25.6V24.6c0-14.507,11.093-25.6,25.6-25.6h34.133   C123.587-1,127,2.413,127,7.533v494.933C127,507.587,123.587,511,118.467,511z M84.333,16.067c-5.12,0-8.533,3.413-8.533,8.533   v460.8c0,5.12,3.413,8.533,8.533,8.533h25.6V16.067H84.333z" data-original="#000000" class="" style="fill:#000000"/>
	<path d="M84.333,58.733H50.2c-5.12,0-8.533-3.413-8.533-8.533s3.413-8.533,8.533-8.533h34.133c5.12,0,8.533,3.413,8.533,8.533   S89.453,58.733,84.333,58.733z" data-original="#000000" class="" style="fill:#000000"/>
	<path d="M84.333,127H50.2c-5.12,0-8.533-3.413-8.533-8.533s3.413-8.533,8.533-8.533h34.133c5.12,0,8.533,3.413,8.533,8.533   S89.453,127,84.333,127z" data-original="#000000" class="" style="fill:#000000"/>
	<path d="M84.333,195.267H50.2c-5.12,0-8.533-3.413-8.533-8.533c0-5.12,3.413-8.533,8.533-8.533h34.133   c5.12,0,8.533,3.413,8.533,8.533C92.867,191.853,89.453,195.267,84.333,195.267z" data-original="#000000" class="" style="fill:#000000"/>
	<path d="M84.333,263.533H50.2c-5.12,0-8.533-3.413-8.533-8.533s3.413-8.533,8.533-8.533h34.133c5.12,0,8.533,3.413,8.533,8.533   S89.453,263.533,84.333,263.533z" data-original="#000000" class="" style="fill:#000000"/>
	<path d="M84.333,331.8H50.2c-5.12,0-8.533-3.413-8.533-8.533c0-5.12,3.413-8.533,8.533-8.533h34.133   c5.12,0,8.533,3.413,8.533,8.533C92.867,328.387,89.453,331.8,84.333,331.8z" data-original="#000000" class="" style="fill:#000000"/>
	<path d="M84.333,400.067H50.2c-5.12,0-8.533-3.413-8.533-8.533S45.08,383,50.2,383h34.133c5.12,0,8.533,3.413,8.533,8.533   S89.453,400.067,84.333,400.067z" data-original="#000000" class="" style="fill:#000000"/>
	<path d="M84.333,468.333H50.2c-5.12,0-8.533-3.413-8.533-8.533s3.413-8.533,8.533-8.533h34.133c5.12,0,8.533,3.413,8.533,8.533   S89.453,468.333,84.333,468.333z" data-original="#000000" class="" style="fill:#000000"/>
	<path d="M263.533,459.8c-33.28,0-59.733-26.453-59.733-59.733s26.453-59.733,59.733-59.733s59.733,26.453,59.733,59.733   S296.813,459.8,263.533,459.8z M263.533,357.4c-23.893,0-42.667,18.773-42.667,42.667c0,23.893,18.773,42.667,42.667,42.667   c23.893,0,42.667-18.773,42.667-42.667C306.2,376.173,287.427,357.4,263.533,357.4z" data-original="#000000" class="" style="fill:#000000"/>
	<path d="M331.8,434.2c-8.533,0-17.067-2.56-25.6-6.827c-3.413-1.707-5.12-6.827-3.413-11.093c2.56-5.12,3.413-11.093,3.413-16.213   c0-7.68-1.707-14.507-5.973-21.333c-1.707-2.56-1.707-5.973,0-8.533c1.707-2.56,4.267-4.267,7.68-4.267h15.36v-25.6   c0-5.12,3.413-8.533,8.533-8.533c28.16,0,51.2,23.04,51.2,51.2C383,411.16,359.96,434.2,331.8,434.2z M321.56,415.427   c3.413,0.853,6.827,1.707,10.24,1.707c18.773,0,34.133-15.36,34.133-34.133c0-16.213-11.093-29.013-25.6-33.28v24.747   c0,5.12-3.413,8.533-8.533,8.533h-11.093c1.707,5.12,2.56,11.093,2.56,17.067C323.267,405.187,322.413,410.307,321.56,415.427z" data-original="#000000" class="" style="fill:#000000"/>
	<path d="M331.8,383h-23.893c-3.413,0-5.973-1.707-7.68-4.267c-7.68-12.8-21.333-21.333-36.693-21.333c-2.56,0-5.12,0-7.68,0.853   c-2.56,0.853-5.973-0.853-7.68-2.56c-1.707-2.56-2.56-5.12-1.707-8.533L255,324.12l-11.093-4.267   c-3.413-0.853-5.973-4.267-5.973-7.68v-23.04c0-5.12,3.413-8.533,8.533-8.533H331.8c5.12,0,8.533,3.413,8.533,8.533v85.333   C340.333,379.587,336.92,383,331.8,383z M312.173,365.933h11.093v-68.267H255v8.533l13.653,5.12c1.707,0.853,4.267,2.56,5.12,4.267   s0.853,4.267,0,6.827l-6.827,17.92C284.867,341.187,301.933,350.573,312.173,365.933z" data-original="#000000" class="" style="fill:#000000"/>
	<path d="M219.16,383c-0.853,0-1.707,0-2.56-0.853l-40.96-14.507c-1.707-0.853-4.267-2.56-5.12-4.267s-0.853-4.267,0-6.827l23.04-64   c1.707-4.267,6.827-6.827,11.093-5.12l64,23.04c1.707,0.853,4.267,2.56,5.12,4.267c0.853,1.707,0.853,4.267,0,6.827l-11.093,30.72   c-0.853,2.56-3.413,5.12-6.827,5.12c-11.947,2.56-23.04,9.387-29.013,20.48C225.133,381.293,222.573,383,219.16,383z    M189.293,354.84l26.453,9.387c7.68-11.093,19.627-18.773,32.427-22.187L255,323.267L206.36,306.2L189.293,354.84z M254.147,349.72   L254.147,349.72L254.147,349.72z" data-original="#000000" class="" style="fill:#000000"/>
	<path d="M263.533,101.4H178.2c-5.12,0-8.533-3.413-8.533-8.533s3.413-8.533,8.533-8.533h85.333c5.12,0,8.533,3.413,8.533,8.533   S268.653,101.4,263.533,101.4z" data-original="#000000" class="" style="fill:#000000"/>
	<path d="M383,161.133h-59.733c-5.12,0-8.533-3.413-8.533-8.533c0-5.12,3.413-8.533,8.533-8.533H383c5.12,0,8.533,3.413,8.533,8.533   C391.533,157.72,388.12,161.133,383,161.133z" data-original="#000000" class="" style="fill:#000000"/>
	<path d="M272.067,161.133h-59.733c-5.12,0-8.533-3.413-8.533-8.533c0-5.12,3.413-8.533,8.533-8.533h59.733   c5.12,0,8.533,3.413,8.533,8.533C280.6,157.72,277.187,161.133,272.067,161.133z" data-original="#000000" class="" style="fill:#000000"/>
	<path d="M178.2,161.133h-17.067c-5.12,0-8.533-3.413-8.533-8.533c0-5.12,3.413-8.533,8.533-8.533H178.2   c5.12,0,8.533,3.413,8.533,8.533C186.733,157.72,183.32,161.133,178.2,161.133z" data-original="#000000" class="" style="fill:#000000"/>
	<path d="M383,195.267h-17.067c-5.12,0-8.533-3.413-8.533-8.533c0-5.12,3.413-8.533,8.533-8.533H383c5.12,0,8.533,3.413,8.533,8.533   C391.533,191.853,388.12,195.267,383,195.267z" data-original="#000000" class="" style="fill:#000000"/>
	<path d="M331.8,195.267h-85.333c-5.12,0-8.533-3.413-8.533-8.533c0-5.12,3.413-8.533,8.533-8.533H331.8   c5.12,0,8.533,3.413,8.533,8.533C340.333,191.853,336.92,195.267,331.8,195.267z" data-original="#000000" class="" style="fill:#000000"/>
	<path d="M195.267,195.267h-34.133c-5.12,0-8.533-3.413-8.533-8.533c0-5.12,3.413-8.533,8.533-8.533h34.133   c5.12,0,8.533,3.413,8.533,8.533C203.8,191.853,200.387,195.267,195.267,195.267z" data-original="#000000" class="" style="fill:#000000"/>
	<path d="M383,229.4h-85.333c-5.12,0-8.533-3.413-8.533-8.533c0-5.12,3.413-8.533,8.533-8.533H383c5.12,0,8.533,3.413,8.533,8.533   C391.533,225.987,388.12,229.4,383,229.4z" data-original="#000000" class="" style="fill:#000000"/>
	<path d="M246.467,229.4h-34.133c-5.12,0-8.533-3.413-8.533-8.533c0-5.12,3.413-8.533,8.533-8.533h34.133   c5.12,0,8.533,3.413,8.533,8.533C255,225.987,251.587,229.4,246.467,229.4z" data-original="#000000" class="" style="fill:#000000"/>
	<path d="M178.2,229.4h-17.067c-5.12,0-8.533-3.413-8.533-8.533c0-5.12,3.413-8.533,8.533-8.533H178.2   c5.12,0,8.533,3.413,8.533,8.533C186.733,225.987,183.32,229.4,178.2,229.4z" data-original="#000000" class="" style="fill:#000000"/>
</g></g> </svg>
