<?xml version="1.0"?>
<svg xmlns="http://www.w3.org/2000/svg" xmlns:xlink="http://www.w3.org/1999/xlink" version="1.1" id="Capa_1" x="0px" y="0px" viewBox="0 0 512 512" style="enable-background:new 0 0 512 512;" xml:space="preserve" width="512px" height="512px" class=""><g><g>
	<polygon style="fill:#3DD0F2" points="25.588,25.6 25.588,290.133 59.721,307.2 59.721,42.667  " data-original="#FFFFFF" class="active-path" data-old_color="#3dd0f2"/>
	<polygon style="fill:#3DD0F2" points="452.254,238.933 452.254,503.467 59.721,307.2 59.721,42.667  " data-original="#FEDD0A" class="" data-old_color="#3dd0f2"/>
	<polygon style="fill:#3DD0F2" points="486.388,221.867 452.254,238.933 25.588,25.6 59.721,8.533  " data-original="#FFFFFF" class="active-path" data-old_color="#3dd0f2"/>
	<polygon style="fill:#3DD0F2" points="486.388,221.867 93.854,25.6 59.721,42.667 452.254,238.933  " data-original="#FEDD0A" class="" data-old_color="#3dd0f2"/>
	<g>
		<polygon style="fill:#3DD0F2" points="486.388,221.867 486.388,486.4 452.254,503.467 452.254,238.933   " data-original="#FFA800" class="" data-old_color="#3dd0f2"/>
		<polygon style="fill:#3DD0F2" points="76.788,85.333 76.788,264.533 59.721,273.067 59.721,76.8   " data-original="#FFA800" class="" data-old_color="#3dd0f2"/>
	</g>
	<polygon style="fill:#3DD0F2" points="418.121,435.2 418.121,452.267 59.721,273.067 76.788,264.533  " data-original="#FEDD0A" class="" data-old_color="#3dd0f2"/>
	<polygon style="fill:#3DD0F2" points="76.788,85.333 76.788,89.6 392.521,247.467 392.521,422.4 418.121,435.2 418.121,256  " data-original="#FFA800" class="" data-old_color="#3dd0f2"/>
	<g>
		<path style="fill:#3DD0F2" d="M110.921,128v4.267l25.6,12.8v64l25.6,12.8V153.6L110.921,128z M119.454,221.867v4.267l8.533,4.267    v38.4l25.6,12.8v-42.667L119.454,221.867z M110.921,128v4.267l25.6,12.8v64l25.6,12.8V153.6L110.921,128z M187.721,170.667v4.267    l42.667,21.333v115.2l25.6,12.8V204.8L187.721,170.667z M315.721,324.267v-21.333l-25.6-12.8v4.267l8.533,4.267V345.6l25.6,12.8    v-29.867L315.721,324.267z M290.121,213.333v4.267l8.533,4.267V268.8l17.067,8.533V256l8.533,4.267V230.4L290.121,213.333z     M341.321,264.533v4.267l25.6,12.8v64l25.6,12.8v-68.267L341.321,264.533z" data-original="#FEDD0A" class="" data-old_color="#3dd0f2"/>
		<path style="fill:#3DD0F2" d="M341.321,264.533l51.2,25.6v-42.667L76.788,89.6v174.933L392.521,422.4v-64l-51.2-25.6V264.533z     M153.588,281.6l-34.133-17.067v-42.667l34.133,17.067V281.6z M162.121,221.867l-51.2-25.6V128l51.2,25.6V221.867z     M255.988,324.267l-68.267-34.133V170.667l68.267,34.133V324.267z M324.254,358.4l-34.133-17.067v-51.2l34.133,17.067V358.4z     M324.254,281.6l-34.133-17.067v-51.2l34.133,17.067V281.6z" data-original="#FEDD0A" class="" data-old_color="#3dd0f2"/>
		<polygon style="fill:#3DD0F2" points="162.121,153.6 162.121,221.867 110.921,196.267 110.921,128   " data-original="#FEDD0A" class="" data-old_color="#3dd0f2"/>
	</g>
	<g>
		<path style="fill:#3DD0F2" d="M127.988,162.133l17.067,8.533" data-original="#FFA800" class="" data-old_color="#3dd0f2"/>
		<path style="fill:#3DD0F2" d="M127.988,179.2l17.067,8.533" data-original="#FFA800" class="" data-old_color="#3dd0f2"/>
		<path style="fill:#3DD0F2" d="M358.388,298.667l17.067,8.533" data-original="#FFA800" class="" data-old_color="#3dd0f2"/>
	</g>
	<polygon style="fill:#3DD0F2" points="392.521,290.133 392.521,358.4 341.321,332.8 341.321,264.533  " data-original="#FEDD0A" class="" data-old_color="#3dd0f2"/>
	<path style="fill:#3DD0F2" d="M358.388,315.733l17.067,8.533" data-original="#FFA800" class="" data-old_color="#3dd0f2"/>
	<polygon style="fill:#3DD0F2" points="255.988,204.8 255.988,324.267 187.721,290.133 187.721,170.667  " data-original="#FEDD0A" class="" data-old_color="#3dd0f2"/>
	<g>
		<path style="fill:#3DD0F2" d="M204.788,200.533l34.133,17.067" data-original="#FFA800" class="" data-old_color="#3dd0f2"/>
		<path style="fill:#3DD0F2" d="M204.788,221.867l34.133,17.067" data-original="#FFA800" class="" data-old_color="#3dd0f2"/>
		<path style="fill:#3DD0F2" d="M204.788,247.467l34.133,17.067" data-original="#FFA800" class="" data-old_color="#3dd0f2"/>
		<path style="fill:#3DD0F2" d="M204.788,273.067l34.133,17.067" data-original="#FFA800" class="" data-old_color="#3dd0f2"/>
	</g>
	<g>
		<polygon style="fill:#3DD0F2" points="324.254,230.4 324.254,281.6 290.121,264.533 290.121,213.333   " data-original="#FEDD0A" class="" data-old_color="#3dd0f2"/>
		<polygon style="fill:#3DD0F2" points="153.588,238.933 153.588,281.6 119.454,264.533 119.454,221.867   " data-original="#FEDD0A" class="" data-old_color="#3dd0f2"/>
		<polygon style="fill:#3DD0F2" points="324.254,307.2 324.254,358.4 290.121,341.333 290.121,290.133   " data-original="#FEDD0A" class="" data-old_color="#3dd0f2"/>
	</g>
	<g>
		<path d="M452.254,512c-1.325,0-2.632-0.308-3.817-0.9L21.771,297.767c-2.891-1.446-4.717-4.401-4.717-7.633V179.2    c0-4.713,3.821-8.533,8.533-8.533s8.533,3.82,8.533,8.533v105.658l418.133,209.067l25.6-12.8V227.142L59.721,18.075l-25.6,12.8    v80.058c0,4.713-3.821,8.533-8.533,8.533s-8.533-3.821-8.533-8.533V25.6c-0.001-3.232,1.825-6.188,4.717-7.633L55.904,0.9    c2.403-1.2,5.23-1.2,7.633,0l426.667,213.333c2.891,1.445,4.717,4.401,4.717,7.633V486.4c0.001,3.232-1.825,6.188-4.717,7.633    L456.071,511.1C454.886,511.692,453.579,512,452.254,512z" data-original="#000000" class=""/>
		<path d="M452.254,247.467c-1.325,0-2.632-0.308-3.817-0.9L21.771,33.233c-4.2-2.117-5.896-7.232-3.792-11.438    s7.213-5.919,11.426-3.829l422.85,211.425l30.317-15.158c2.729-1.375,5.984-1.187,8.536,0.494c2.552,1.681,4.01,4.598,3.824,7.647    c-0.186,3.05-1.989,5.767-4.726,7.125l-34.133,17.067C454.886,247.159,453.579,247.467,452.254,247.467L452.254,247.467z" data-original="#000000" class=""/>
		<path d="M452.254,512c-2.263,0.001-4.434-0.898-6.035-2.499c-1.6-1.6-2.499-3.771-2.499-6.035V238.933    c0-4.713,3.821-8.533,8.533-8.533s8.533,3.82,8.533,8.533v264.533c0.001,2.263-0.898,4.434-2.499,6.035    C456.688,511.102,454.518,512.001,452.254,512L452.254,512z" data-original="#000000" class=""/>
		<path d="M418.121,456.533c-0.662,0-1.316-0.154-1.908-0.45l-358.4-179.2c-1.444-0.725-2.356-2.201-2.358-3.817V76.8    c0.001-1.479,0.767-2.851,2.024-3.629c1.258-0.777,2.828-0.848,4.151-0.188l358.4,179.2c1.444,0.725,2.356,2.201,2.358,3.817    v196.267C422.386,454.622,420.477,456.532,418.121,456.533z M63.988,270.429l349.867,174.933V258.637L63.988,83.704V270.429z" data-original="#000000" class=""/>
		<path d="M59.721,277.333c-1.979,0.001-3.699-1.36-4.154-3.286c-0.455-1.926,0.475-3.912,2.245-4.797l14.708-7.354V85.333    c0-2.356,1.91-4.267,4.267-4.267c2.356,0,4.267,1.91,4.267,4.267v179.2c-0.002,1.616-0.914,3.092-2.358,3.817l-17.067,8.533    C61.036,277.178,60.383,277.332,59.721,277.333L59.721,277.333z" data-original="#000000" class=""/>
		<path d="M418.121,439.467c-0.662-0.001-1.315-0.155-1.908-0.45L74.879,268.35c-1.367-0.68-2.267-2.038-2.36-3.562    c-0.093-1.524,0.636-2.982,1.911-3.822c1.275-0.84,2.902-0.935,4.266-0.249l341.333,170.667c1.77,0.885,2.7,2.871,2.245,4.797    C421.82,438.107,420.1,439.467,418.121,439.467z" data-original="#000000" class=""/>
		<path d="M162.121,226.133c-0.662,0-1.316-0.154-1.908-0.45l-51.2-25.6c-1.444-0.725-2.356-2.201-2.358-3.817V128    c0.001-1.479,0.767-2.851,2.024-3.629c1.258-0.777,2.828-0.848,4.151-0.188l51.2,25.6c1.444,0.725,2.356,2.201,2.358,3.817v68.267    C166.386,224.222,164.477,226.132,162.121,226.133L162.121,226.133z M115.188,193.629l42.667,21.333v-58.725l-42.667-21.333    V193.629z" data-original="#000000" class=""/>
		<path d="M145.054,174.933c-0.662-0.001-1.315-0.155-1.908-0.45l-17.067-8.533c-1.367-0.68-2.267-2.038-2.36-3.562    c-0.093-1.524,0.636-2.982,1.911-3.822c1.275-0.84,2.902-0.935,4.266-0.249l17.067,8.533c1.77,0.885,2.7,2.871,2.245,4.797    C148.753,173.573,147.033,174.934,145.054,174.933z" data-original="#000000" class=""/>
		<path d="M145.054,192c-0.662-0.001-1.315-0.155-1.908-0.45l-17.067-8.533c-1.367-0.68-2.267-2.038-2.36-3.562    c-0.093-1.524,0.636-2.982,1.911-3.822c1.275-0.84,2.902-0.935,4.266-0.249l17.067,8.533c1.77,0.885,2.7,2.871,2.245,4.797    C148.753,190.64,147.033,192.001,145.054,192z" data-original="#000000" class=""/>
		<path d="M392.521,362.667c-0.662,0-1.316-0.154-1.908-0.45l-51.2-25.6c-1.444-0.725-2.356-2.201-2.358-3.817v-68.267    c0.001-1.478,0.767-2.851,2.024-3.629c1.258-0.777,2.828-0.848,4.151-0.188l51.2,25.6c1.444,0.725,2.356,2.201,2.358,3.817V358.4    C396.786,360.756,394.877,362.665,392.521,362.667L392.521,362.667z M345.588,330.163l42.667,21.333v-58.725l-42.667-21.333    V330.163z" data-original="#000000" class=""/>
		<path d="M375.454,311.467c-0.662-0.001-1.315-0.155-1.908-0.45l-17.067-8.533c-1.367-0.68-2.267-2.038-2.36-3.562    c-0.093-1.524,0.636-2.982,1.911-3.822c1.275-0.84,2.902-0.935,4.266-0.249l17.067,8.533c1.77,0.885,2.7,2.871,2.245,4.797    C379.153,310.107,377.433,311.467,375.454,311.467z" data-original="#000000" class=""/>
		<path d="M375.454,328.533c-0.662-0.001-1.315-0.155-1.908-0.45l-17.067-8.533c-1.367-0.68-2.267-2.038-2.36-3.562    c-0.093-1.524,0.636-2.982,1.911-3.822c1.275-0.84,2.902-0.935,4.266-0.249l17.067,8.533c1.77,0.885,2.7,2.871,2.245,4.797    C379.153,327.173,377.433,328.534,375.454,328.533L375.454,328.533z" data-original="#000000" class=""/>
		<path d="M255.988,328.533c-0.662,0-1.316-0.154-1.908-0.45l-68.267-34.133c-1.444-0.725-2.356-2.201-2.358-3.817V170.667    c0.001-1.479,0.766-2.851,2.024-3.629c1.258-0.777,2.828-0.848,4.151-0.188l68.267,34.133c1.444,0.725,2.356,2.201,2.358,3.817    v119.467C260.253,326.622,258.343,328.532,255.988,328.533L255.988,328.533z M191.988,287.496l59.733,29.867V207.437    l-59.733-29.867V287.496z" data-original="#000000" class=""/>
		<path d="M238.921,221.867c-0.662-0.001-1.315-0.155-1.908-0.45l-34.133-17.067c-2.102-1.057-2.951-3.616-1.899-5.72    c1.052-2.104,3.609-2.96,5.716-1.913l34.133,17.067c1.77,0.885,2.7,2.871,2.245,4.797    C242.62,220.507,240.9,221.867,238.921,221.867z" data-original="#000000" class=""/>
		<path d="M238.921,243.2c-0.662-0.001-1.315-0.155-1.908-0.45l-34.133-17.067c-2.102-1.057-2.951-3.616-1.899-5.72    c1.052-2.104,3.609-2.96,5.716-1.913l34.133,17.067c1.77,0.885,2.7,2.871,2.245,4.797C242.62,241.84,240.9,243.201,238.921,243.2z    " data-original="#000000" class=""/>
		<path d="M238.921,268.8c-0.662-0.001-1.315-0.155-1.908-0.45l-34.133-17.067c-2.102-1.057-2.951-3.616-1.899-5.72    c1.052-2.104,3.609-2.96,5.716-1.913l34.133,17.067c1.77,0.885,2.7,2.871,2.245,4.797C242.62,267.44,240.9,268.801,238.921,268.8z    " data-original="#000000" class=""/>
		<path d="M238.921,294.4c-0.662-0.001-1.315-0.155-1.908-0.45l-34.133-17.067c-2.102-1.057-2.951-3.616-1.899-5.72    c1.052-2.104,3.609-2.96,5.716-1.913l34.133,17.067c1.77,0.885,2.7,2.871,2.245,4.797C242.62,293.04,240.9,294.4,238.921,294.4z" data-original="#000000" class=""/>
		<path d="M324.254,285.867c-0.662,0-1.316-0.154-1.908-0.45l-34.133-17.067c-1.444-0.725-2.356-2.201-2.358-3.817v-51.2    c0.001-1.479,0.767-2.851,2.024-3.629c1.258-0.777,2.828-0.848,4.151-0.188l34.133,17.067c1.444,0.725,2.356,2.201,2.358,3.817    v51.2C328.519,283.956,326.61,285.865,324.254,285.867z M294.388,261.896l25.6,12.8v-41.658l-25.6-12.8V261.896z" data-original="#000000" class=""/>
		<path d="M307.188,243.2c-0.56,0.009-1.116-0.107-1.625-0.341c-0.534-0.181-1.007-0.507-1.367-0.942    c-0.827-0.77-1.29-1.854-1.275-2.984c-0.012-0.559,0.105-1.114,0.341-1.621c0.177-0.534,0.5-1.007,0.933-1.367    c0.36-0.433,0.833-0.758,1.367-0.937c1.038-0.429,2.204-0.429,3.242,0c0.535,0.178,1.008,0.503,1.367,0.937    c0.433,0.361,0.758,0.834,0.942,1.367c0.237,0.507,0.354,1.061,0.342,1.621c0.016,1.132-0.451,2.217-1.283,2.983    c-0.358,0.436-0.832,0.762-1.367,0.942C308.298,243.092,307.745,243.209,307.188,243.2L307.188,243.2z" data-original="#000000" class=""/>
		<path d="M153.588,285.867c-0.662,0-1.316-0.154-1.908-0.45l-34.133-17.067c-1.444-0.725-2.356-2.201-2.358-3.817v-42.667    c0.001-1.479,0.767-2.851,2.024-3.629c1.258-0.777,2.828-0.848,4.151-0.188l34.133,17.067c1.444,0.725,2.356,2.201,2.358,3.817    V281.6C157.853,283.956,155.943,285.865,153.588,285.867L153.588,285.867z M123.721,261.896l25.6,12.8v-33.125l-25.6-12.8V261.896    z" data-original="#000000" class=""/>
		<path d="M136.521,251.733c-0.56,0.009-1.116-0.107-1.625-0.341c-0.534-0.181-1.007-0.507-1.367-0.942    c-0.814-0.78-1.275-1.858-1.275-2.985c0-1.127,0.461-2.206,1.275-2.985c0.36-0.433,0.833-0.758,1.367-0.937    c1.584-0.653,3.405-0.282,4.608,0.937c1.193,1.219,1.545,3.031,0.896,4.609S138.226,251.706,136.521,251.733z" data-original="#000000" class=""/>
		<path d="M324.254,362.667c-0.662,0-1.316-0.154-1.908-0.45l-34.133-17.067c-1.444-0.725-2.356-2.201-2.358-3.817v-51.2    c0.001-1.479,0.767-2.851,2.024-3.629s2.828-0.849,4.151-0.188l34.133,17.067c1.444,0.725,2.356,2.201,2.358,3.817v51.2    C328.519,360.756,326.61,362.665,324.254,362.667z M294.388,338.696l25.6,12.8v-41.658l-25.6-12.8V338.696z" data-original="#000000" class=""/>
		<path d="M307.188,320c-0.56,0.009-1.116-0.107-1.625-0.341c-0.534-0.181-1.007-0.507-1.367-0.942    c-0.827-0.77-1.29-1.854-1.275-2.984c-0.012-0.559,0.105-1.114,0.341-1.621c0.177-0.534,0.5-1.007,0.933-1.367    c1.195-1.234,3.026-1.606,4.608-0.937c0.535,0.178,1.008,0.503,1.367,0.937c0.433,0.361,0.758,0.834,0.942,1.367    c0.237,0.507,0.354,1.061,0.342,1.621c0.016,1.132-0.451,2.217-1.283,2.983c-0.358,0.436-0.832,0.763-1.367,0.942    C308.298,319.892,307.745,320.009,307.188,320L307.188,320z" data-original="#000000" class=""/>
		<path d="M25.588,153.6c-2.259-0.033-4.422-0.917-6.059-2.475c-3.3-3.365-3.3-8.752,0-12.117c2.02-1.989,4.893-2.852,7.675-2.304    c0.566,0.079,1.115,0.25,1.625,0.508c0.543,0.188,1.059,0.447,1.533,0.771c0.449,0.314,0.878,0.656,1.284,1.024    c3.3,3.365,3.3,8.752,0,12.117c-0.406,0.367-0.835,0.708-1.283,1.021c-0.475,0.324-0.99,0.583-1.533,0.771    c-0.51,0.257-1.059,0.431-1.625,0.513C26.671,153.527,26.13,153.584,25.588,153.6z" data-original="#000000" class=""/>
	</g>
</g></g> </svg>
