<?xml version="1.0"?>
<svg xmlns="http://www.w3.org/2000/svg" xmlns:xlink="http://www.w3.org/1999/xlink" version="1.1" id="Capa_1" x="0px" y="0px" viewBox="0 0 512 512" style="enable-background:new 0 0 512 512;" xml:space="preserve" width="512px" height="512px" class=""><g><path style="fill:#4DBBEB;" d="M461.935,421.908c22.083,0,39.987,17.904,39.987,39.987c0,11.037-4.479,21.033-11.716,28.271  s-17.235,11.716-28.271,11.716H50.065c-22.083,0-39.987-17.904-39.987-39.987c0-11.037,4.479-21.033,11.716-28.271  s17.235-11.716,28.271-11.716C98.149,421.908,420.845,421.908,461.935,421.908z" data-original="#4DBBEB" class=""/><path style="fill:#3DD0F2" d="M395.956,10.038c33.13,0,59.981,26.852,59.981,59.981c0,22.203-12.066,41.587-29.991,51.954  c-8.827,5.108-19.064,8.027-29.991,8.027c-10.927,0-21.163-2.919-29.991-8.027c-6.948-4.019-13.016-9.387-17.834-15.755  c-7.628-10.057-12.156-22.603-12.156-36.199c0-8.267,1.669-16.145,4.699-23.313C349.77,25.163,371.094,10.038,395.956,10.038z" data-original="#FFF5CD" class="" data-old_color="#3dd0f2"/><rect x="355.967" y="309.942" style="fill:#3DD0F2" width="82.974" height="111.965" data-original="#FD3C65" class="" data-old_color="#3dd0f2"/><g>
	<path style="fill:#3DD0F2" d="M425.946,121.972v48.015h-59.981v-48.015c8.827,5.108,19.064,8.027,29.991,8.027   C406.882,130,417.119,127.081,425.946,121.972z" data-original="#FEB756" class="" data-old_color="#3dd0f2"/>
	<path style="fill:#3DD0F2" d="M395.956,50.025c11.027,0,19.994,8.967,19.994,19.994s-8.967,19.994-19.994,19.994   c-11.026,0-19.994-8.967-19.994-19.994S384.929,50.025,395.956,50.025z" data-original="#FEB756" class="" data-old_color="#3dd0f2"/>
	<path style="fill:#3DD0F2" d="M348.131,106.217l-222.79,27.101c3.029-7.168,4.699-15.045,4.699-23.313   c0-26.402-17.055-48.815-40.737-56.832l1.639-1.15l249.731-5.318c-3.029,7.168-4.699,15.045-4.699,23.313   C335.975,83.615,340.503,96.161,348.131,106.217z" data-original="#FEB756" class="" data-old_color="#3dd0f2"/>
	<path style="fill:#3DD0F2" d="M250.002,279.952v141.955H110.046V279.952c0,38.648,31.33,69.978,69.978,69.978   S250.002,318.6,250.002,279.952z" data-original="#FEB756" class="" data-old_color="#3dd0f2"/>
	<path style="fill:#3DD0F2" d="M180.024,249.962c16.535,0,29.991,13.456,29.991,29.991c0,16.535-13.456,29.991-29.991,29.991   s-29.991-13.456-29.991-29.991C150.034,263.418,163.489,249.962,180.024,249.962z" data-original="#FEB756" class="" data-old_color="#3dd0f2"/>
</g><path style="fill:#3DD0F2" d="M200.028,212.884c28.901,8.597,49.974,35.369,49.974,67.069c0,38.648-31.33,69.978-69.978,69.978  s-69.978-31.33-69.978-69.978c0-15.695,5.168-30.18,13.896-41.847c12.756-17.075,33.13-28.131,56.082-28.131  C186.972,209.975,193.69,210.984,200.028,212.884z M210.015,279.952c0-16.535-13.456-29.991-29.991-29.991  s-29.991,13.456-29.991,29.991c0,16.535,13.456,29.991,29.991,29.991S210.015,296.487,210.015,279.952z" data-original="#FFF5CD" class="" data-old_color="#3dd0f2"/><path style="fill:#3DD0F2" d="M200.028,212.874v0.01c-6.338-1.899-13.056-2.909-20.004-2.909  c-22.953,0-43.326,11.057-56.082,28.131l-0.01-0.01l-52.783-68.118c22.103-0.39,41.287-12.736,51.364-30.85L200.028,212.874z" data-original="#FEB756" class="" data-old_color="#3dd0f2"/><path style="fill:#3DD0F2" d="M71.148,169.977c-0.36,0.01-0.73,0.01-1.09,0.01c-33.13,0-59.981-26.852-59.981-59.981  s26.852-59.981,59.981-59.981c6.728,0,13.196,1.11,19.244,3.149c23.683,8.017,40.737,30.43,40.737,56.832  c0,8.267-1.669,16.145-4.699,23.313c-0.84,1.989-1.789,3.929-2.829,5.808C112.435,157.241,93.251,169.587,71.148,169.977z" data-original="#FFF5CD" class="" data-old_color="#3dd0f2"/><path style="fill:#3DD0F2" d="M70.059,90.013c11.027,0,19.994,8.967,19.994,19.994S81.085,130,70.059,130  s-19.994-8.967-19.994-19.994S59.032,90.013,70.059,90.013z" data-original="#FEB756" class="" data-old_color="#3dd0f2"/><path d="M438.942,451.898c-5.518,0-9.997,4.479-9.997,9.997s4.479,9.997,9.997,9.997c5.518,0,9.997-4.479,9.997-9.997  S444.46,451.898,438.942,451.898z" data-original="#000000" class="active-path" style="fill:#FDFBFB" data-old_color="#F8F5F5"/><path d="M375.962,451.898c-5.518,0-9.997,4.479-9.997,9.997s4.479,9.997,9.997,9.997c5.518,0,9.997-4.479,9.997-9.997  S381.48,451.898,375.962,451.898z" data-original="#000000" class="active-path" style="fill:#FDFBFB" data-old_color="#F8F5F5"/><path d="M315.981,451.898c-5.518,0-9.997,4.479-9.997,9.997s4.479,9.997,9.997,9.997c5.518,0,9.997-4.479,9.997-9.997  S321.499,451.898,315.981,451.898z" data-original="#000000" class="active-path" style="fill:#FDFBFB" data-old_color="#F8F5F5"/><path d="M250.002,451.898c-5.518,0-9.997,4.479-9.997,9.997s4.479,9.997,9.997,9.997c5.518,0,9.997-4.479,9.997-9.997  S255.52,451.898,250.002,451.898z" data-original="#000000" class="active-path" style="fill:#FDFBFB" data-old_color="#F8F5F5"/><path d="M190.021,451.898c-5.518,0-9.997,4.479-9.997,9.997s4.479,9.997,9.997,9.997c5.518,0,9.997-4.479,9.997-9.997  S195.539,451.898,190.021,451.898z" data-original="#000000" class="active-path" style="fill:#FDFBFB" data-old_color="#F8F5F5"/><path d="M130.04,451.898c-5.518,0-9.997,4.479-9.997,9.997s4.479,9.997,9.997,9.997s9.997-4.479,9.997-9.997  S135.558,451.898,130.04,451.898z" data-original="#000000" class="active-path" style="fill:#FDFBFB" data-old_color="#F8F5F5"/><path d="M70.059,451.898c-5.518,0-9.997,4.479-9.997,9.997s4.479,9.997,9.997,9.997s9.997-4.479,9.997-9.997  S75.577,451.898,70.059,451.898z" data-original="#000000" class="active-path" style="fill:#FDFBFB" data-old_color="#F8F5F5"/><path d="M461.935,411.829h-12.996V309.943c0-5.521-4.476-9.997-9.997-9.997h-82.974c-5.521,0-9.997,4.476-9.997,9.997V411.83  h-85.973V279.952c0-17.576-5.593-34.255-16.176-48.233c-9.723-12.843-23.341-22.586-38.547-27.651l-65.612-62.422l204.269-24.848  c3.594,4.004,7.617,7.559,12.035,10.634v32.558h-9.997c-3.787,0-7.248,2.139-8.941,5.526l-19.994,39.987  c-1.924,3.849-1.17,8.497,1.872,11.539l39.987,39.987c3.904,3.904,10.234,3.904,14.139,0c3.904-3.904,3.904-10.234,0-14.139  l-34.893-34.892l14.009-28.016h87.612l14.009,28.016l-34.893,34.892c-3.904,3.904-3.904,10.234,0,14.139  c1.952,1.952,4.511,2.928,7.069,2.928c2.558,0,5.117-0.976,7.069-2.928l39.987-39.987c3.042-3.043,3.797-7.691,1.872-11.539  l-19.994-39.987c-1.693-3.387-5.155-5.526-8.941-5.526h-9.997v-32.554c18.63-13.008,29.991-34.497,29.991-57.418  c0-38.586-31.392-69.978-69.978-69.978c-25.977,0-49.492,14.25-61.618,36.801L90.729,42.03c-0.877,0.019-1.719,0.161-2.524,0.39  c-5.905-1.58-11.988-2.392-18.146-2.392c-38.586,0-69.978,31.392-69.978,69.978c0,37.28,29.305,67.839,66.088,69.864l45.451,58.657  c-7.583,12.456-11.57,26.627-11.57,41.425v131.877H50.065c-13.368,0-25.939,5.209-35.397,14.668C5.209,435.956,0,448.526,0,461.895  c0,27.606,22.459,50.065,50.065,50.065h411.87c13.368,0,25.939-5.209,35.397-14.668c9.459-9.458,14.668-22.029,14.668-35.397  C512,434.289,489.541,411.829,461.935,411.829z M365.965,319.94h62.98v91.971h-62.98V319.94z M240.005,279.952  c0,33.074-26.907,59.981-59.981,59.981s-59.981-26.907-59.981-59.981c0-13.049,4.117-25.449,11.907-35.864  c11.45-15.327,28.973-24.117,48.074-24.117c5.86,0,11.624,0.837,17.134,2.488c0.006,0.002,0.013,0.004,0.02,0.006  C222.394,229.966,240.005,253.606,240.005,279.952z M331.848,98.127l-192.779,23.451c0.632-3.798,0.968-7.659,0.968-11.572  c0-18.577-7.315-35.853-19.619-48.611l206.783-4.404c-0.803,4.264-1.223,8.612-1.223,13.027  C325.978,79.849,327.987,89.354,331.848,98.127z M124.103,154.438l48.266,45.919c-17.976,1.753-34.932,9.62-47.902,22.108  l-35.045-45.228C102.947,173.322,115.084,165.372,124.103,154.438z M375.962,159.99v-22.91c6.457,1.921,13.194,2.916,19.994,2.916  c6.8,0,13.537-0.995,19.994-2.916v22.91L375.962,159.99L375.962,159.99z M395.956,20.035c27.561,0,49.984,22.423,49.984,49.984  c0,17.79-9.579,34.382-25.001,43.301c-7.555,4.373-16.194,6.683-24.983,6.683s-17.428-2.311-24.985-6.684  c-5.817-3.365-10.82-7.784-14.874-13.143c-6.623-8.732-10.124-19.161-10.124-30.157c0-6.748,1.316-13.282,3.91-19.421  c0-0.001,0.001-0.002,0.001-0.003C357.722,32.03,375.806,20.035,395.956,20.035z M20.075,110.006  c0-27.561,22.423-49.984,49.984-49.984c5.483,0,10.882,0.883,16.046,2.624c20.3,6.876,33.938,25.908,33.938,47.36  c0,6.748-1.316,13.282-3.913,19.426c-0.683,1.617-1.479,3.251-2.354,4.834c-8.258,14.844-23.587,24.476-40.49,25.594  c-1.712-0.437-3.525-0.42-5.25,0.078C41.41,158.873,20.075,136.889,20.075,110.006z M180.024,359.927  c23.869,0,45.315-10.525,59.981-27.16v79.144H120.043v-79.144C134.709,349.402,156.155,359.927,180.024,359.927z M483.079,483.039  c-5.651,5.651-13.161,8.764-21.144,8.764H50.065c-16.493,0-29.91-13.417-29.91-29.91c0-7.983,3.113-15.493,8.765-21.145  c5.651-5.651,13.161-8.764,21.144-8.764h59.981c0.414,0,0.82-0.032,1.221-0.081h137.514c0.401,0.049,0.807,0.081,1.221,0.081  h105.966c0.414,0,0.82-0.032,1.221-0.081h80.534c0.401,0.049,0.807,0.081,1.221,0.081h22.993c16.493,0,29.91,13.417,29.91,29.91  C491.844,469.878,488.731,477.388,483.079,483.039z" data-original="#000000" class="active-path" style="fill:#FDFBFB" data-old_color="#F8F5F5"/><path d="M395.956,100.009c16.537,0,29.991-13.454,29.991-29.991s-13.454-29.991-29.991-29.991  c-16.537,0-29.991,13.454-29.991,29.991S379.419,100.009,395.956,100.009z M395.956,60.022c5.512,0,9.997,4.485,9.997,9.997  c0,5.512-4.485,9.997-9.997,9.997s-9.997-4.485-9.997-9.997C385.959,64.507,390.443,60.022,395.956,60.022z" data-original="#000000" class="active-path" style="fill:#FDFBFB" data-old_color="#F8F5F5"/><path d="M70.059,139.997c16.537,0,29.991-13.454,29.991-29.991S86.596,80.016,70.059,80.016s-29.991,13.454-29.991,29.991  S53.522,139.997,70.059,139.997z M70.059,100.009c5.512,0,9.997,4.485,9.997,9.997c0,5.512-4.485,9.997-9.997,9.997  c-5.512,0-9.997-4.485-9.997-9.997C60.062,104.494,64.547,100.009,70.059,100.009z" data-original="#000000" class="active-path" style="fill:#FDFBFB" data-old_color="#F8F5F5"/><path d="M140.037,279.952c0,22.049,17.938,39.987,39.987,39.987s39.987-17.938,39.987-39.987c0-22.049-17.938-39.987-39.987-39.987  S140.037,257.902,140.037,279.952z M200.018,279.952c0,11.025-8.969,19.994-19.994,19.994c-11.025,0-19.994-8.969-19.994-19.994  s8.969-19.994,19.994-19.994C191.049,259.959,200.018,268.928,200.018,279.952z" data-original="#000000" class="active-path" style="fill:#FDFBFB" data-old_color="#F8F5F5"/></g> </svg>
