<?xml version="1.0"?>
<svg xmlns="http://www.w3.org/2000/svg" height="512px" viewBox="-59 1 511 511.99999" width="512px" class=""><g><path d="m32.652344 412.449219h41.164062v99.550781h-41.164062zm0 0" fill="#393f5b" data-original="#393F5B" class="active-path" style="fill:#01010F" data-old_color="#393F5B"/><path d="m320.8125 412.449219h41.164062v99.550781h-41.164062zm0 0" fill="#393f5b" data-original="#393F5B" class="active-path" style="fill:#01010F" data-old_color="#393F5B"/><path d="m8.21875 7.71875h378.191406v449.136719h-378.191406zm0 0" fill="#4c5275" data-original="#4C5275" class="" style="fill:#01010F" data-old_color="#D6D6DA"/><path d="m8.21875 7.71875h267.050781v348.800781h-267.050781zm0 0" fill="#c5f3ff" data-original="#C5F3FF" class=""/><path d="m241.308594 129.949219h-199.128906c-4.265626 0-7.71875-3.457031-7.71875-7.71875s3.453124-7.71875 7.71875-7.71875h199.128906c4.261718 0 7.71875 3.457031 7.71875 7.71875s-3.457032 7.71875-7.71875 7.71875zm0 0" fill="#45c1ed" data-original="#45C1ED" class="" style="fill:#3DD0F2" data-old_color="#3dd0f2"/><path d="m241.308594 256.183594h-199.128906c-4.265626 0-7.71875-3.457032-7.71875-7.71875 0-4.265625 3.453124-7.71875 7.71875-7.71875h199.128906c4.261718 0 7.71875 3.453125 7.71875 7.71875 0 4.261718-3.457032 7.71875-7.71875 7.71875zm0 0" fill="#45c1ed" data-original="#45C1ED" class="" style="fill:#3DD0F2" data-old_color="#3dd0f2"/><g fill="#e6e6e6"><path d="m350.90625 160.992188h-40.132812c-6.820313 0-12.351563-5.53125-12.351563-12.351563s5.53125-12.347656 12.351563-12.347656h40.132812c6.820312 0 12.347656 5.527343 12.347656 12.347656.003906 6.820313-5.527344 12.351563-12.347656 12.351563zm0 0" data-original="#000000" class="" style="fill:#3DD0F2" data-old_color="#3dd0f2"/><path d="m343.25 251.605469h-24.820312c-11.046876 0-20.007813-8.957031-20.007813-20.007813v-24.816406c0-11.050781 8.960937-20.007812 20.007813-20.007812h24.820312c11.046875 0 20.007812 8.957031 20.007812 20.007812v24.816406c0 11.050782-8.960937 20.007813-20.007812 20.007813zm0 0" data-original="#000000" class="" style="fill:#3DD0F2" data-old_color="#3dd0f2"/><path d="m311.171875 118.628906c-4.261719 0-7.71875-3.457031-7.71875-7.71875v-22.640625c0-4.265625 3.457031-7.71875 7.71875-7.71875s7.71875 3.453125 7.71875 7.71875v22.640625c0 4.261719-3.457031 7.71875-7.71875 7.71875zm0 0" data-original="#000000" class="" style="fill:#3DD0F2" data-old_color="#3dd0f2"/><path d="m34.976562 416.847656v-20.320312c0-7.320313 5.933594-13.25 13.25-13.25h187.035157c7.316406 0 13.25 5.929687 13.25 13.25v20.320312c0 7.316406-5.933594 13.25-13.25 13.25h-187.035157c-7.316406 0-13.25-5.933594-13.25-13.25zm0 0" data-original="#000000" class="" style="fill:#3DD0F2" data-old_color="#3dd0f2"/></g><path d="m64.625 40.929688h-12.605469c-5.433593 0-9.839843 4.40625-9.839843 9.839843v37.949219c0 5.4375 4.40625 9.84375 9.839843 9.84375h12.605469c5.4375 0 9.84375-4.40625 9.84375-9.84375v-37.949219c0-5.433593-4.40625-9.839843-9.84375-9.839843zm0 0" fill="#ff5543" data-original="#FF5543" class="" style="fill:#3DD0F2" data-old_color="#3dd0f2"/><path d="m175.851562 40.929688h-12.605468c-5.433594 0-9.839844 4.40625-9.839844 9.839843v37.949219c0 5.4375 4.40625 9.84375 9.839844 9.84375h12.605468c5.4375 0 9.84375-4.40625 9.84375-9.84375v-37.949219c0-5.433593-4.40625-9.839843-9.84375-9.839843zm0 0" fill="#ff5543" data-original="#FF5543" class="" style="fill:#3DD0F2" data-old_color="#3dd0f2"/><path d="m120.238281 40.929688h-12.605469c-5.433593 0-9.839843 4.40625-9.839843 9.839843v37.949219c0 5.4375 4.40625 9.84375 9.839843 9.84375h12.605469c5.4375 0 9.84375-4.40625 9.84375-9.84375v-37.949219c0-5.433593-4.40625-9.839843-9.84375-9.839843zm0 0" fill="#ffdb45" data-original="#FFDB45" class="" style="fill:#3DD0F2" data-old_color="#3dd0f2"/><path d="m231.464844 40.929688h-12.605469c-5.433594 0-9.839844 4.40625-9.839844 9.839843v37.949219c0 5.4375 4.40625 9.84375 9.839844 9.84375h12.605469c5.4375 0 9.84375-4.40625 9.84375-9.84375v-37.949219c0-5.433593-4.40625-9.839843-9.84375-9.839843zm0 0" fill="#45c1ed" data-original="#45C1ED" class="" style="fill:#3DD0F2" data-old_color="#3dd0f2"/><path d="m64.625 169.570312h-12.605469c-5.433593 0-9.839843 4.40625-9.839843 9.84375v37.949219c0 5.433594 4.40625 9.839844 9.839843 9.839844h12.605469c5.4375 0 9.84375-4.40625 9.84375-9.839844v-37.949219c0-5.4375-4.40625-9.84375-9.84375-9.84375zm0 0" fill="#ffdb45" data-original="#FFDB45" class="" style="fill:#3DD0F2" data-old_color="#3dd0f2"/><path d="m175.851562 169.570312h-12.605468c-5.433594 0-9.839844 4.40625-9.839844 9.84375v37.949219c0 5.433594 4.40625 9.839844 9.839844 9.839844h12.605468c5.4375 0 9.84375-4.40625 9.84375-9.839844v-37.949219c0-5.4375-4.40625-9.84375-9.84375-9.84375zm0 0" fill="#45c1ed" data-original="#45C1ED" class="" style="fill:#3DD0F2" data-old_color="#3dd0f2"/><path d="m120.238281 169.570312h-12.605469c-5.433593 0-9.839843 4.40625-9.839843 9.84375v37.949219c0 5.433594 4.40625 9.839844 9.839843 9.839844h12.605469c5.4375 0 9.84375-4.40625 9.84375-9.839844v-37.949219c0-5.4375-4.40625-9.84375-9.84375-9.84375zm0 0" fill="#ff5543" data-original="#FF5543" class="" style="fill:#3DD0F2" data-old_color="#3dd0f2"/><path d="m231.464844 169.570312h-12.605469c-5.433594 0-9.839844 4.40625-9.839844 9.84375v37.949219c0 5.433594 4.40625 9.839844 9.839844 9.839844h12.605469c5.4375 0 9.84375-4.40625 9.84375-9.839844v-37.949219c0-5.4375-4.40625-9.84375-9.84375-9.84375zm0 0" fill="#ff5543" data-original="#FF5543" class="" style="fill:#3DD0F2" data-old_color="#3dd0f2"/><path d="m64.625 280.269531h-12.605469c-5.433593 0-9.839843 4.40625-9.839843 9.84375v37.945313c0 5.4375 4.40625 9.84375 9.839843 9.84375h12.605469c5.4375 0 9.84375-4.40625 9.84375-9.84375v-37.945313c0-5.4375-4.40625-9.84375-9.84375-9.84375zm0 0" fill="#ff5543" data-original="#FF5543" class="" style="fill:#3DD0F2" data-old_color="#3dd0f2"/><path d="m175.851562 280.269531h-12.605468c-5.433594 0-9.839844 4.40625-9.839844 9.84375v37.945313c0 5.4375 4.40625 9.84375 9.839844 9.84375h12.605468c5.4375 0 9.84375-4.40625 9.84375-9.84375v-37.945313c0-5.4375-4.40625-9.84375-9.84375-9.84375zm0 0" fill="#ff5543" data-original="#FF5543" class="" style="fill:#3DD0F2" data-old_color="#3dd0f2"/><path d="m120.238281 280.269531h-12.605469c-5.433593 0-9.839843 4.40625-9.839843 9.84375v37.945313c0 5.4375 4.40625 9.84375 9.839843 9.84375h12.605469c5.4375 0 9.84375-4.40625 9.84375-9.84375v-37.945313c0-5.4375-4.40625-9.84375-9.84375-9.84375zm0 0" fill="#45c1ed" data-original="#45C1ED" class="" style="fill:#3DD0F2" data-old_color="#3dd0f2"/><path d="m231.464844 280.269531h-12.605469c-5.433594 0-9.839844 4.40625-9.839844 9.84375v37.945313c0 5.4375 4.40625 9.84375 9.839844 9.84375h12.605469c5.4375 0 9.84375-4.40625 9.84375-9.84375v-37.945313c0-5.4375-4.40625-9.84375-9.84375-9.84375zm0 0" fill="#ffdb45" data-original="#FFDB45" class="" style="fill:#3DD0F2" data-old_color="#3dd0f2"/><path d="m386.410156 464.574219h-378.191406c-4.261719 0-7.71875-3.457031-7.71875-7.71875v-449.136719c0-4.261719 3.457031-7.71875 7.71875-7.71875h378.191406c4.265625 0 7.71875 3.457031 7.71875 7.71875v449.136719c0 4.261719-3.453125 7.71875-7.71875 7.71875zm-370.472656-15.4375h362.753906v-433.699219h-362.753906zm0 0" fill="#4c5275" data-original="#4C5275" class="" style="fill:#01010F" data-old_color="#D6D6DA"/></g> </svg>
