<?xml version="1.0"?>
<svg xmlns="http://www.w3.org/2000/svg" height="512px" viewBox="0 1 511 511.99988" width="512px" class=""><g><path d="m502.445312 199.175781-37.476562 46.851563c-7.550781-6.066406-193.0625-155.15625-208.496094-167.558594-15.445312 12.410156-200.957031 161.5-208.496094 167.558594l-37.476562-46.851563 227.234375-182.542969c10.960937-8.769531 26.515625-8.769531 37.476563 0zm0 0" fill="#ff663b" data-original="#FF663B" class="active-path" style="fill:#3DD0F2" data-old_color="#3dd0f2"/><path d="m436.453125 502h-359.960937v-278.886719l179.980468-144.644531 179.980469 144.644531zm0 0" fill="#d9e7ec" data-original="#D9E7EC" class="" style="fill:#3DD0F2" data-old_color="#3dd0f2"/><path d="m436.453125 30.050781c0 11.046875-8.953125 20-20 20-11.042969 0-19.996094-8.953125-19.996094-20 0-11.042969 8.953125-19.996093 19.996094-19.996093 11.046875 0 20 8.953124 20 19.996093zm0 0" fill="#ff663b" data-original="#FF663B" class="active-path" style="fill:#3DD0F2" data-old_color="#3dd0f2"/><path d="m333.0625 248.707031 20 34.636719-28.65625 16.550781c1.238281 5.199219 2.058594 10.558594 2.058594 16.125 0 5.570313-.820313 10.929688-2.058594 16.128907l28.65625 16.550781-20 34.632812-28.675781-16.554687c-7.820313 7.378906-17.359375 12.796875-27.917969 15.976562v33.257813h-39.992188v-33.257813c-10.640624-3.210937-20.160156-8.660156-27.917968-15.976562l-28.675782 16.554687-20-34.632812 28.65625-16.550781c-2.71875-11.4375-2.769531-20.636719 0-32.253907l-28.65625-16.550781 20-34.636719 28.675782 16.558594c7.769531-7.328125 17.289062-12.777344 27.917968-15.976563v-33.257812h39.992188v33.257812c10.558594 3.179688 20.097656 8.597657 27.917969 15.976563zm-46.59375 67.3125c0-16.535156-13.457031-29.996093-29.996094-29.996093-16.539062 0-29.996094 13.460937-29.996094 29.996093 0 16.539063 13.457032 30 29.996094 30 16.539063 0 29.996094-13.460937 29.996094-30zm0 0" fill="#a8ebfa" data-original="#A8EBFA" class="" style="fill:#3DD0F2" data-old_color="#3dd0f2"/><path d="m306.46875 170.039062c0 5.519532-4.476562 9.996094-10 9.996094s-10-4.476562-10-9.996094c0-5.523437 4.476562-10 10-10s10 4.476563 10 10zm0 0" data-original="#000000" class="" style="fill:#000000"/><path d="m266.472656 170.039062c0 5.519532-4.476562 9.996094-10 9.996094-5.523437 0-10-4.476562-10-9.996094 0-5.523437 4.476563-10 10-10 5.523438 0 10 4.476563 10 10zm0 0" data-original="#000000" class="" style="fill:#000000"/><path d="m226.476562 170.039062c0 5.519532-4.476562 9.996094-10 9.996094-5.523437 0-10-4.476562-10-9.996094 0-5.523437 4.476563-10 10-10 5.523438 0 10 4.476563 10 10zm0 0" data-original="#000000" class="" style="fill:#000000"/><path d="m126.488281 462.003906c0 5.523438-4.476562 10-10 10-5.523437 0-10-4.476562-10-10 0-5.519531 4.476563-9.996094 10-9.996094 5.523438 0 10 4.476563 10 9.996094zm0 0" data-original="#000000" class="" style="fill:#000000"/><path d="m151.222656 353.695312 20 34.636719c1.324219 2.296875 3.507813 3.972657 6.070313 4.660157s5.289062.324218 7.585937-1l22.574219-13.035157c5.738281 4.421875 12.160156 8.089844 19.023437 10.863281v26.1875c0 5.523438 4.476563 10 9.996094 10h39.996094c5.523438 0 10-4.476562 10-10v-26.167968c6.910156-2.773438 13.277344-6.410156 19.035156-10.875l22.558594 13.027344c4.785156 2.757812 10.898438 1.121093 13.660156-3.660157l20-34.636719c2.757813-4.78125 1.121094-10.894531-3.660156-13.65625l-22.46875-12.976562c.582031-3.808594.871094-7.464844.871094-11.042969s-.289063-7.230469-.871094-11.039062l22.46875-12.976563c4.78125-2.761718 6.417969-8.878906 3.660156-13.660156l-20-34.636719c-1.324218-2.296875-3.507812-3.972656-6.070312-4.65625-2.5625-.6875-5.292969-.328125-7.585938.996094l-22.5625 13.027344c-5.757812-4.464844-12.125-8.101563-19.035156-10.871094v-26.171875c0-5.523438-4.476562-10-10-10h-39.992188c-5.523437 0-10 4.476562-10 10v26.183594c-6.859374 2.773437-13.28125 6.441406-19.023437 10.867187l-22.570313-13.03125c-4.78125-2.761719-10.898437-1.121093-13.660156 3.660157l-20 34.632812c-2.757812 4.785156-1.121094 10.898438 3.660156 13.660156l22.464844 12.972656c-1.164062 7.542969-1.164062 14.539063 0 22.089844l-22.464844 12.972656c-4.78125 2.761719-6.421874 8.875-3.660156 13.65625zm42.316406-12.886718c3.828126-2.210938 5.75-6.671875 4.730469-10.972656-2.398437-10.082032-2.398437-17.570313-.003906-27.625 1.027344-4.300782-.894531-8.765626-4.726563-10.976563l-19.996093-11.550781 9.996093-17.316406 20.019532 11.558593c3.828125 2.210938 8.648437 1.648438 11.863281-1.382812 6.683594-6.308594 14.738281-10.910157 23.9375-13.679688 4.222656-1.273437 7.113281-5.164062 7.113281-9.574219v-23.257812h20v23.257812c0 4.410157 2.890625 8.300782 7.113282 9.574219 9.207031 2.769531 17.261718 7.375 23.9375 13.675781 3.214843 3.03125 8.035156 3.597657 11.863281 1.386719l20.019531-11.558593 9.996094 17.316406-19.996094 11.550781c-3.832031 2.210937-5.753906 6.675781-4.726562 10.976563 1.203124 5.042968 1.785156 9.558593 1.785156 13.808593 0 4.253907-.582032 8.769531-1.785156 13.808594-1.027344 4.304687.894531 8.769531 4.726562 10.980469l19.996094 11.546875-9.996094 17.320312-20.019531-11.558593c-3.828125-2.210938-8.648438-1.644532-11.863281 1.386718-6.675782 6.300782-14.730469 10.902344-23.9375 13.675782-4.222657 1.273437-7.113282 5.164062-7.113282 9.574218v23.257813h-20v-23.257813c0-4.410156-2.886718-8.300781-7.109375-9.574218-9.210937-2.777344-17.269531-7.378907-23.941406-13.679688-3.214844-3.027344-8.035156-3.59375-11.863281-1.382812l-20.019532 11.558593-9.996093-17.320312zm0 0" data-original="#000000" class="" style="fill:#000000"/><path d="m502.445312 492.003906h-55.992187v-248.03125l12.253906 9.851563c4.320313 3.46875 10.625 2.757812 14.070313-1.550781l37.476562-46.855469c3.445313-4.304688 2.753906-10.585938-1.546875-14.039063l-82.253906-66.074218v-66.976563c11.636719-4.125 20-15.238281 20-28.277344 0-16.539062-13.457031-29.9960935-30-29.9960935-16.539063 0-29.996094 13.4570315-29.996094 29.9960935 0 13.035157 8.363281 24.152344 20 28.277344v50.910156l-125-100.410156c-14.710937-11.773437-35.257812-11.773437-49.984375.011719l-227.234375 182.539062c-4.300781 3.453125-4.992187 9.734375-1.546875 14.039063l37.476563 46.855469c3.449219 4.316406 9.757812 5.015624 14.070312 1.550781l12.253907-9.847657v248.027344h-55.992188c-5.523438 0-10 4.476563-10 9.996094 0 5.523438 4.476562 10 10 10h491.945312c5.523438 0 10-4.476562 10-10 0-5.519531-4.476562-9.996094-10-9.996094zm-85.992187-471.949218c5.515625 0 10 4.484374 10 9.996093 0 5.515625-4.484375 10-10 10-5.511719 0-9.996094-4.484375-9.996094-10 0-5.511719 4.484375-9.996093 9.996094-9.996093zm-366.929687 211.902343-24.984376-31.238281 219.441407-176.277344c7.355469-5.886718 17.628906-5.882812 24.96875-.011718l219.453125 176.292968-24.980469 31.234375-200.6875-161.285156c-1.828125-1.46875-4.046875-2.203125-6.261719-2.203125-2.21875 0-4.433594.734375-6.261718 2.203125zm36.96875-4.054687 169.980468-136.609375 169.980469 136.609375v224.101562h-269.96875c-5.523437 0-10 4.476563-10 10 0 5.523438 4.476563 10 10 10h269.96875v19.996094h-339.960937zm0 0" data-original="#000000" class="" style="fill:#000000"/><path d="m256.472656 356.015625c22.054688 0 39.996094-17.941406 39.996094-39.996094 0-22.050781-17.941406-39.992187-39.996094-39.992187-22.054687 0-39.996094 17.941406-39.996094 39.992187 0 22.054688 17.941407 39.996094 39.996094 39.996094zm0-59.992187c11.027344 0 19.996094 8.972656 19.996094 19.996093 0 11.027344-8.96875 20-19.996094 20s-19.996094-8.972656-19.996094-20c0-11.023437 8.96875-19.996093 19.996094-19.996093zm0 0" data-original="#000000" class="" style="fill:#000000"/></g> </svg>
