<?xml version="1.0"?>
<svg xmlns="http://www.w3.org/2000/svg" height="512px" viewBox="-71 0 512 512.00101" width="512px" class=""><g><path d="m256.75 192.664062v280.339844c0 17.339844-14.050781 31.390625-31.386719 31.390625h-168.394531c-17.328125 0-31.378906-14.050781-31.378906-31.390625v-280.339844zm0 0" fill="#46b746" data-original="#46B746" class="" style="fill:#3DD0F2" data-old_color="#3dd0f2"/><path d="m256.75 192.664062v280.339844c0 17.339844-14.050781 31.390625-31.386719 31.390625h-119.726562c-17.328125 0-31.378907-14.050781-31.378907-31.390625v-280.339844zm0 0" fill="#5bce5b" data-original="#5BCE5B" class="" style="fill:#3DD0F2" data-old_color="#3dd0f2"/><path d="m209.464844 157.777344v34.886718h-136.597656v-34.886718c0-11.671875 9.46875-21.140625 21.148437-21.140625h94.308594c11.679687 0 21.140625 9.46875 21.140625 21.140625zm0 0" fill="#46b746" data-original="#46B746" class="" style="fill:#3DD0F2" data-old_color="#3dd0f2"/><path d="m209.464844 157.777344v34.886718h-90.597656v-34.886718c0-11.671875 9.457031-21.140625 21.136718-21.140625h48.320313c11.679687 0 21.140625 9.46875 21.140625 21.140625zm0 0" fill="#5bce5b" data-original="#5BCE5B" class="" style="fill:#3DD0F2" data-old_color="#3dd0f2"/><path d="m274.738281 187.054688v11.214843c0 9.589844-7.789062 17.378907-17.390625 17.378907h-232.367187c-9.601563 0-17.375-7.789063-17.375-17.378907v-11.214843c0-9.601563 7.773437-17.375 17.375-17.375h232.367187c9.601563 0 17.390625 7.773437 17.390625 17.375zm0 0" fill="#ccc" data-original="#CCC" class="active-path" style="fill:#3DD0F2" data-old_color="#3dd0f2"/><path d="m274.738281 187.054688v11.214843c0 9.589844-7.789062 17.378907-17.390625 17.378907h-167.09375c-9.601562 0-17.386718-7.789063-17.386718-17.378907v-11.214843c0-9.601563 7.785156-17.375 17.386718-17.375h167.09375c9.601563 0 17.390625 7.773437 17.390625 17.375zm0 0" fill="#e6e6e6" data-original="#E6E6E6" class="" style="fill:#3DD0F2" data-old_color="#3dd0f2"/><path d="m226.164062 0c-4.199218 0-7.601562 3.40625-7.601562 7.605469s3.402344 7.601562 7.601562 7.601562c71.378907 0 129.445313 58.070313 129.445313 129.445313 0 4.199218 3.40625 7.605468 7.605469 7.605468 4.199218 0 7.601562-3.40625 7.601562-7.605468 0-79.761719-64.890625-144.652344-144.652344-144.652344zm0 0" data-original="#000000" class="" style="fill:#000000"/><path d="m226.164062 34.988281c-4.199218 0-7.601562 3.40625-7.601562 7.605469s3.402344 7.605469 7.601562 7.605469c52.085938 0 94.457032 42.371093 94.457032 94.453125 0 4.199218 3.402344 7.605468 7.601562 7.605468 4.203125 0 7.605469-3.40625 7.605469-7.605468 0-60.46875-49.195313-109.664063-109.664063-109.664063zm0 0" data-original="#000000" class="" style="fill:#000000"/><path d="m226.164062 69.980469c-4.199218 0-7.601562 3.402343-7.601562 7.601562s3.402344 7.605469 7.601562 7.605469c32.789063 0 59.46875 26.675781 59.46875 59.464844 0 4.199218 3.402344 7.605468 7.601563 7.605468s7.605469-3.40625 7.605469-7.605468c0-41.175782-33.5-74.671875-74.675782-74.671875zm0 0" data-original="#000000" class="" style="fill:#000000"/><path d="m250.640625 144.652344c0 4.199218 3.40625 7.605468 7.605469 7.605468 4.199218 0 7.605468-3.40625 7.605468-7.605468 0-21.882813-17.804687-39.683594-39.6875-39.683594-4.199218 0-7.601562 3.402344-7.601562 7.601562 0 4.199219 3.402344 7.605469 7.601562 7.605469 13.496094 0 24.476563 10.980469 24.476563 24.476563zm0 0" data-original="#000000" class="" style="fill:#000000"/><path d="m256.75 257.5c-4.199219 0-7.601562 3.402344-7.601562 7.601562v209.085938c0 12.464844-10.140626 22.605469-22.605469 22.605469h-90.488281c-4.199219 0-7.605469 3.402343-7.605469 7.601562s3.40625 7.605469 7.605469 7.605469h90.488281c20.847656 0 37.8125-16.960938 37.8125-37.8125v-209.085938c0-4.199218-3.40625-7.601562-7.605469-7.601562zm0 0" data-original="#000000" class="" style="fill:#000000"/><path d="m257.355469 162.070312h-40.285157v-4.292968c0-15.851563-12.894531-28.746094-28.746093-28.746094h-94.308594c-15.851563 0-28.746094 12.894531-28.746094 28.746094v4.292968h-40.285156c-13.777344 0-24.984375 11.207032-24.984375 24.984376v11.210937c0 11.34375 7.605469 20.941406 17.984375 23.976563v251.949218c0 20.847656 16.960937 37.808594 37.8125 37.808594h49.839844c4.199219 0 7.601562-3.402344 7.601562-7.601562 0-4.199219-3.402343-7.605469-7.601562-7.605469h-49.839844c-12.464844 0-22.605469-10.140625-22.605469-22.601563v-250.945312h215.957032v11.4375c0 4.199218 3.402343 7.605468 7.601562 7.605468s7.605469-3.40625 7.605469-7.605468v-12.441406c10.378906-3.035157 17.984375-12.632813 17.984375-23.976563v-11.214844c0-13.773437-11.207032-24.980469-24.984375-24.980469zm-176.878907-4.292968c0-7.464844 6.070313-13.535156 13.535157-13.535156h94.3125c7.464843 0 13.539062 6.070312 13.539062 13.535156v4.292968h-121.386719zm186.652344 40.488281c0 5.386719-4.382812 9.773437-9.773437 9.773437h-232.371094c-5.390625 0-9.777344-4.386718-9.777344-9.773437v-11.214844c0-5.386719 4.386719-9.773437 9.777344-9.773437h232.371094c5.390625 0 9.777343 4.382812 9.777343 9.773437v11.214844zm0 0" data-original="#000000" class="" style="fill:#000000"/><path d="m97.847656 316.699219c-16.695312 16.695312-22.324218 41.84375-14.335937 64.074219 1.117187 3.105468 4.039062 5.035156 7.15625 5.035156.855469 0 1.722656-.144532 2.574219-.449219 3.949218-1.417969 6.003906-5.773437 4.582031-9.726563-6.003907-16.714843-1.773438-35.628906 10.777343-48.179687 14.363282-14.363281 35.929688-17.226563 53.179688-8.613281l-11.851562 2.308594c-4.121094.804687-6.808594 4.796874-6.007813 8.917968.707031 3.632813 3.890625 6.152344 7.457031 6.152344.480469 0 .96875-.046875 1.460938-.140625l28.679687-5.589844c4.121094-.804687 6.8125-4.796875 6.007813-8.917969l-5.589844-28.679687c-.800781-4.121094-4.792969-6.8125-8.917969-6.007813-4.121093.804688-6.8125 4.796876-6.007812 8.917969l1.867187 9.589844c-22.992187-11.640625-51.84375-7.882813-71.03125 11.308594zm0 0" data-original="#000000" class="" style="fill:#000000"/><path d="m113.460938 414.648438c8.679687 4.398437 18.191406 6.609374 27.707031 6.609374 15.691406 0 31.378906-5.972656 43.324219-17.914062 16.683593-16.683594 22.285156-40.917969 14.628906-63.246094-1.367188-3.972656-5.6875-6.085937-9.660156-4.726562-3.972657 1.363281-6.089844 5.6875-4.726563 9.660156 5.761719 16.792969 1.546875 35.011719-10.996094 47.558594-14.367187 14.363281-35.929687 17.222656-53.179687 8.609375l11.847656-2.308594c4.125-.804687 6.8125-4.796875 6.011719-8.917969-.804688-4.125-4.792969-6.8125-8.917969-6.011718l-28.679688 5.589843c-1.980468.386719-3.722656 1.542969-4.851562 3.214844-1.125 1.671875-1.542969 3.722656-1.15625 5.703125l5.589844 28.679688c.707031 3.628906 3.886718 6.148437 7.453125 6.148437.484375 0 .972656-.042969 1.464843-.140625 4.121094-.804688 6.8125-4.796875 6.007813-8.917969zm0 0" data-original="#000000" class="" style="fill:#000000"/></g> </svg>
