<?xml version="1.0"?>
<svg xmlns="http://www.w3.org/2000/svg" height="512px" viewBox="-5 0 479 480" width="512px" class=""><g><path d="m229.300781 80h88v216h-88zm0 0" fill="#6ab2cc" data-original="#6AB2CC" class="" style="fill:#3DD0F2" data-old_color="#3dd0f2"/><path d="m133.300781 8 128 96h88l-120-96zm0 0" fill="#8d9aa5" data-original="#8D9AA5" class="" style="fill:#3DD0F2" data-old_color="#3dd0f2"/><path d="m133.300781 8-96 72v216h192v-216zm0 0" fill="#88d0ef" data-original="#88D0EF" class="" style="fill:#3DD0F2" data-old_color="#3dd0f2"/><path d="m37.300781 80h192v120h-192zm0 0" fill="#595a6e" data-original="#595A6E" class="" style="fill:#3DD0F2" data-old_color="#3dd0f2"/><path d="m133.300781 176c-13.265625 0-25.15625-8.1875-29.890625-20.578125-4.738281-12.394531-1.332031-26.425781 8.554688-35.269531l10.671875 11.917968c-4.945313 4.421876-6.652344 11.4375-4.285157 17.636719 2.367188 6.199219 8.3125 10.292969 14.949219 10.292969 6.632813 0 12.578125-4.09375 14.945313-10.292969 2.367187-6.199219.664062-13.214843-4.28125-17.636719l10.671875-11.917968c9.886719 8.84375 13.289062 22.875 8.554687 35.269531-4.734375 12.390625-16.625 20.578125-29.890625 20.578125zm0 0" fill="#e8d8bf" data-original="#E8D8BF"/><path d="m125.300781 112h16v32h-16zm0 0" fill="#e8d8bf" data-original="#E8D8BF"/><path d="m301.140625 184h144.320313c8.746093 0 15.839843 7.09375 15.839843 15.839844v256.320312c0 8.746094-7.09375 15.839844-15.839843 15.839844h-144.320313c-8.75 0-15.839844-7.09375-15.839844-15.839844v-256.320312c0-8.746094 7.089844-15.839844 15.839844-15.839844zm0 0" fill="#d1e3ee" data-original="#D1E3EE" class="" style="fill:#3DD0F2" data-old_color="#3dd0f2"/><path d="m285.300781 216h176v192h-176zm0 0" fill="#31b1ae" data-original="#31B1AE" class="" style="fill:#3DD0F2" data-old_color="#3dd0f2"/><path d="m357.300781 432h32v16h-32zm0 0" fill="#8d9aa5" data-original="#8D9AA5" class="" style="fill:#3DD0F2" data-old_color="#3dd0f2"/><g fill="#fff"><path d="m409.179688 322.671875c-22.074219-13.28125-49.683594-13.28125-71.757813 0l-8.242187-13.71875c27.148437-16.328125 61.09375-16.328125 88.242187 0zm0 0" data-original="#000000" class="active-path" style="fill:#FDFBFB" data-old_color="#FCF9F9"/><path d="m392.859375 350.65625c-11.839844-7.914062-27.28125-7.914062-39.121094 0l-8.878906-13.3125c17.214844-11.5 39.664063-11.5 56.878906 0zm0 0" data-original="#000000" class="active-path" style="fill:#FDFBFB" data-old_color="#FCF9F9"/><path d="m425.300781 295.679688c-32.265625-18.335938-71.800781-18.335938-104.066406 0l-7.933594-13.886719c37.183594-21.144531 82.753907-21.144531 119.933594 0zm0 0" data-original="#000000" class="active-path" style="fill:#FDFBFB" data-old_color="#FCF9F9"/><path d="m365.300781 360h16v16h-16zm0 0" data-original="#000000" class="active-path" style="fill:#FDFBFB" data-old_color="#FCF9F9"/></g><path d="m437.300781 216h24v192h-24zm0 0" fill="#25847f" data-original="#25847F" class="" style="fill:#3DD0F2" data-old_color="#3dd0f2"/><path d="m285.300781 216h24v192h-24zm0 0" fill="#fff" data-original="#FFF" class="" style="fill:#3DD0F2" data-old_color="#3dd0f2"/><path d="m445.460938 176h-120.160157v-64h24c3.398438 0 6.425781-2.144531 7.550781-5.351562 1.125-3.207032.101563-6.773438-2.550781-8.894532l-120-96c-1.421875-1.136718-3.183593-1.753906-5-1.753906h-40v16h37.191407l100 80h-62.527344l-125.863282-94.398438c-2.847656-2.136718-6.757812-2.136718-9.601562 0l-128 96 9.601562 12.796876 19.199219-14.398438v200c0 4.417969 3.582031 8 8 8h240v152.160156c.015625 13.160156 10.679688 23.820313 23.839844 23.839844h144.320313c13.160156-.019531 23.820312-10.679688 23.839843-23.839844v-256.320312c-.019531-13.160156-10.679687-23.820313-23.839843-23.839844zm-312.160157-158 72 54h-144zm-8 270h-80v-80h80zm96 0h-80v-80h80zm0-96h-176v-104h176zm56 7.839844v88.160156h-40v-192l19.199219 14.398438c1.386719 1.039062 3.070312 1.601562 4.800781 1.601562h48v64h-8.160156c-13.160156.019531-23.824219 10.679688-23.839844 23.839844zm176 256.320312c0 4.328125-3.511719 7.839844-7.839843 7.839844h-144.320313c-4.332031 0-7.839844-3.511719-7.839844-7.839844v-40.160156h160zm0-56.160156h-160v-176h160zm0-192h-160v-8.160156c0-4.328125 3.507813-7.839844 7.839844-7.839844h144.320313c4.328124 0 7.839843 3.511719 7.839843 7.839844zm0 0" data-original="#000000" class="active-path" style="fill:#FDFBFB" data-old_color="#FCF9F9"/><path d="m357.300781 432h32v16h-32zm0 0" data-original="#000000" class="active-path" style="fill:#FDFBFB" data-old_color="#FCF9F9"/><path d="m329.179688 308.953125 8.242187 13.71875c22.074219-13.28125 49.683594-13.28125 71.757813 0l8.242187-13.71875c-27.148437-16.328125-61.09375-16.328125-88.242187 0zm0 0" data-original="#000000" class="active-path" style="fill:#FDFBFB" data-old_color="#FCF9F9"/><path d="m344.859375 337.34375 8.878906 13.3125c11.839844-7.914062 27.28125-7.914062 39.121094 0l8.878906-13.3125c-17.214843-11.5-39.664062-11.5-56.878906 0zm0 0" data-original="#000000" class="active-path" style="fill:#FDFBFB" data-old_color="#FCF9F9"/><path d="m425.300781 295.679688 7.933594-13.886719c-37.179687-21.144531-82.75-21.144531-119.933594 0l8 13.886719c32.246094-18.3125 71.75-18.3125 104 0zm0 0" data-original="#000000" class="active-path" style="fill:#FDFBFB" data-old_color="#FCF9F9"/><path d="m365.300781 360h16v16h-16zm0 0" data-original="#000000" class="active-path" style="fill:#FDFBFB" data-old_color="#FCF9F9"/><path d="m133.300781 176c13.265625 0 25.15625-8.1875 29.890625-20.578125 4.734375-12.394531 1.332032-26.425781-8.554687-35.269531l-10.671875 11.917968c4.945312 4.421876 6.648437 11.4375 4.28125 17.636719-2.367188 6.199219-8.3125 10.292969-14.945313 10.292969-6.636719 0-12.582031-4.09375-14.949219-10.292969-2.367187-6.199219-.660156-13.214843 4.285157-17.636719l-10.671875-11.917968c-9.886719 8.84375-13.292969 22.875-8.554688 35.269531 4.734375 12.390625 16.625 20.578125 29.890625 20.578125zm0 0" data-original="#000000" class="active-path" style="fill:#FDFBFB" data-old_color="#FCF9F9"/><path d="m125.300781 112h16v32h-16zm0 0" data-original="#000000" class="active-path" style="fill:#FDFBFB" data-old_color="#FCF9F9"/></g> </svg>
