<?xml version="1.0"?>
<svg xmlns="http://www.w3.org/2000/svg" height="512px" viewBox="-26 0 512 512.00067" width="512px" class=""><g><path d="m8.535156 42.667969h358.398438v-34.132813h-358.398438zm0 0" fill="#57565c" data-original="#57565C" class="" style="fill:#3DD0F2" data-old_color="#3dd0f2"/><path d="m8.535156 469.332031v34.132813h358.398438v-34.132813zm0 0" fill="#57565c" data-original="#57565C" class="" style="fill:#3DD0F2" data-old_color="#3dd0f2"/><path d="m34.132812 469.332031h307.199219v-426.664062h-307.199219zm256-230.398437c9.425782 0 17.066407 7.640625 17.066407 17.066406s-7.640625 17.066406-17.066407 17.066406c-9.425781 0-17.066406-7.640625-17.066406-17.066406s7.640625-17.066406 17.066406-17.066406zm-187.734374-93.867188v-59.734375h170.667968v119.46875h-170.667968zm0 0" fill="#a97c50" data-original="#A97C50" class="" style="fill:#3DD0F2" data-old_color="#3dd0f2"/><path d="m307.199219 256c0 9.425781-7.640625 17.066406-17.066407 17.066406-9.425781 0-17.066406-7.640625-17.066406-17.066406s7.640625-17.066406 17.066406-17.066406c9.425782 0 17.066407 7.640625 17.066407 17.066406zm0 0" fill="#ff6243" data-original="#FF6243" class="" style="fill:#F9F7F7" data-old_color="#FF6243"/><path d="m102.398438 85.332031h85.335937v59.734375h-85.335937zm0 0" fill="#ffc477" data-original="#FFC477" class="active-path" style="fill:#FCFAF7" data-old_color="#FFC477"/><path d="m102.398438 145.066406h85.335937v59.734375h-85.335937zm0 0" fill="#ffc477" data-original="#FFC477" class="active-path" style="fill:#FCFAF7" data-old_color="#FFC477"/><path d="m187.734375 145.066406h85.332031v59.734375h-85.332031zm0 0" fill="#ffc477" data-original="#FFC477" class="active-path" style="fill:#FCFAF7" data-old_color="#FFC477"/><path d="m187.734375 85.332031h85.332031v59.734375h-85.332031zm0 0" fill="#ffc477" data-original="#FFC477" class="active-path" style="fill:#FCFAF7" data-old_color="#FFC477"/><g fill="#313133"><path d="m366.933594 460.800781h-17.066406v-409.601562h17.066406c4.710937 0 8.535156-3.820313 8.535156-8.53125v-34.132813c0-4.714844-3.820312-8.535156-8.535156-8.535156h-358.398438c-4.714844 0-8.535156 3.820312-8.535156 8.535156v34.132813c0 4.710937 3.820312 8.53125 8.535156 8.53125h17.066406v409.601562h-17.066406c-4.714844 0-8.535156 3.820313-8.535156 8.53125v34.136719c0 4.710938 3.820312 8.53125 8.535156 8.53125h358.398438c4.710937 0 8.535156-3.820312 8.535156-8.53125v-34.136719c0-4.710937-3.820312-8.53125-8.535156-8.53125zm-349.867188-443.734375h341.335938v17.066406h-341.335938zm25.601563 34.132813h290.132812v409.601562h-290.132812zm315.730469 443.734375h-341.332032v-17.066406h341.335938v17.066406zm0 0" data-original="#000000" class="" style="fill:#000000" data-old_color="#F9F2F2"/><path d="m290.132812 230.398438c-14.136718 0-25.597656 11.464843-25.597656 25.601562s11.460938 25.601562 25.597656 25.601562c14.140626 0 25.601563-11.464843 25.601563-25.601562s-11.460937-25.601562-25.601563-25.601562zm0 34.136718c-4.710937 0-8.53125-3.824218-8.53125-8.535156s3.820313-8.535156 8.53125-8.535156c4.714844 0 8.535157 3.824218 8.535157 8.535156s-3.820313 8.535156-8.535157 8.535156zm0 0" data-original="#000000" class="" style="fill:#000000" data-old_color="#F9F2F2"/><path d="m281.601562 204.800781v-119.46875c0-4.710937-3.820312-8.53125-8.535156-8.53125h-170.667968c-4.710938 0-8.53125 3.820313-8.53125 8.53125v119.46875c0 4.710938 3.820312 8.53125 8.53125 8.53125h170.667968c4.714844 0 8.535156-3.820312 8.535156-8.53125zm-17.066406-68.265625h-68.269531v-42.667968h68.269531zm-85.335937-42.667968v42.667968h-68.265625v-42.667968zm-68.265625 59.734374h68.265625v42.664063h-68.265625zm85.332031 42.664063v-42.664063h68.269531v42.664063zm0 0" data-original="#000000" class="" style="fill:#000000" data-old_color="#F9F2F2"/><path d="m372.96875 237.902344c-3.332031 3.332031-3.332031 8.730468 0 12.066406 3.328125 3.332031 3.328125 8.730469 0 12.066406-3.390625 3.273438-3.484375 8.675782-.210938 12.066406 3.273438 3.386719 8.675782 3.480469 12.066407.207032.070312-.070313.140625-.136719.210937-.207032 9.992188-10 9.992188-26.203124 0-36.199218-3.335937-3.332032-8.734375-3.332032-12.066406 0zm0 0" data-original="#000000" class="" style="fill:#000000" data-old_color="#F9F2F2"/><path d="m409.164062 213.769531c-3.390624-3.273437-8.792968-3.179687-12.066406.207031-3.191406 3.308594-3.191406 8.550782 0 11.859376 16.65625 16.660156 16.65625 43.667968 0 60.328124-3.390625 3.273438-3.480468 8.675782-.207031 12.066407s8.675781 3.484375 12.066406.210937c.070313-.070312.140625-.140625.207031-.210937 23.328126-23.324219 23.332032-61.144531.003907-84.476563 0 0 0 0-.003907-.003906zm0 0" data-original="#000000" class="" style="fill:#000000" data-old_color="#F9F2F2"/><path d="m433.304688 189.628906c-3.386719-3.273437-8.789063-3.179687-12.066407.207032-3.191406 3.308593-3.191406 8.550781 0 11.859374 29.949219 30.011719 29.949219 78.597657 0 108.609376-3.386719 3.277343-3.480469 8.679687-.207031 12.066406 3.273438 3.390625 8.675781 3.484375 12.066406.210937.070313-.070312.140625-.140625.207032-.210937 36.601562-36.679688 36.601562-96.0625 0-132.742188zm0 0" data-original="#000000" class="" style="fill:#000000" data-old_color="#F9F2F2"/></g></g> </svg>
