<?xml version="1.0"?>
<svg xmlns="http://www.w3.org/2000/svg" height="512px" viewBox="0 -63 479.98858 479" width="512px" class=""><g><path d="m392 168.496094v-112c0-26.511719-21.492188-48-48-48h-160c-26.507812 0-48 21.488281-48 48v112zm0 0" fill="#64c37d" data-original="#64C37D" class="" style="fill:#3DD0F2" data-old_color="#3dd0f2"/><path d="m384 168.496094h-288c-48.601562 0-88 39.398437-88 88 0 48.597656 39.398438 88 88 88h288c48.601562 0 88-39.402344 88-88 0-48.601563-39.398438-88-88-88zm0 152h-287.199219c-35.789062 0-64.800781-29.015625-64.800781-64.800782 0-34.90625 28.296875-63.199218 63.199219-63.199218h288.800781c35.347656 0 64 28.652344 64 64 0 35.34375-28.652344 64-64 64zm0 0" fill="#acabb1" data-original="#ACABB1" class="active-path" style="fill:#3DD0F2" data-old_color="#3dd0f2"/><path d="m344 8.496094h-32c26.507812 0 48 21.488281 48 48v112h32v-112c0-26.511719-21.492188-48-48-48zm0 0" fill="#4b925e" data-original="#4B925E" class="" style="fill:#3DD0F2" data-old_color="#3dd0f2"/><path d="m56 56.496094h80v80h-80zm0 0" fill="#d80027" data-original="#D80027" class="" style="fill:#3DD0F2" data-old_color="#3dd0f2"/><path d="m56 48.496094h-24v96h24zm0 0" fill="#ff5023" data-original="#FF5023" class="" style="fill:#3DD0F2" data-old_color="#3dd0f2"/><path d="m384 192.496094h-288.800781c-34.902344 0-63.199219 28.292968-63.199219 63.199218 0 35.785157 29.011719 64.800782 64.800781 64.800782h287.199219c35.347656 0 64-28.65625 64-64 0-35.347656-28.652344-64-64-64zm-288 104c-22.089844 0-40-17.910156-40-40 0-22.09375 17.910156-40 40-40s40 17.90625 40 40c0 22.089844-17.910156 40-40 40zm96 0c-22.089844 0-40-17.910156-40-40 0-22.09375 17.910156-40 40-40s40 17.90625 40 40c0 22.089844-17.910156 40-40 40zm96 0c-22.089844 0-40-17.910156-40-40 0-22.09375 17.910156-40 40-40s40 17.90625 40 40c0 22.089844-17.910156 40-40 40zm96 0c-22.089844 0-40-17.910156-40-40 0-22.09375 17.910156-40 40-40s40 17.90625 40 40c0 22.089844-17.910156 40-40 40zm0 0" fill="#a0815c" data-original="#A0815C" class="" style="fill:#3DD0F2" data-old_color="#3dd0f2"/><path d="m136 256.496094c0 22.089844-17.910156 40-40 40s-40-17.910156-40-40c0-22.09375 17.910156-40 40-40s40 17.90625 40 40zm0 0" fill="#6c6b6f" data-original="#6C6B6F" class="" style="fill:#3DD0F2" data-old_color="#3dd0f2"/><path d="m96 216.496094c-22.089844 0-40 17.90625-40 40 0 22.089844 17.910156 40 40 40" fill="#7c7b7f" data-original="#7C7B7F" class="" style="fill:#3DD0F2" data-old_color="#3dd0f2"/><path d="m232 256.496094c0 22.089844-17.910156 40-40 40s-40-17.910156-40-40c0-22.09375 17.910156-40 40-40s40 17.90625 40 40zm0 0" fill="#6c6b6f" data-original="#6C6B6F" class="" style="fill:#3DD0F2" data-old_color="#3dd0f2"/><path d="m328 256.496094c0 22.089844-17.910156 40-40 40s-40-17.910156-40-40c0-22.09375 17.910156-40 40-40s40 17.90625 40 40zm0 0" fill="#6c6b6f" data-original="#6C6B6F" class="" style="fill:#3DD0F2" data-old_color="#3dd0f2"/><path d="m424 256.496094c0 22.089844-17.910156 40-40 40s-40-17.910156-40-40c0-22.09375 17.910156-40 40-40s40 17.90625 40 40zm0 0" fill="#6c6b6f" data-original="#6C6B6F" class="" style="fill:#3DD0F2" data-old_color="#3dd0f2"/><path d="m192 216.496094c-22.089844 0-40 17.90625-40 40 0 22.089844 17.910156 40 40 40" fill="#7c7b7f" data-original="#7C7B7F" class="" style="fill:#3DD0F2" data-old_color="#3dd0f2"/><path d="m288 216.496094c-22.089844 0-40 17.90625-40 40 0 22.089844 17.910156 40 40 40" fill="#7c7b7f" data-original="#7C7B7F" class="" style="fill:#3DD0F2" data-old_color="#3dd0f2"/><path d="m384 216.496094c-22.089844 0-40 17.90625-40 40 0 22.089844 17.910156 40 40 40" fill="#7c7b7f" data-original="#7C7B7F" class="" style="fill:#3DD0F2" data-old_color="#3dd0f2"/><g fill="#231f20"><path d="m400 161.941406v-105.445312c-.039062-30.914063-25.089844-55.960938-56-56h-160c-27.804688.050781-51.367188 20.480468-55.359375 48h-64.640625c0-4.421875-3.582031-8-8-8h-24c-4.417969 0-8 3.578125-8 8v96c0 4.417968 3.582031 8 8 8h24c4.417969 0 8-3.582032 8-8h64v16h-32c-53.019531 0-96 42.980468-96 96 0 53.015625 42.980469 96 96 96h288c49.894531.019531 91.476562-38.199219 95.652344-87.917969 4.175781-49.71875-30.453125-94.339844-79.652344-102.636719zm-360-25.445312v-80h8v80zm24-8v-64h64v64zm80-72c.027344-22.082032 17.917969-39.976563 40-40h160c22.082031.023437 39.972656 17.917968 40 40v104h-240zm240 280h-288c-44.183594 0-80-35.820313-80-80 0-44.183594 35.816406-80 80-80h288c44.183594 0 80 35.816406 80 80 0 44.179687-35.816406 80-80 80zm0 0" data-original="#000000" class="" style="fill:#000000" data-old_color="#3DD0F2"/><path d="m384 184.496094h-288.800781c-39.300781.046875-71.152344 31.894531-71.199219 71.199218.042969 40.1875 32.613281 72.753907 72.800781 72.800782h287.199219c39.765625 0 72-32.238282 72-72 0-39.765625-32.234375-72-72-72zm0 128h-287.199219c-31.355469-.035156-56.765625-25.445313-56.800781-56.800782.039062-30.46875 24.730469-55.160156 55.199219-55.199218h288.800781c30.929688 0 56 25.070312 56 56 0 30.925781-25.070312 56-56 56zm0 0" data-original="#000000" class="" style="fill:#000000" data-old_color="#3DD0F2"/><path d="m96 208.496094c-26.507812 0-48 21.488281-48 48 0 26.507812 21.492188 48 48 48s48-21.492188 48-48c-.027344-26.5-21.5-47.976563-48-48zm0 80c-17.671875 0-32-14.328125-32-32 0-17.675782 14.328125-32 32-32s32 14.324218 32 32c0 17.671875-14.328125 32-32 32zm0 0" data-original="#000000" class="" style="fill:#000000" data-old_color="#3DD0F2"/><path d="m192 208.496094c-26.507812 0-48 21.488281-48 48 0 26.507812 21.492188 48 48 48s48-21.492188 48-48c-.027344-26.5-21.5-47.976563-48-48zm0 80c-17.671875 0-32-14.328125-32-32 0-17.675782 14.328125-32 32-32s32 14.324218 32 32c0 17.671875-14.328125 32-32 32zm0 0" data-original="#000000" class="" style="fill:#000000" data-old_color="#3DD0F2"/><path d="m288 208.496094c-26.507812 0-48 21.488281-48 48 0 26.507812 21.492188 48 48 48s48-21.492188 48-48c-.027344-26.5-21.5-47.976563-48-48zm0 80c-17.671875 0-32-14.328125-32-32 0-17.675782 14.328125-32 32-32s32 14.324218 32 32c0 17.671875-14.328125 32-32 32zm0 0" data-original="#000000" class="" style="fill:#000000" data-old_color="#3DD0F2"/><path d="m384 208.496094c-26.507812 0-48 21.488281-48 48 0 26.507812 21.492188 48 48 48s48-21.492188 48-48c-.027344-26.5-21.5-47.976563-48-48zm0 80c-17.671875 0-32-14.328125-32-32 0-17.675782 14.328125-32 32-32s32 14.324218 32 32c0 17.671875-14.328125 32-32 32zm0 0" data-original="#000000" class="" style="fill:#000000" data-old_color="#3DD0F2"/></g></g> </svg>
