<?xml version="1.0"?>
<svg xmlns="http://www.w3.org/2000/svg" xmlns:xlink="http://www.w3.org/1999/xlink" version="1.1" id="Layer_1" x="0px" y="0px" viewBox="0 0 512 512" style="enable-background:new 0 0 512 512;" xml:space="preserve" width="512px" height="512px" class=""><g><g>
	<path style="fill:#F3F6F7" d="M162.714,405.805c-14.649,27.073-57.112,106.16-57.112,106.16h26.54   c3.041,0,6.005-1.572,7.655-4.389l59.366-101.771H162.714z" data-original="#5B5D6E" class="" data-old_color="#3DD0F2"/>
	<path style="fill:#F3F6F7" d="M349.286,405.805c14.649,27.073,57.112,106.16,57.112,106.16h-26.54   c-3.041,0-6.005-1.572-7.655-4.389l-59.366-101.771H349.286z" data-original="#5B5D6E" class="" data-old_color="#3DD0F2"/>
</g><path style="fill:#3DD0F2" d="M371.01,43.093l-10.358-20.715c-4.495-8.991-13.686-14.671-23.738-14.671h-161.82  c-10.053,0-19.243,5.68-23.738,14.671l-10.358,20.715v8.847H371.01V43.093z" data-original="#00AAF0" class="active-path" data-old_color="#3dd0f2"/><path style="fill:#00C3FF;" d="M379.857,43.093H132.151c-14.658,0-26.54,11.882-26.54,26.54v318.479  c0,14.658,11.882,26.54,26.54,26.54h247.706c14.658,0,26.54-11.882,26.54-26.54V69.633  C406.397,54.975,394.514,43.093,379.857,43.093z" data-original="#00C3FF" class=""/><path style="fill:#3DD0F2" d="M176.384,352.725c-9.772,0-17.693-7.921-17.693-17.693V69.633c0-14.658,11.882-26.54,26.54-26.54  h-53.08c-14.658,0-26.54,11.882-26.54,26.54v318.479c0,14.658,11.882,26.54,26.54,26.54h247.706c14.658,0,26.54-11.882,26.54-26.54  v-35.387H176.384z" data-original="#00AAF0" class="active-path" data-old_color="#3dd0f2"/><path style="fill:#3DD0F2" d="M302.701,376.356c-1.422-8.531-8.802-14.785-17.452-14.785h-58.49  c-8.65,0-16.031,6.252-17.452,14.785l-6.383,38.295h106.16L302.701,376.356z" data-original="#464655" class="" data-old_color="#3dd0f2"/><path style="fill:#F5FBFC" d="M362.163,220.026H149.844c-4.886,0-8.847-3.961-8.847-8.847v-88.466c0-4.886,3.961-8.847,8.847-8.847  h212.319c4.886,0,8.847,3.961,8.847,8.847v88.466C371.01,216.065,367.05,220.026,362.163,220.026z" data-original="#707487" class="" data-old_color="#3DD0F2"/><g>
	<circle style="fill:#FFFFFF;" cx="158.686" cy="308.493" r="17.693" data-original="#FFFFFF"/>
	<circle style="fill:#FFFFFF;" cx="353.312" cy="308.493" r="17.693" data-original="#FFFFFF"/>
</g><path style="fill:#F3F6F7" d="M309.084,113.866H149.844c-4.886,0-8.847,3.961-8.847,8.847v88.466c0,4.886,3.961,8.847,8.847,8.847  h53.08L309.084,113.866z" data-original="#5B5D6E" class="" data-old_color="#3DD0F2"/><path d="M414.686,388.699V70.22c0-19.207-15.625-34.834-34.834-34.834h-3.721l-8.066-16.131C362.128,7.378,350.19,0,336.91,0  h-161.82c-13.279,0-25.217,7.378-31.156,19.256l-8.065,16.131h-3.722c-19.207,0-34.834,15.626-34.834,34.834v318.479  c0,19.207,15.626,34.834,34.834,34.834h10.845l-44.539,75.978c-2.317,3.951-0.991,9.032,2.96,11.349  c1.318,0.773,2.762,1.14,4.187,1.14c2.846,0,5.619-1.467,7.162-4.1l49.458-84.367h187.562l49.457,84.367  c1.544,2.634,4.315,4.1,7.162,4.1c1.425,0,2.869-0.367,4.187-1.14c3.951-2.317,5.277-7.398,2.96-11.349l-44.539-75.978h10.845  C399.061,423.533,414.686,407.906,414.686,388.699z M113.9,388.699V70.22c0-10.061,8.185-18.246,18.246-18.246h168.089  c4.58,0,8.294-3.713,8.294-8.294s-3.713-8.294-8.294-8.294H154.414l4.357-8.713c3.111-6.221,9.364-10.086,16.32-10.086h161.82  c6.956,0,13.209,3.865,16.32,10.086l4.357,8.713h-21.965c-4.58,0-8.294,3.713-8.294,8.294s3.713,8.294,8.294,8.294h44.23  c10.061,0,18.246,8.185,18.246,18.246v318.479c0,10.061-8.185,18.246-18.246,18.246h-63.748l-5.227-31.365  c-2.097-12.583-12.877-21.715-25.633-21.715h-58.49c-12.756,0-23.536,9.132-25.633,21.715l-5.227,31.365h-63.748  C122.086,406.945,113.9,398.76,113.9,388.699z M299.289,406.945h-86.579l4.773-28.638c0.759-4.552,4.658-7.855,9.271-7.855h58.489  c4.614,0,8.513,3.303,9.271,7.855L299.289,406.945z" data-original="#000000" class="" style="fill:#000000"/><path d="M353.312,477.718H158.686c-4.58,0-8.294,3.713-8.294,8.294s3.713,8.294,8.294,8.294h194.626c4.58,0,8.294-3.713,8.294-8.294  S357.894,477.718,353.312,477.718z" data-original="#000000" class="" style="fill:#000000"/><path d="M335.619,458.919c4.58,0,8.294-3.713,8.294-8.294s-3.713-8.294-8.294-8.294H176.38c-4.58,0-8.294,3.713-8.294,8.294  s3.713,8.294,8.294,8.294H335.619z" data-original="#000000" class="" style="fill:#000000"/><path d="M149.84,228.907h212.319c9.452,0,17.14-7.689,17.14-17.14V123.3c0-9.452-7.689-17.14-17.14-17.14H149.84  c-9.452,0-17.14,7.689-17.14,17.14v88.466C132.699,221.218,140.389,228.907,149.84,228.907z M362.712,123.3v88.466  c0,0.305-0.248,0.553-0.553,0.553h-97.866v-89.572h97.866C362.464,122.747,362.712,122.995,362.712,123.3z M149.287,123.3  c0-0.305,0.248-0.553,0.553-0.553h97.866v89.572H149.84c-0.305,0-0.553-0.248-0.553-0.553V123.3z" data-original="#000000" class="" style="fill:#000000"/><path d="M229.46,87.361h53.08c4.58,0,8.294-3.713,8.294-8.294c0-4.58-3.713-8.294-8.294-8.294h-53.08  c-4.58,0-8.294,3.713-8.294,8.294C221.166,83.647,224.879,87.361,229.46,87.361z" data-original="#000000" class="" style="fill:#000000"/><path d="M158.686,87.361h0.088c4.58,0,8.249-3.713,8.249-8.294c0-4.58-3.758-8.294-8.338-8.294c-4.58,0-8.294,3.713-8.294,8.294  C150.393,83.647,154.106,87.361,158.686,87.361z" data-original="#000000" class="" style="fill:#000000"/><path d="M353.312,87.361h0.088c4.58,0,8.249-3.713,8.249-8.294c0-4.58-3.758-8.294-8.338-8.294c-4.58,0-8.294,3.713-8.294,8.294  C345.019,83.647,348.732,87.361,353.312,87.361z" data-original="#000000" class="" style="fill:#000000"/><path d="M184.673,309.079c0-14.329-11.658-25.987-25.987-25.987s-25.987,11.658-25.987,25.987c0,14.329,11.658,25.987,25.987,25.987  S184.673,323.409,184.673,309.079z M149.287,309.079c0-5.183,4.217-9.4,9.4-9.4s9.4,4.217,9.4,9.4c0,5.183-4.217,9.4-9.4,9.4  S149.287,314.262,149.287,309.079z" data-original="#000000" class="" style="fill:#000000"/><path d="M158.686,388.146c9.452,0,17.14-7.689,17.14-17.14c0-9.452-7.689-17.14-17.14-17.14s-17.14,7.689-17.14,17.14  C141.546,380.457,149.236,388.146,158.686,388.146z" data-original="#000000" class="" style="fill:#000000"/><path d="M353.312,283.092c-14.329,0-25.987,11.658-25.987,25.987c0,14.329,11.658,25.987,25.987,25.987s25.987-11.658,25.987-25.987  C379.299,294.75,367.642,283.092,353.312,283.092z M353.312,318.479c-5.183,0-9.4-4.217-9.4-9.4c0-5.183,4.216-9.4,9.4-9.4  s9.4,4.217,9.4,9.4C362.712,314.262,358.497,318.479,353.312,318.479z" data-original="#000000" class="" style="fill:#000000"/><path d="M353.312,353.865c-9.452,0-17.14,7.689-17.14,17.14c0,9.452,7.689,17.14,17.14,17.14s17.14-7.689,17.14-17.14  C370.453,361.554,362.764,353.865,353.312,353.865z" data-original="#000000" class="" style="fill:#000000"/><path d="M300.233,318.479h-88.466c-4.58,0-8.294,3.713-8.294,8.294c0,4.58,3.713,8.294,8.294,8.294h88.466  c4.58,0,8.294-3.713,8.294-8.294C308.526,322.192,304.814,318.479,300.233,318.479z" data-original="#000000" class="" style="fill:#000000"/><path d="M264.846,380.405h-17.693c-4.58,0-8.294,3.713-8.294,8.294c0,4.58,3.713,8.294,8.294,8.294h17.693  c4.58,0,8.294-3.713,8.294-8.294C273.14,384.119,269.428,380.405,264.846,380.405z" data-original="#000000" class="" style="fill:#000000"/><path d="M300.234,283.092h-88.467c-4.58,0-8.294,3.713-8.294,8.294c0,4.58,3.713,8.294,8.294,8.294h88.467  c4.58,0,8.294-3.713,8.294-8.294C308.527,286.806,304.815,283.092,300.234,283.092z" data-original="#000000" class="" style="fill:#000000"/></g> </svg>
