<?xml version="1.0"?>
<svg xmlns="http://www.w3.org/2000/svg" height="512px" viewBox="0 0 495.99658 495.99658" width="512px" class=""><g><path d="m8 248 240 240 240-240-240-240zm232-16c-35.347656 0-64 28.652344-64 64 0-35.347656 28.652344-64 64-64zm0 0" fill="#ff9811" data-original="#FF9811" class="active-path" style="fill:#3DD0F2" data-old_color="#3dd0f2"/><g fill="#231f20"><path d="m493.652344 242.34375-240-240c-3.121094-3.125-8.1875-3.125-11.308594 0l-240 240c-3.125 3.121094-3.125 8.1875 0 11.308594l240 240c3.121094 3.125 8.1875 3.125 11.308594 0l240-240c3.125-3.121094 3.125-8.1875 0-11.308594zm-245.652344 234.34375-228.691406-228.6875 228.691406-228.691406 228.6875 228.691406zm0 0" data-original="#000000" class="" style="fill:#000000"/><path d="m240 224c-39.746094.042969-71.957031 32.253906-72 72v32c0 4.417969 3.578125 8 8 8 4.417969 0 8-3.582031 8-8v-32c.035156-30.914062 25.085938-55.964844 56-56h72.613281v47.398438l55.386719-55.398438-55.386719-55.402344v47.402344zm0 0" data-original="#000000" class="" style="fill:#000000"/></g></g> </svg>
