<?xml version="1.0"?>
<svg xmlns="http://www.w3.org/2000/svg" height="512px" viewBox="0 -34 512.03842 512" width="512px" class=""><g><path d="m451.667969 296.695312c-.582031 7.734376-.4375 15.503907.429687 23.210938 1.367188 13.925781 3.90625 27.714844 7.59375 41.214844 1.960938 6.996094 16.296875 47.957031 19.285156 54.441406 3.683594 6.195312 6.988282 12.609375 9.898438 19.203125l-156.074219.425781v-.085937c-1.023437-3.414063-21.761719-75.945313-42.582031-86.1875-5.289062 2.050781-11.09375 4.78125-16.980469 7.597656-11.804687 6.816406-24.269531 12.421875-37.207031 16.722656-5.136719 1.308594-10.582031-.183593-14.335938-3.925781-2.640624-2.667969-4.578124-5.953125-5.632812-9.554688-1.699219-4.8125-2.308594-9.941406-1.789062-15.019531 1.414062-5.25 1.902343-10.710937 1.449218-16.128906-1.621094-6.910156-.9375-8.53125-5.632812-12.203125-2.046875-1.621094 6.828125-8.191406 21.589844-13.910156 3.171874-1.210938 5.171874-4.363282 4.914062-7.75-.253906-3.386719-2.703125-6.203125-6.023438-6.925782-11.574218-2.101562-22.984374-5.039062-34.132812-8.789062-2.644531-2.476562 1.109375-6.65625 4.609375-14.59375 1.417969-3.453125 1.832031-7.242188 1.191406-10.921875-1.277343-7.253906-11.433593-9.984375-16.382812-13.992187-2.390625-1.964844-6.144531-4.78125-6.570313-8.195313-.683594-4.863281 4.523438-11.605469 7.082032-15.015625 11.433593-15.191406 19.542968-21.675781 27.734374-39.167969 1.027344-1.832031 1.613282-3.878906 1.707032-5.976562-.085938-9.640625-12.972656-13.738281-14.164063-23.039063-.175781-2.761718.261719-5.53125 1.277344-8.105468 3.628906-8.324219 6.707031-16.875 9.214844-25.601563 1.519531-7.988281 3.515625-15.882813 5.976562-23.636719 5.042969-15.410156 13.078125-29.675781 23.636719-41.984375 15.855469-16.308593 36.519531-27.105469 58.964844-30.804687 17.78125-4.179688 35.828125-7.144532 54.015625-8.875 1.792969-.085938 3.5-.253906 5.289062-.339844 39.851563-2.21875 71.339844 12.457031 102.144531 38.742188 17.128907 14.097656 29.371094 33.238281 34.988282 54.695312 4.535156 18.160156 6.65625 36.839844 6.3125 55.554688-.097656 13.78125-2.910156 27.410156-8.277344 40.105468zm0 0" fill="#bfa885" data-original="#BFA885" class="" style="fill:#3DD0F2" data-old_color="#3dd0f2"/><path d="m426.070312 296.695312c-.585937 7.734376-.441406 15.503907.425782 23.210938 1.367187 13.925781 3.90625 27.714844 7.59375 41.214844 1.964844 6.996094 16.300781 47.957031 19.285156 54.441406 3.6875 6.195312 6.992188 12.609375 9.898438 19.203125l-130.472657.339844c-1.023437-3.414063-21.761719-75.945313-42.582031-86.1875-5.289062 2.050781-11.09375 4.78125-16.980469 7.597656-2.3125-3.109375-5.246093-5.695313-8.621093-7.597656-13.480469 5.121093-29.695313 14.765625-42.921876 20.394531-2.640624-2.667969-4.578124-5.953125-5.632812-9.554688-1.699219-4.8125-2.308594-9.941406-1.789062-15.019531 1.414062-5.25 1.902343-10.710937 1.449218-16.128906-1.621094-6.910156-.9375-8.53125-5.632812-12.203125-2.046875-1.621094 6.828125-8.191406 21.589844-13.910156 3.171874-1.210938 5.171874-4.363282 4.914062-7.75-.253906-3.386719-2.703125-6.203125-6.023438-6.925782-11.574218-2.101562-22.984374-5.039062-34.132812-8.789062-2.644531-2.476562 1.109375-6.65625 4.609375-14.59375 1.417969-3.453125 1.832031-7.242188 1.191406-10.921875-1.277343-7.253906-11.433593-9.984375-16.382812-13.992187-2.390625-1.964844-6.144531-4.78125-6.570313-8.195313-.683594-4.863281 4.523438-11.605469 7.082032-15.015625 11.433593-15.191406 19.542968-21.675781 27.734374-39.167969 1.027344-1.832031 1.613282-3.878906 1.707032-5.976562-.085938-9.640625-12.972656-13.738281-14.164063-23.039063-.175781-2.761718.261719-5.53125 1.277344-8.105468 3.628906-8.324219 6.707031-16.875 9.214844-25.601563 1.519531-7.988281 3.515625-15.882813 5.976562-23.636719 5.042969-15.410156 13.078125-29.675781 23.636719-41.984375 15.855469-16.308593 36.519531-27.105469 58.964844-30.804687 17.78125-4.179688 35.828125-7.144532 54.015625-8.875 30.660156 3.796875 59.320312 17.242187 81.835937 38.402344 17.125 14.097656 29.371094 33.238281 34.984375 54.695312 4.535157 18.160156 6.660157 36.839844 6.316407 55.554688-.097657 13.78125-2.914063 27.410156-8.277344 40.105468zm0 0" fill="#ffe0b2" data-original="#FFE0B2" class="" style="fill:#3DD0F2" data-old_color="#3dd0f2"/><path d="m503.464844 230.390625c0 37.703125-30.5625 68.265625-68.265625 68.265625-4.292969-.003906-8.578125-.402344-12.800781-1.191406-32.222657-6.109375-55.550782-34.273438-55.550782-67.074219s23.328125-60.960937 55.550782-67.070313c4.222656-.792968 8.507812-1.191406 12.800781-1.195312 37.703125 0 68.265625 30.5625 68.265625 68.265625zm0 0" fill="#558b30" data-original="#558B30" class="" style="fill:#ECF4F6" data-old_color="#3DD0F2"/><path d="m477.867188 230.390625c0-37.042969-24.832032-67.070313-55.46875-67.070313-30.632813 0-55.464844 30.027344-55.464844 67.070313s24.832031 67.074219 55.464844 67.074219c30.636718 0 55.46875-30.03125 55.46875-67.074219zm0 0" fill="#8bc34a" data-original="#8BC34A" class="active-path" style="fill:#FBFCFC" data-old_color="#3DD0F2"/><path d="m505.414062 100.070312c-6.101562-23.132812-19.285156-43.777343-37.703124-59.042968-35.617188-30.378906-69.015626-42.929688-108.160157-40.773438-20.433593 1.496094-40.714843 4.636719-60.644531 9.386719-24.269531 3.996094-46.582031 15.765625-63.582031 33.539063-11.320313 13.125-19.914063 28.367187-25.292969 44.839843-2.5 7.792969-4.53125 15.726563-6.085938 23.757813l-.1875.90625c-1.285156 5.191406-3.039062 10.257812-5.238281 15.136718-1.296875 3.113282-2.558593 6.230469-3.71875 9.496094-1.457031 3.789063-2.023437 7.863282-1.65625 11.90625 1.230469 6.25 4.59375 11.878906 9.511719 15.921875 2.347656 2.355469 4.566406 4.582031 4.601562 6.144531-.25.769532-.554687 1.519532-.914062 2.246094-4.441406 9.25-10.1875 17.816406-17.066406 25.4375-3.011719 3.632813-6.238282 7.515625-10.027344 12.566406-5.382812 5.613282-8.417969 13.070313-8.472656 20.847657 1.292968 5.679687 4.761718 10.625 9.660156 13.773437 2.144531 1.636719 4.429688 3.085938 6.828125 4.328125 2.394531 1.105469 4.585937 2.601563 6.492187 4.425781.363282 2.046876.160157 4.15625-.589843 6.09375-.921875 2.089844-1.859375 3.890626-2.679688 5.453126-2.457031 4.71875-6.5625 12.621093.050781 18.773437 1.929688 1.808594 3.476563 3.25 35.421876 10.292969-15.425782 6.277344-23.722657 12.601562-24.652344 18.824218-.363282 3.324219.941406 6.613282 3.492187 8.78125.851563.679688 1.167969 1.003907 1.183594 1.003907.238281.84375.429687 1.699219.574219 2.5625.210937 1.109375.476562 2.386719.851562 3.882812.265625 2.523438.039063 5.070313-.664062 7.507813-.375 1.910156-.742188 3.824218-.9375 5.539062-.707032 6.335938.015625 12.75 2.113281 18.773438 2.746094 11.335937 12.707031 19.457031 24.363281 19.855468 1.882813-.003906 3.761719-.214843 5.597656-.628906 11.152344-3.332031 21.890626-7.910156 32.007813-13.65625 6.53125-3.328125 13.210937-6.707031 19.328125-9.324218 12.058594 10.605468 27.5625 51.199218 35.355469 78.933593 1.066406 3.652344 4.421875 6.15625 8.226562 6.140625l156.074219-.425781c2.664062-.007813 5.171875-1.257813 6.777344-3.382813 1.609375-2.125 2.132812-4.878906 1.414062-7.445312-1.535156-4.703125-3.703125-9.179688-6.441406-13.304688-1.460938-2.300781-2.769531-4.695312-3.925781-7.167968-2.6875-5.851563-16.914063-46.386719-18.832031-53.230469-3.570313-13.035156-6.011719-26.351563-7.304688-39.808594-.5625-5.296875-.75-10.628906-.574219-15.957031 20.753907-7.019531 37.503907-22.601562 46-42.796875 8.496094-20.195313 7.925781-43.0625-1.566406-62.808594 4.878906-12.617187 7.445313-26.011719 7.578125-39.535156.363281-19.46875-1.851562-38.902344-6.585938-57.789063zm-70.214843 190.054688c-24.160157 0-45.941407-14.554688-55.1875-36.875-9.242188-22.320312-4.132813-48.011719 12.949219-65.097656 17.085937-17.082032 42.777343-22.191406 65.097656-12.949219 22.320312 9.246094 36.875 31.027344 36.875 55.1875-.039063 32.976563-26.757813 59.695313-59.734375 59.734375zm0-136.535156c-42.414063 0-76.800781 34.386718-76.800781 76.800781s34.386718 76.800781 76.800781 76.800781c2.5625 0 5.121093-.136718 7.679687-.382812.007813 4.6875.261719 9.375.761719 14.035156 1.402344 14.390625 4.03125 28.632812 7.859375 42.574219 1.917969 6.824219 16.46875 48.578125 19.667969 55.542969 1.136719 2.515624 2.429687 4.960937 3.875 7.3125l-135.84375.382812c-5.066407-16.929688-17.570313-54.824219-33.082031-74.578125l3.496093-1.332031c4.429688-1.707032 7.757813-2.960938 9.5-3.550782 27.628907-9.507812 41.445313-23.253906 41.078125-40.847656-.097656-4.644531-3.890625-8.355468-8.53125-8.355468h-.1875c-4.710937.101562-8.449218 4.003906-8.347656 8.710937.136719 6.417969-4.878906 15.855469-29.542969 24.339844-1.808593.621093-5.347656 1.960937-10.050781 3.753906-4.496094 1.707031-10.105469 3.855469-16.273438 6.136719h-.050781c-8.535156 3.484375-16.882812 7.398437-25.019531 11.730468-8.882812 5.03125-18.257812 9.128907-27.980469 12.230469-6.136719 1.363281-8.875-4.269531-9.984375-7.773437-1.332031-3.667969-1.820312-7.589844-1.433594-11.46875.160157-1.425782.453126-2.84375.734376-4.269532 1.273437-4.816406 1.457031-9.855468.542968-14.753906-.296875-1.289062-.519531-2.371094-.707031-3.308594-.367187-2.261718-1.007813-4.46875-1.910156-6.570312 4.269531-2.464844 8.734375-4.574219 13.34375-6.316406 6.6875-2.570313 10.894531-9.226563 10.347656-16.371094s-5.71875-13.082031-12.71875-14.605469c-13.824219-3.019531-21.71875-4.957031-26.171875-6.144531.855469-1.613281 1.707031-3.410156 2.613281-5.398438 2.117188-5.019531 2.746094-10.542968 1.816407-15.90625-2.15625-7.566406-7.746094-13.675781-15.085938-16.496093-1.714844-.890625-3.351562-1.917969-4.890625-3.082031-1-.789063-1.945313-1.644532-2.832031-2.558594 1.355468-3.066406 3.144531-5.925782 5.316406-8.484375 3.34375-4.453125 6.414062-8.140625 9.265625-11.578125 7.878906-8.789063 14.441406-18.675782 19.480469-29.347656 1.558594-2.898438 2.382812-6.136719 2.40625-9.425782-.574219-7.074218-4.042969-13.59375-9.582032-18.023437-2.183593-2.183594-4.445312-4.457031-4.648437-5.972657.039063-1.460937.328125-2.902343.851563-4.269531 1-2.867187 2.167968-5.683593 3.328124-8.53125 2.628907-5.835937 4.699219-11.90625 6.179688-18.132812l.175781-.855469c1.410157-7.371094 3.257813-14.648438 5.53125-21.800781 4.675781-14.359375 12.148438-27.648438 21.992188-39.101563 14.617187-14.960937 33.675781-24.804687 54.339843-28.066406 19.050782-4.550781 38.433594-7.570312 57.964844-9.035156 34.433594-1.902344 64.121094 9.386718 96.128906 36.691406 15.8125 12.945312 27.109376 30.574219 32.265626 50.347656 4.375 17.449219 6.417968 35.40625 6.066406 53.394532-.089844 7.246093-.980469 14.460937-2.664063 21.511718-14.507812-16.273437-35.269531-25.585937-57.070312-25.601562zm0 0" data-original="#000000" class="" style="fill:#000000"/><path d="m8.535156 315.722656h17.066406c3.808594.003906 7.160157-2.519531 8.207032-6.183594l8.3125-29.101562 17.867187 71.492188c.921875 3.683593 4.160157 6.316406 7.953125 6.460937h.324219c3.671875-.003906 6.929687-2.351563 8.089844-5.835937l11.554687-34.644532 7.390625 11.09375c1.894531 2.847656 5.308594 4.289063 8.671875 3.660156 3.363282-.628906 6.027344-3.207031 6.765625-6.546874l8.285157-37.339844 9.148437 45.71875c.675781 3.382812 3.324219 6.023437 6.707031 6.695312 3.382813.671875 6.839844-.761718 8.753906-3.628906l14.53125-21.839844h21.035157c4.714843 0 8.535156-3.820312 8.535156-8.53125 0-4.714844-3.820313-8.535156-8.535156-8.535156h-25.597657c-2.855468 0-5.519531 1.425781-7.101562 3.800781l-5.640625 8.464844-13.03125-65.171875c-.800781-3.9375-4.246094-6.78125-8.269531-6.824219h-.09375c-4-.003906-7.46875 2.773438-8.335938 6.679688l-12.722656 57.320312-5.972656-8.96875c-1.808594-2.710937-5.003906-4.152343-8.230469-3.71875-3.230469.433594-5.929687 2.667969-6.960937 5.757813l-7.796876 23.398437-18.5-74.011719c-.9375-3.742187-4.273437-6.390624-8.132812-6.457031-3.882812-.125-7.339844 2.4375-8.355469 6.183594l-15.292969 53.546875h-10.628906c-4.714844 0-8.535156 3.820312-8.535156 8.535156 0 4.710938 3.820312 8.53125 8.535156 8.53125zm0 0" data-original="#000000" class="" style="fill:#000000"/><path d="m454.136719 207.992188-28.160157 35.222656-10.328124-10.324219c-3.347657-3.234375-8.667969-3.1875-11.960938.105469-3.292969 3.289062-3.335938 8.613281-.101562 11.960937l17.066406 17.066407c1.59375 1.597656 3.757812 2.496093 6.015625 2.5h.476562c2.421875-.136719 4.671875-1.296876 6.1875-3.191407l34.132813-42.664062c1.90625-2.382813 2.394531-5.597657 1.285156-8.441407-1.109375-2.839843-3.648438-4.871093-6.664062-5.332031-3.015626-.460937-6.046876.722657-7.949219 3.105469zm0 0" data-original="#000000" class="" style="fill:#000000"/></g> </svg>
