<?xml version="1.0"?>
<svg xmlns="http://www.w3.org/2000/svg" xmlns:xlink="http://www.w3.org/1999/xlink" version="1.1" id="Capa_1" x="0px" y="0px" viewBox="0 0 512 512" style="enable-background:new 0 0 512 512;" xml:space="preserve" width="512px" height="512px" class=""><g><g>
	<rect x="7.5" y="51" style="fill:#3DD0F2" width="497" height="410" data-original="#CFE0E9" class="active-path" data-old_color="#3dd0f2"/>
	<rect x="474.5" y="51" style="fill:#3DD0F2" width="30" height="410" data-original="#ABBFCF" class="" data-old_color="#3dd0f2"/>
	
		<rect x="81" y="37.5" transform="matrix(-1.836970e-16 1 -1 -1.836970e-16 512 5.684342e-14)" style="fill:#3DD0F2" width="350" height="437" data-original="#FFD659" class="" data-old_color="#3dd0f2"/>
	<polygon style="fill:#F3F3F8" points="160.917,372.823 37.5,431 37.5,81 160.917,139.177  " data-original="#50536E" class="" data-old_color="#50536E"/>
	<polygon style="fill:#3DD0F2" points="63.5,122 134.917,155.665 134.917,356.335 63.5,390  " data-original="#8CF2FF" class="" data-old_color="#3dd0f2"/>
	<polygon style="fill:#F3F3F8" points="351.083,372.823 474.5,431 474.5,81 351.083,139.177  " data-original="#50536E" class="" data-old_color="#50536E"/>
	<polygon style="fill:#EEEFF7" points="448.5,93.256 448.5,418.744 474.5,431 474.5,81  " data-original="#484B63" class="" data-old_color="#484B63"/>
	<polygon style="fill:#3DD0F2" points="377.083,356.335 377.083,155.665 448.5,122 448.5,390  " data-original="#8CF2FF" class="" data-old_color="#3dd0f2"/>
	<g>
		<path d="M284.903,265.966c2.491-3.31,1.828-8.012-1.481-10.503c-7.948-5.983-17.42-9.146-27.392-9.146    c-10.002,0-19.498,3.181-27.463,9.198c-3.305,2.497-3.96,7.201-1.463,10.506c1.476,1.951,3.719,2.979,5.99,2.979    c1.574,0,3.162-0.494,4.516-1.516c5.339-4.034,11.709-6.167,18.42-6.167c6.69,0,13.043,2.12,18.37,6.13    C277.712,269.938,282.413,269.275,284.903,265.966z" data-original="#000000" class="" style="fill:#000000"/>
		<path d="M295.657,246.561c2.491-3.309,1.83-8.011-1.479-10.503c-11.074-8.341-24.266-12.75-38.147-12.75    c-13.917,0-27.132,4.427-38.218,12.802c-3.305,2.497-3.96,7.2-1.463,10.506c1.475,1.951,3.719,2.979,5.99,2.979    c1.574,0,3.162-0.493,4.516-1.516c8.46-6.392,18.548-9.771,29.175-9.771c10.6,0,20.67,3.365,29.124,9.732    C288.464,250.531,293.164,249.869,295.657,246.561z" data-original="#000000" class="" style="fill:#000000"/>
		<path d="M305.989,227.712c2.493-3.308,1.833-8.01-1.476-10.503C290.444,206.604,273.679,201,256.03,201    c-17.684,0-34.473,5.622-48.552,16.259c-3.305,2.497-3.96,7.2-1.463,10.506c1.475,1.951,3.719,2.979,5.99,2.979    c1.574,0,3.162-0.493,4.516-1.516C227.975,220.574,241.637,216,256.03,216c14.364,0,28.008,4.561,39.456,13.188    C298.795,231.683,303.498,231.02,305.989,227.712z" data-original="#000000" class="" style="fill:#000000"/>
		<circle cx="256" cy="282" r="7.5" data-original="#000000" class="" style="fill:#000000"/>
		<path d="M504.5,43.5h-440c-4.143,0-7.5,3.357-7.5,7.5s3.357,7.5,7.5,7.5H497v395H15v-395h17c4.143,0,7.5-3.357,7.5-7.5    s-3.357-7.5-7.5-7.5H7.5C3.357,43.5,0,46.857,0,51v410c0,4.143,3.357,7.5,7.5,7.5h497c4.143,0,7.5-3.357,7.5-7.5V51    C512,46.857,508.643,43.5,504.5,43.5z" data-original="#000000" class="" style="fill:#000000"/>
		<path d="M409,431c0,4.143,3.357,7.5,7.5,7.5h58c0.323,0,0.638-0.027,0.95-0.067c0.076-0.01,0.152-0.023,0.228-0.035    c0.271-0.043,0.537-0.099,0.797-0.17c0.047-0.013,0.094-0.022,0.141-0.036c0.314-0.092,0.619-0.204,0.914-0.335    c0.042-0.019,0.083-0.041,0.126-0.061c0.261-0.121,0.513-0.257,0.757-0.407c0.034-0.021,0.07-0.035,0.104-0.056    c0.021-0.013,0.04-0.03,0.061-0.044c0.245-0.159,0.482-0.328,0.706-0.514c0.013-0.011,0.024-0.023,0.037-0.034    c0.205-0.172,0.399-0.357,0.584-0.551c0.059-0.062,0.115-0.125,0.171-0.188c0.14-0.156,0.274-0.318,0.401-0.486    c0.048-0.064,0.098-0.127,0.144-0.192c0.158-0.223,0.307-0.454,0.44-0.694c0.004-0.007,0.008-0.013,0.012-0.02    c0.142-0.257,0.266-0.525,0.377-0.8c0.02-0.05,0.036-0.101,0.055-0.151c0.083-0.219,0.156-0.441,0.219-0.669    c0.021-0.077,0.041-0.153,0.059-0.231c0.051-0.212,0.092-0.428,0.125-0.647c0.011-0.077,0.026-0.153,0.035-0.231    c0.034-0.29,0.056-0.583,0.056-0.881V81c0-0.299-0.022-0.592-0.056-0.881c-0.009-0.078-0.024-0.154-0.035-0.231    c-0.033-0.219-0.074-0.435-0.125-0.647c-0.019-0.077-0.038-0.154-0.059-0.231c-0.063-0.228-0.136-0.451-0.219-0.669    c-0.019-0.05-0.035-0.101-0.055-0.151c-0.111-0.275-0.236-0.543-0.377-0.8c-0.004-0.007-0.008-0.013-0.012-0.02    c-0.133-0.24-0.282-0.471-0.44-0.694c-0.046-0.065-0.095-0.128-0.144-0.192c-0.127-0.168-0.261-0.33-0.401-0.486    c-0.057-0.063-0.112-0.127-0.171-0.188c-0.186-0.193-0.379-0.378-0.584-0.551c-0.013-0.011-0.024-0.023-0.037-0.034    c-0.224-0.186-0.461-0.354-0.706-0.514c-0.021-0.014-0.039-0.031-0.061-0.044c-0.04-0.025-0.082-0.043-0.122-0.067    c-0.196-0.12-0.398-0.23-0.606-0.332c-0.064-0.031-0.128-0.063-0.193-0.093c-0.244-0.111-0.494-0.21-0.751-0.295    c-0.019-0.006-0.037-0.014-0.056-0.021c-0.28-0.09-0.568-0.162-0.862-0.219c-0.055-0.011-0.111-0.016-0.166-0.025    c-0.223-0.038-0.449-0.067-0.678-0.085c-0.097-0.007-0.193-0.011-0.29-0.015c-0.098-0.004-0.194-0.015-0.293-0.015h-437    c-0.099,0-0.195,0.011-0.293,0.015c-0.098,0.004-0.195,0.007-0.292,0.015c-0.227,0.018-0.451,0.047-0.672,0.084    c-0.057,0.01-0.115,0.015-0.172,0.026c-0.292,0.056-0.578,0.129-0.858,0.218c-0.023,0.007-0.045,0.017-0.067,0.025    c-0.253,0.084-0.499,0.182-0.739,0.291c-0.067,0.03-0.132,0.063-0.198,0.095c-0.206,0.101-0.407,0.211-0.602,0.33    c-0.04,0.024-0.083,0.042-0.123,0.067c-0.021,0.013-0.039,0.03-0.061,0.044c-0.245,0.159-0.482,0.328-0.706,0.514    c-0.013,0.011-0.024,0.023-0.037,0.034c-0.205,0.172-0.399,0.357-0.585,0.551c-0.059,0.062-0.115,0.125-0.171,0.188    c-0.14,0.156-0.274,0.318-0.401,0.486c-0.048,0.064-0.098,0.127-0.144,0.192c-0.158,0.223-0.307,0.454-0.44,0.694    c-0.004,0.007-0.008,0.013-0.012,0.02c-0.142,0.257-0.266,0.525-0.377,0.8c-0.02,0.05-0.036,0.102-0.056,0.152    c-0.083,0.219-0.156,0.441-0.219,0.668c-0.021,0.077-0.041,0.153-0.059,0.231c-0.051,0.212-0.092,0.428-0.125,0.647    c-0.012,0.077-0.026,0.153-0.035,0.231C30.022,80.408,30,80.701,30,81v350c0,0.299,0.022,0.592,0.056,0.881    c0.009,0.078,0.024,0.154,0.035,0.231c0.033,0.219,0.074,0.435,0.125,0.647c0.019,0.077,0.038,0.154,0.059,0.231    c0.063,0.227,0.136,0.45,0.219,0.668c0.019,0.051,0.036,0.102,0.056,0.153c0.111,0.275,0.235,0.542,0.377,0.8    c0.004,0.007,0.008,0.013,0.012,0.02c0.133,0.24,0.282,0.471,0.44,0.694c0.046,0.065,0.095,0.128,0.144,0.192    c0.127,0.168,0.261,0.33,0.401,0.486c0.057,0.063,0.112,0.127,0.171,0.188c0.186,0.193,0.379,0.378,0.585,0.551    c0.013,0.011,0.024,0.023,0.037,0.034c0.224,0.186,0.461,0.354,0.706,0.514c0.021,0.014,0.039,0.031,0.061,0.044    c0.034,0.021,0.07,0.035,0.104,0.056c0.244,0.15,0.496,0.286,0.757,0.407c0.042,0.02,0.083,0.042,0.126,0.061    c0.295,0.131,0.6,0.243,0.914,0.335c0.047,0.014,0.094,0.023,0.141,0.036c0.26,0.071,0.526,0.127,0.797,0.17    c0.076,0.012,0.151,0.025,0.228,0.035c0.312,0.04,0.628,0.067,0.95,0.067h346.333c4.143,0,7.5-3.357,7.5-7.5s-3.357-7.5-7.5-7.5    H71.001l93.114-43.893c2.626-1.238,4.302-3.881,4.302-6.784V351.75c0-4.143-3.357-7.5-7.5-7.5s-7.5,3.357-7.5,7.5v16.317    L45,419.173V92.827l108.417,51.105v175.942c0,4.143,3.357,7.5,7.5,7.5s7.5-3.357,7.5-7.5V139.177c0-2.903-1.676-5.546-4.302-6.784    L71.001,88.5h369.998l-93.114,43.893c-2.626,1.238-4.302,3.881-4.302,6.784v233.646c0,2.903,1.676,5.546,4.302,6.784    l93.114,43.893H416.5C412.357,423.5,409,426.857,409,431z M358.583,143.933L467,92.827v326.346l-108.417-51.105V143.933z" data-original="#000000" class="" style="fill:#000000"/>
		<path d="M66.698,115.216c-2.323-1.094-5.045-0.926-7.215,0.45C57.314,117.042,56,119.432,56,122v268    c0,2.568,1.314,4.958,3.483,6.334c1.221,0.773,2.616,1.166,4.017,1.166c1.09,0,2.182-0.237,3.198-0.716l71.417-33.665    c2.626-1.238,4.302-3.881,4.302-6.784v-200.67c0-2.903-1.676-5.546-4.302-6.784L66.698,115.216z M127.417,248.5h-17.488v-96.323    l17.488,8.244V248.5z M94.929,145.107V248.5H71V133.827L94.929,145.107z M71,263.5h23.929v103.393L71,378.173V263.5z     M109.929,359.823V263.5h17.488v88.079L109.929,359.823z" data-original="#000000" class="" style="fill:#000000"/>
		<path d="M452.517,115.666c-2.171-1.376-4.893-1.544-7.215-0.45l-71.417,33.665c-2.626,1.238-4.302,3.881-4.302,6.784v200.67    c0,2.903,1.676,5.546,4.302,6.784l71.417,33.665c1.017,0.479,2.108,0.716,3.198,0.716c1.4,0,2.796-0.393,4.017-1.166    c2.169-1.376,3.483-3.766,3.483-6.334V122C456,119.432,454.686,117.042,452.517,115.666z M441,248.5h-23.929V145.107L441,133.827    V248.5z M402.071,152.177V248.5h-17.488v-88.079L402.071,152.177z M384.583,263.5h17.488v96.323l-17.488-8.244V263.5z     M417.071,366.893V263.5H441v114.673L417.071,366.893z" data-original="#000000" class="" style="fill:#000000"/>
	</g>
</g></g> </svg>
